SplineFontDB: 3.2
FontName: Monoid-Retina
FullName: Monoid Retina
FamilyName: Monoid
Weight: Light
Copyright: Copyright (c) 2015, @larsenwork
Version: 0.62
ItalicAngle: 0
UnderlinePosition: -504
UnderlineWidth: 120
Ascent: 1228
Descent: 308
InvalidEm: 0
sfntRevision: 0x00009eb8
LayerCount: 3
Layer: 0 1 "Back" 1
Layer: 1 1 "Fore" 0
Layer: 2 0 "Back 2" 1
XUID: [1021 796 -163880829 14054500]
StyleMap: 0x0000
FSType: 0
OS2Version: 4
OS2_WeightWidthSlopeOnly: 0
OS2_UseTypoMetrics: 1
CreationTime: 1427918972
ModificationTime: 1606772517
PfmFamily: 17
TTFWeight: 300
TTFWidth: 4
LineGap: 0
VLineGap: 0
Panose: 2 0 3 3 0 0 0 0 0 0
OS2TypoAscent: 1664
OS2TypoAOffset: 0
OS2TypoDescent: -384
OS2TypoDOffset: 0
OS2TypoLinegap: 0
OS2WinAscent: 1664
OS2WinAOffset: 0
OS2WinDescent: 384
OS2WinDOffset: 0
HheadAscent: 1664
HheadAOffset: 0
HheadDescent: -384
HheadDOffset: 0
OS2SubXSize: 998
OS2SubYSize: 1075
OS2SubXOff: 0
OS2SubYOff: 215
OS2SupXSize: 998
OS2SupYSize: 1075
OS2SupXOff: 0
OS2SupYOff: 737
OS2StrikeYSize: 76
OS2StrikeYPos: 397
OS2CapHeight: 1408
OS2XHeight: 1024
OS2Vendor: 'PfEd'
OS2CodePages: 0000009f.00000000
OS2UnicodeRanges: 800002ff.10045063.00000000.00000000
Lookup: 1 0 0 "'ss01' Style Set 1 lookup 0" { "'ss01' Style Set 1 lookup 0 subtable"  } ['ss01' ('DFLT' <'dflt' > 'cyrl' <'dflt' > 'grek' <'dflt' > 'kana' <'dflt' > 'latn' <'dflt' > ) ]
Lookup: 1 0 0 "'ss02' Style Set 2 lookup 1" { "'ss02' Style Set 2 lookup 1 subtable"  } ['ss02' ('DFLT' <'dflt' > 'cyrl' <'dflt' > 'grek' <'dflt' > 'kana' <'dflt' > 'latn' <'dflt' > ) ]
Lookup: 1 0 0 "'ss03' Style Set 3 lookup 2" { "'ss03' Style Set 3 lookup 2 subtable"  } ['ss03' ('DFLT' <'dflt' > 'cyrl' <'dflt' > 'grek' <'dflt' > 'kana' <'dflt' > 'latn' <'dflt' > ) ]
Lookup: 1 0 0 "'ss04' Style Set 4 lookup 3" { "'ss04' Style Set 4 lookup 3 subtable"  } ['ss04' ('DFLT' <'dflt' > 'cyrl' <'dflt' > 'grek' <'dflt' > 'kana' <'dflt' > 'latn' <'dflt' > ) ]

StartChar: .notdef
Encoding: 65536 -1 0
Width: 561
Flags: W
LayerCount: 3
Fore
SplineSet
51 0 m 1,0,-1
 51 1024 l 1,1,-1
 459 1024 l 1,2,-1
 459 0 l 1,3,-1
 51 0 l 1,0,-1
102 51 m 1,4,-1
 408 51 l 1,5,-1
 408 973 l 1,6,-1
 102 973 l 1,7,-1
 102 51 l 1,4,-1
EndSplineSet
EndChar

StartChar: exclam
Encoding: 33 33 4
Width: 1024
GlyphClass: 2
Flags: W
LayerCount: 3
Fore
SplineSet
512 272 m 128,-1,1
 576 272 576 272 616 232 c 128,-1,2
 656 192 656 192 656 128 c 128,-1,3
 656 64 656 64 616 24 c 128,-1,4
 576 -16 576 -16 512 -16 c 128,-1,5
 448 -16 448 -16 408 24 c 128,-1,6
 368 64 368 64 368 128 c 128,-1,7
 368 192 368 192 408 232 c 128,-1,0
 448 272 448 272 512 272 c 128,-1,1
576 512 m 1,8,-1
 448 512 l 1,9,-1
 438 1408 l 1,10,-1
 586 1408 l 1,11,-1
 576 512 l 1,8,-1
EndSplineSet
Substitution2: "Single Substitution lookup 90 subtable" exclam.2r
Substitution2: "Single Substitution lookup 89 subtable" exclam.2l
Substitution2: "Single Substitution lookup 42 subtable" larsenwork2
Substitution2: "Single Substitution lookup 39 subtable" larsenwork1
Substitution2: "Single Substitution lookup 20 subtable" larsenwork5
Position2: "Single Positioning lookup 26 subtable" dx=-128 dy=0 dh=0 dv=0
Position2: "Single Positioning lookup 20 subtable" dx=64 dy=0 dh=0 dv=0
Position2: "Single Positioning lookup 19 subtable" dx=64 dy=0 dh=0 dv=0
Position2: "Single Positioning lookup 17 subtable" dx=0 dy=0 dh=0 dv=0
Position2: "Single Positioning lookup 15 subtable" dx=0 dy=0 dh=0 dv=0
Position2: "Single Positioning lookup 12 subtable" dx=128 dy=0 dh=0 dv=0
Position2: "Single Positioning lookup 10 subtable" dx=64 dy=0 dh=0 dv=0
Position2: "Single Positioning lookup 8 subtable" dx=-64 dy=0 dh=0 dv=0
Position2: "Single Positioning lookup 4 subtable" dx=64 dy=0 dh=0 dv=0
Position2: "Single Positioning lookup 3 subtable" dx=64 dy=0 dh=0 dv=0
Position2: "Single Positioning lookup 1 subtable" dx=64 dy=0 dh=0 dv=0
EndChar

StartChar: quotedbl
Encoding: 34 34 5
Width: 1024
GlyphClass: 2
Flags: W
LayerCount: 3
Fore
SplineSet
640 1408 m 1,0,-1
 768 1408 l 1,1,-1
 768 768 l 1,2,-1
 640 768 l 1,3,-1
 640 1408 l 1,0,-1
256 1408 m 1,4,-1
 384 1408 l 1,5,-1
 384 768 l 1,6,-1
 256 768 l 1,7,-1
 256 1408 l 1,4,-1
EndSplineSet
EndChar

StartChar: numbersign
Encoding: 35 35 6
Width: 1024
GlyphClass: 2
Flags: W
LayerCount: 3
Fore
SplineSet
384 904 m 1,0,-1
 384 504 l 1,1,-1
 640 504 l 1,2,-1
 640 904 l 1,3,-1
 384 904 l 1,0,-1
896 504 m 1,4,-1
 896 384 l 1,5,-1
 768 384 l 1,6,-1
 768 0 l 1,7,-1
 640 0 l 1,8,-1
 640 384 l 1,9,-1
 384 384 l 1,10,-1
 384 0 l 1,11,-1
 256 0 l 1,12,-1
 256 384 l 1,13,-1
 128 384 l 1,14,-1
 128 504 l 1,15,-1
 256 504 l 1,16,-1
 256 904 l 1,17,-1
 128 904 l 1,18,-1
 128 1024 l 1,19,-1
 256 1024 l 1,20,-1
 256 1408 l 1,21,-1
 384 1408 l 1,22,-1
 384 1024 l 1,23,-1
 640 1024 l 1,24,-1
 640 1408 l 1,25,-1
 768 1408 l 1,26,-1
 768 1024 l 1,27,-1
 896 1024 l 1,28,-1
 896 904 l 1,29,-1
 768 904 l 1,30,-1
 768 504 l 1,31,-1
 896 504 l 1,4,-1
EndSplineSet
EndChar

StartChar: dollar
Encoding: 36 36 7
Width: 1024
GlyphClass: 2
Flags: W
LayerCount: 3
Fore
SplineSet
512 1536 m 1,0,-1
 640 1536 l 1,1,-1
 640 1419 l 1,2,3
 753 1412 753 1412 862 1399 c 1,4,-1
 862 1278 l 1,5,6
 719 1294 719 1294 640 1299 c 1,7,-1
 640 758 l 1,8,9
 765 724 765 724 845.5 627.5 c 128,-1,10
 926 531 926 531 926 385 c 0,11,12
 926 211 926 211 809.5 100.5 c 128,-1,13
 693 -10 693 -10 512 -16 c 1,14,-1
 512 -128 l 1,15,-1
 384 -128 l 1,16,-1
 384 -13 l 1,17,18
 265 -6 265 -6 122 16 c 1,19,-1
 122 139 l 1,20,21
 265 116 265 116 384 108 c 1,22,-1
 384 682 l 1,23,24
 256 714 256 714 177 808 c 128,-1,25
 98 902 98 902 98 1045 c 0,26,27
 98 1090 98 1090 107.5 1136 c 128,-1,28
 117 1182 117 1182 145 1235.5 c 128,-1,29
 173 1289 173 1289 216.5 1329.5 c 128,-1,30
 260 1370 260 1370 336.5 1397 c 128,-1,31
 413 1424 413 1424 512 1424 c 1,32,-1
 512 1536 l 1,0,-1
512 1304 m 1,33,34
 440 1304 440 1304 385.5 1285 c 128,-1,35
 331 1266 331 1266 301.5 1238.5 c 128,-1,36
 272 1211 272 1211 254 1173.5 c 128,-1,37
 236 1136 236 1136 231 1106 c 128,-1,38
 226 1076 226 1076 226 1045 c 0,39,40
 226 973 226 973 253.5 920 c 128,-1,41
 281 867 281 867 327 839.5 c 128,-1,42
 373 812 373 812 417.5 799 c 128,-1,43
 462 786 462 786 512 782 c 1,44,-1
 512 1304 l 1,33,34
512 662 m 1,45,-1
 512 104 l 1,46,47
 640 110 640 110 719 185 c 128,-1,48
 798 260 798 260 798 385 c 0,49,50
 798 455 798 455 773.5 508 c 128,-1,51
 749 561 749 561 707 592.5 c 128,-1,52
 665 624 665 624 616.5 641 c 128,-1,53
 568 658 568 658 512 662 c 1,45,-1
EndSplineSet
Substitution2: "'ss01' Style Set 1 lookup 0 subtable" dollar.empty
EndChar

StartChar: percent
Encoding: 37 37 8
Width: 1024
GlyphClass: 2
Flags: W
LayerCount: 3
Fore
SplineSet
108 212 m 1,0,-1
 20 300 l 1,1,-1
 916 1196 l 1,2,-1
 1004 1108 l 1,3,-1
 108 212 l 1,0,-1
320 1304 m 128,-1,5
 255 1304 255 1304 215.5 1264 c 128,-1,6
 176 1224 176 1224 176 1152 c 128,-1,7
 176 1080 176 1080 215.5 1040 c 128,-1,8
 255 1000 255 1000 320 1000 c 128,-1,9
 385 1000 385 1000 424.5 1040 c 128,-1,10
 464 1080 464 1080 464 1152 c 128,-1,11
 464 1224 464 1224 424.5 1264 c 128,-1,4
 385 1304 385 1304 320 1304 c 128,-1,5
320 1424 m 128,-1,13
 439 1424 439 1424 515.5 1346 c 128,-1,14
 592 1268 592 1268 592 1152 c 128,-1,15
 592 1036 592 1036 515.5 958 c 128,-1,16
 439 880 439 880 320 880 c 128,-1,17
 201 880 201 880 124.5 958 c 128,-1,18
 48 1036 48 1036 48 1152 c 128,-1,19
 48 1268 48 1268 124.5 1346 c 128,-1,12
 201 1424 201 1424 320 1424 c 128,-1,13
704 408 m 128,-1,21
 639 408 639 408 599.5 368 c 128,-1,22
 560 328 560 328 560 256 c 128,-1,23
 560 184 560 184 599.5 144 c 128,-1,24
 639 104 639 104 704 104 c 128,-1,25
 769 104 769 104 808.5 144 c 128,-1,26
 848 184 848 184 848 256 c 128,-1,27
 848 328 848 328 808.5 368 c 128,-1,20
 769 408 769 408 704 408 c 128,-1,21
704 528 m 128,-1,29
 823 528 823 528 899.5 450 c 128,-1,30
 976 372 976 372 976 256 c 128,-1,31
 976 140 976 140 899.5 62 c 128,-1,32
 823 -16 823 -16 704 -16 c 128,-1,33
 585 -16 585 -16 508.5 62 c 128,-1,34
 432 140 432 140 432 256 c 128,-1,35
 432 372 432 372 508.5 450 c 128,-1,28
 585 528 585 528 704 528 c 128,-1,29
EndSplineSet
EndChar

StartChar: ampersand
Encoding: 38 38 9
Width: 1024
GlyphClass: 2
Flags: W
LayerCount: 3
Fore
SplineSet
386 681 m 1,0,1
 285 647 285 647 222.5 574.5 c 128,-1,2
 160 502 160 502 160 396 c 0,3,4
 160 271 160 271 254.5 187.5 c 128,-1,5
 349 104 349 104 512 104 c 0,6,7
 665 104 665 104 751 182 c 1,8,-1
 386 681 l 1,0,1
441 819 m 1,9,10
 500 834 500 834 545.5 854 c 128,-1,11
 591 874 591 874 633 906 c 128,-1,12
 675 938 675 938 698 986 c 128,-1,13
 721 1034 721 1034 721 1095 c 0,14,15
 721 1189 721 1189 664 1248.5 c 128,-1,16
 607 1308 607 1308 512 1308 c 0,17,18
 418 1308 418 1308 360.5 1249.5 c 128,-1,19
 303 1191 303 1191 303 1094 c 0,20,21
 303 1078 303 1078 304 1064.5 c 128,-1,22
 305 1051 305 1051 309.5 1036 c 128,-1,23
 314 1021 314 1021 316.5 1011 c 128,-1,24
 319 1001 319 1001 329 983.5 c 128,-1,25
 339 966 339 966 343 958 c 128,-1,26
 347 950 347 950 362.5 928 c 128,-1,27
 378 906 378 906 384 897.5 c 128,-1,28
 390 889 390 889 411 860 c 128,-1,29
 432 831 432 831 441 819 c 1,9,10
820 299 m 1,30,31
 832 342 832 342 832 431 c 2,32,-1
 832 640 l 1,33,-1
 960 640 l 1,34,-1
 960 431 l 2,35,36
 960 265 960 265 907 179 c 1,37,-1
 1038 0 l 1,38,-1
 883 0 l 1,39,-1
 824 82 l 1,40,41
 704 -16 704 -16 512 -16 c 0,42,43
 292 -16 292 -16 162 104 c 128,-1,44
 32 224 32 224 32 396 c 0,45,46
 32 530 32 530 110 633 c 128,-1,47
 188 736 188 736 312 782 c 1,48,49
 271 839 271 839 255 862.5 c 128,-1,50
 239 886 239 886 215.5 929.5 c 128,-1,51
 192 973 192 973 183.5 1010.5 c 128,-1,52
 175 1048 175 1048 175 1093 c 0,53,54
 175 1242 175 1242 270.5 1335 c 128,-1,55
 366 1428 366 1428 512 1428 c 0,56,57
 660 1428 660 1428 754.5 1333 c 128,-1,58
 849 1238 849 1238 849 1095 c 0,59,60
 849 963 849 963 762.5 860.5 c 128,-1,61
 676 758 676 758 516 716 c 1,62,-1
 820 299 l 1,30,31
EndSplineSet
Substitution2: "Single Substitution lookup 85 subtable" ampersand.method
Substitution2: "Single Substitution lookup 84 subtable" larsenwork6
Substitution2: "Single Substitution lookup 83 subtable" ampamp
EndChar

StartChar: quotesingle
Encoding: 39 39 10
Width: 1024
GlyphClass: 2
Flags: W
LayerCount: 3
Fore
SplineSet
448 1408 m 1,0,-1
 576 1408 l 1,1,-1
 576 768 l 1,2,-1
 448 768 l 1,3,-1
 448 1408 l 1,0,-1
EndSplineSet
EndChar

StartChar: parenleft
Encoding: 40 40 11
Width: 1024
GlyphClass: 2
Flags: W
LayerCount: 3
Fore
SplineSet
771 1546 m 1,0,-1
 826 1441 l 1,1,2
 634 1344 634 1344 529 1159 c 128,-1,3
 424 974 424 974 424 703 c 128,-1,4
 424 432 424 432 529 246.5 c 128,-1,5
 634 61 634 61 826 -35 c 1,6,-1
 771 -140 l 1,7,8
 546 -31 546 -31 421 182 c 128,-1,9
 296 395 296 395 296 703 c 128,-1,10
 296 1011 296 1011 421 1223.5 c 128,-1,11
 546 1436 546 1436 771 1546 c 1,0,-1
EndSplineSet
Substitution2: "Single Substitution lookup 16 subtable" parenleft.shrug
EndChar

StartChar: parenright
Encoding: 41 41 12
Width: 1024
GlyphClass: 2
Flags: W
LayerCount: 3
Fore
SplineSet
253 1546 m 1,0,1
 478 1436 478 1436 603 1223.5 c 128,-1,2
 728 1011 728 1011 728 703 c 128,-1,3
 728 395 728 395 603 182 c 128,-1,4
 478 -31 478 -31 253 -140 c 1,5,-1
 198 -35 l 1,6,7
 390 61 390 61 495 246.5 c 128,-1,8
 600 432 600 432 600 703 c 128,-1,9
 600 974 600 974 495 1159 c 128,-1,10
 390 1344 390 1344 198 1441 c 1,11,-1
 253 1546 l 1,0,1
EndSplineSet
Substitution2: "Single Substitution lookup 17 subtable" parenright.shrug
EndChar

StartChar: asterisk
Encoding: 42 42 13
Width: 1024
GlyphClass: 2
Flags: W
LayerCount: 3
Fore
SplineSet
448 522 m 1,0,-1
 80 402 l 1,1,-1
 38 515 l 1,2,-1
 412 637 l 1,3,-1
 180 957 l 1,4,-1
 286 1024 l 1,5,-1
 512 713 l 1,6,-1
 739 1024 l 1,7,-1
 845 957 l 1,8,-1
 612 637 l 1,9,-1
 986 515 l 1,10,-1
 944 402 l 1,11,-1
 576 522 l 1,12,-1
 576 128 l 1,13,-1
 448 128 l 1,14,-1
 448 522 l 1,0,-1
EndSplineSet
Substitution2: "Single Substitution lookup 109 subtable" asterisk.commentend
Substitution2: "Single Substitution lookup 108 subtable" asterisk.commentstart
Substitution2: "Single Substitution lookup 107 subtable" asterisk.commentstart
Substitution2: "Single Substitution lookup 86 subtable" asterisk.period
Substitution2: "'ss02' Style Set 2 lookup 1 subtable" asterisk.multi
EndChar

StartChar: plus
Encoding: 43 43 14
Width: 1024
GlyphClass: 2
Flags: W
LayerCount: 3
Fore
SplineSet
576 636 m 1,0,-1
 960 636 l 1,1,-1
 960 516 l 1,2,-1
 576 516 l 1,3,-1
 576 128 l 1,4,-1
 448 128 l 1,5,-1
 448 516 l 1,6,-1
 64 516 l 1,7,-1
 64 636 l 1,8,-1
 448 636 l 1,9,-1
 448 1024 l 1,10,-1
 576 1024 l 1,11,-1
 576 636 l 1,0,-1
EndSplineSet
EndChar

StartChar: comma
Encoding: 44 44 15
Width: 1024
GlyphClass: 2
Flags: W
LayerCount: 3
Fore
SplineSet
384 368 m 1,0,-1
 640 368 l 1,1,-1
 640 23 l 2,2,3
 640 -18 640 -18 638.5 -42 c 128,-1,4
 637 -66 637 -66 624.5 -105.5 c 128,-1,5
 612 -145 612 -145 588 -177 c 0,6,7
 518 -272 518 -272 384 -272 c 1,8,-1
 384 -152 l 1,9,10
 450 -152 450 -152 484 -107 c 0,11,12
 497 -90 497 -90 503.5 -66.5 c 128,-1,13
 510 -43 510 -43 511 -26.5 c 128,-1,14
 512 -10 512 -10 512 23 c 2,15,-1
 512 128 l 1,16,-1
 384 128 l 1,17,-1
 384 368 l 1,0,-1
EndSplineSet
Position2: "Single Positioning lookup 26 subtable" dx=-128 dy=0 dh=0 dv=0
Position2: "Single Positioning lookup 20 subtable" dx=64 dy=0 dh=0 dv=0
Position2: "Single Positioning lookup 19 subtable" dx=64 dy=0 dh=0 dv=0
Position2: "Single Positioning lookup 17 subtable" dx=0 dy=0 dh=0 dv=0
Position2: "Single Positioning lookup 15 subtable" dx=0 dy=0 dh=0 dv=0
Position2: "Single Positioning lookup 12 subtable" dx=128 dy=0 dh=0 dv=0
Position2: "Single Positioning lookup 10 subtable" dx=64 dy=0 dh=0 dv=0
Position2: "Single Positioning lookup 8 subtable" dx=-64 dy=0 dh=0 dv=0
Position2: "Single Positioning lookup 4 subtable" dx=64 dy=0 dh=0 dv=0
Position2: "Single Positioning lookup 3 subtable" dx=64 dy=0 dh=0 dv=0
Position2: "Single Positioning lookup 1 subtable" dx=64 dy=0 dh=0 dv=0
EndChar

StartChar: hyphen
Encoding: 45 45 16
Width: 1024
GlyphClass: 2
Flags: W
LayerCount: 3
Fore
SplineSet
128 636 m 1,0,-1
 896 636 l 1,1,-1
 896 516 l 1,2,-1
 128 516 l 1,3,-1
 128 636 l 1,0,-1
EndSplineSet
Substitution2: "Single Substitution lookup 75 subtable" hyphen.more
Substitution2: "Single Substitution lookup 74 subtable" hyphen.more
Substitution2: "Single Substitution lookup 73 subtable" hyphen.operator
Substitution2: "Single Substitution lookup 37 subtable" larsenwork
Substitution2: "Single Substitution lookup 36 subtable" arrowleft.liga
Substitution2: "Single Substitution lookup 32 subtable" larsenwork1
Substitution2: "Single Substitution lookup 31 subtable" ligaarrowlefttwoheads
Substitution2: "Single Substitution lookup 27 subtable" larsenwork
Substitution2: "Single Substitution lookup 26 subtable" larsenwork
Substitution2: "Single Substitution lookup 25 subtable" ligaarrowleftlong
Substitution2: "Single Substitution lookup 24 subtable" larsenwork3
Substitution2: "Single Substitution lookup 22 subtable" commentstart
Substitution2: "Single Substitution lookup 21 subtable" larsenwork5
EndChar

StartChar: period
Encoding: 46 46 17
Width: 1024
GlyphClass: 2
Flags: W
LayerCount: 3
Fore
SplineSet
384 240 m 1,0,-1
 640 240 l 1,1,-1
 640 0 l 1,2,-1
 384 0 l 1,3,-1
 384 240 l 1,0,-1
EndSplineSet
Substitution2: "Single Substitution lookup 100 subtable" period.2r
Substitution2: "Single Substitution lookup 99 subtable" period.2l
Substitution2: "Single Substitution lookup 97 subtable" larsenwork
Substitution2: "Single Substitution lookup 96 subtable" larsenwork
Substitution2: "Single Substitution lookup 95 subtable" period.x3
Substitution2: "Single Substitution lookup 94 subtable" larsenwork
Substitution2: "Single Substitution lookup 93 subtable" larsenwork
Position2: "Single Positioning lookup 26 subtable" dx=-128 dy=0 dh=0 dv=0
Position2: "Single Positioning lookup 20 subtable" dx=64 dy=0 dh=0 dv=0
Position2: "Single Positioning lookup 19 subtable" dx=64 dy=0 dh=0 dv=0
Position2: "Single Positioning lookup 17 subtable" dx=0 dy=0 dh=0 dv=0
Position2: "Single Positioning lookup 15 subtable" dx=0 dy=0 dh=0 dv=0
Position2: "Single Positioning lookup 12 subtable" dx=128 dy=0 dh=0 dv=0
Position2: "Single Positioning lookup 10 subtable" dx=64 dy=0 dh=0 dv=0
Position2: "Single Positioning lookup 8 subtable" dx=-64 dy=0 dh=0 dv=0
Position2: "Single Positioning lookup 4 subtable" dx=64 dy=0 dh=0 dv=0
Position2: "Single Positioning lookup 3 subtable" dx=64 dy=0 dh=0 dv=0
Position2: "Single Positioning lookup 1 subtable" dx=64 dy=0 dh=0 dv=0
EndChar

StartChar: slash
Encoding: 47 47 18
Width: 1024
GlyphClass: 2
Flags: W
LayerCount: 3
Fore
SplineSet
174 -155 m 1,0,-1
 61 -102 l 1,1,-1
 850 1563 l 1,2,-1
 963 1510 l 1,3,-1
 174 -155 l 1,0,-1
EndSplineSet
Substitution2: "Single Substitution lookup 106 subtable" ligadoubleslash
Substitution2: "Single Substitution lookup 105 subtable" larsenwork
Substitution2: "Single Substitution lookup 18 subtable" slash.shrug
Position2: "Single Positioning lookup 27 subtable" dx=128 dy=0 dh=0 dv=0
EndChar

StartChar: zero
Encoding: 48 48 19
Width: 1024
GlyphClass: 2
Flags: W
LayerCount: 3
Fore
SplineSet
348 241 m 1,0,1
 401 106 401 106 512 106 c 0,2,3
 576 106 576 106 618.5 149 c 128,-1,4
 661 192 661 192 684 264 c 0,5,6
 697 303 697 303 703 379.5 c 128,-1,7
 709 456 709 456 710 518 c 128,-1,8
 711 580 711 580 711 704 c 0,9,10
 711 915 711 915 706 997 c 1,11,-1
 348 241 l 1,0,1
512 1302 m 0,12,13
 448 1302 448 1302 405.5 1259 c 128,-1,14
 363 1216 363 1216 340 1144 c 0,15,16
 327 1105 327 1105 321 1028.5 c 128,-1,17
 315 952 315 952 314 890 c 128,-1,18
 313 828 313 828 313 704 c 0,19,20
 313 493 313 493 318 411 c 1,21,-1
 676 1167 l 1,22,23
 623 1302 623 1302 512 1302 c 0,12,13
512 1426 m 128,-1,25
 714 1426 714 1426 796 1209 c 0,26,27
 814 1160 814 1160 823 1074 c 128,-1,28
 832 988 832 988 833.5 917.5 c 128,-1,29
 835 847 835 847 835 704 c 128,-1,30
 835 561 835 561 833.5 490.5 c 128,-1,31
 832 420 832 420 823 334 c 128,-1,32
 814 248 814 248 796 199 c 0,33,34
 714 -18 714 -18 512 -18 c 128,-1,35
 310 -18 310 -18 228 199 c 0,36,37
 210 248 210 248 201 334 c 128,-1,38
 192 420 192 420 190.5 490.5 c 128,-1,39
 189 561 189 561 189 704 c 128,-1,40
 189 847 189 847 190.5 917.5 c 128,-1,41
 192 988 192 988 201 1074 c 128,-1,42
 210 1160 210 1160 228 1209 c 0,43,24
 310 1426 310 1426 512 1426 c 128,-1,25
EndSplineSet
Substitution2: "'ss04' Style Set 4 lookup 3 subtable" zero.clear
Substitution2: "'ss03' Style Set 3 lookup 2 subtable" zero.dot
EndChar

StartChar: one
Encoding: 49 49 20
Width: 1024
GlyphClass: 2
Flags: W
LayerCount: 3
Fore
SplineSet
596 1408 m 1,0,-1
 704 1408 l 1,1,-1
 704 0 l 1,2,-1
 576 0 l 1,3,-1
 576 1246 l 1,4,-1
 566 1246 l 1,5,-1
 255 1022 l 1,6,-1
 192 1114 l 1,7,-1
 596 1408 l 1,0,-1
EndSplineSet
Substitution2: "'ss05' Style Set 5 lookup 4 subtable" one.base
EndChar

StartChar: two
Encoding: 50 50 21
Width: 1024
GlyphClass: 2
Flags: W
LayerCount: 3
Fore
SplineSet
192 1393 m 1,0,1
 351 1424 351 1424 480 1424 c 0,2,3
 576 1424 576 1424 648.5 1396 c 128,-1,4
 721 1368 721 1368 762.5 1320 c 128,-1,5
 804 1272 804 1272 824 1215 c 128,-1,6
 844 1158 844 1158 844 1093 c 0,7,8
 844 1074 844 1074 842 1055.5 c 128,-1,9
 840 1037 840 1037 838 1024 c 128,-1,10
 836 1011 836 1011 829.5 992.5 c 128,-1,11
 823 974 823 974 820.5 966 c 128,-1,12
 818 958 818 958 808.5 938.5 c 128,-1,13
 799 919 799 919 796.5 914.5 c 128,-1,14
 794 910 794 910 781.5 888 c 128,-1,15
 769 866 769 866 768 863 c 2,16,-1
 354 120 l 1,17,-1
 886 120 l 1,18,-1
 886 0 l 1,19,-1
 192 0 l 1,20,-1
 192 89 l 1,21,-1
 654 919 l 2,22,23
 657 924 657 924 669.5 945.5 c 128,-1,24
 682 967 682 967 685 973.5 c 128,-1,25
 688 980 688 980 696.5 998 c 128,-1,26
 705 1016 705 1016 707.5 1027.5 c 128,-1,27
 710 1039 710 1039 713 1057 c 128,-1,28
 716 1075 716 1075 716 1093 c 0,29,30
 716 1133 716 1133 706 1167 c 128,-1,31
 696 1201 696 1201 672 1233.5 c 128,-1,32
 648 1266 648 1266 599 1285 c 128,-1,33
 550 1304 550 1304 480 1304 c 0,34,35
 359 1304 359 1304 192 1273 c 1,36,-1
 192 1393 l 1,0,1
EndSplineSet
EndChar

StartChar: three
Encoding: 51 51 22
Width: 1024
GlyphClass: 2
Flags: W
LayerCount: 3
Fore
SplineSet
736 429 m 0,0,1
 736 594 736 594 684 668 c 128,-1,2
 632 742 632 742 508 742 c 0,3,4
 468 742 468 742 430 731 c 1,5,-1
 371 807 l 1,6,-1
 676 1288 l 1,7,-1
 192 1288 l 1,8,-1
 192 1408 l 1,9,-1
 832 1408 l 1,10,-1
 832 1298 l 1,11,-1
 520 838 l 1,12,-1
 527 831 l 1,13,14
 560 841 560 841 592 841 c 0,15,16
 656 841 656 841 705 816.5 c 128,-1,17
 754 792 754 792 783.5 753 c 128,-1,18
 813 714 813 714 832 658 c 128,-1,19
 851 602 851 602 857.5 546.5 c 128,-1,20
 864 491 864 491 864 427 c 0,21,22
 864 201 864 201 772 92.5 c 128,-1,23
 680 -16 680 -16 496 -16 c 0,24,25
 374 -16 374 -16 192 15 c 1,26,-1
 192 137 l 1,27,28
 366 104 366 104 496 104 c 0,29,30
 555 104 555 104 598.5 121 c 128,-1,31
 642 138 642 138 668 166.5 c 128,-1,32
 694 195 694 195 709.5 238.5 c 128,-1,33
 725 282 725 282 730.5 326.5 c 128,-1,34
 736 371 736 371 736 429 c 0,0,1
EndSplineSet
Substitution2: "'ss06' Style Set 6 lookup 5 subtable" three.boob
EndChar

StartChar: four
Encoding: 52 52 23
Width: 1024
GlyphClass: 2
Flags: W
AnchorPoint: "real top" 10 1491 basechar 0
AnchorPoint: "real top" 1000 1491 mark 0
LayerCount: 3
Fore
SplineSet
832 0 m 1,0,-1
 704 0 l 1,1,-1
 704 384 l 1,2,-1
 157 376 l 1,3,-1
 157 478 l 1,4,-1
 151 1372 l 1,5,-1
 280 1368 l 1,6,-1
 282 514 l 1,7,-1
 282 504 l 1,8,-1
 704 504 l 1,9,-1
 704 896 l 1,10,-1
 832 896 l 1,11,-1
 832 504 l 1,12,-1
 960 504 l 1,13,-1
 960 384 l 1,14,-1
 832 384 l 1,15,-1
 832 0 l 1,0,-1
EndSplineSet
Substitution2: "'ss12' Style Set 12 lookup 11 subtable" four.triangle
EndChar

StartChar: five
Encoding: 53 53 24
Width: 1024
GlyphClass: 2
Flags: W
LayerCount: 3
Fore
SplineSet
192 137 m 1,0,1
 366 104 366 104 496 104 c 0,2,3
 555 104 555 104 598.5 122.5 c 128,-1,4
 642 141 642 141 668 170.5 c 128,-1,5
 694 200 694 200 709.5 246.5 c 128,-1,6
 725 293 725 293 730.5 340 c 128,-1,7
 736 387 736 387 736 449 c 0,8,9
 736 521 736 521 727 577.5 c 128,-1,10
 718 634 718 634 696.5 685 c 128,-1,11
 675 736 675 736 632.5 764 c 128,-1,12
 590 792 590 792 528 792 c 0,13,14
 396 792 396 792 319 683 c 1,15,-1
 192 717 l 1,16,-1
 192 1408 l 1,17,-1
 832 1408 l 1,18,-1
 832 1288 l 1,19,-1
 320 1288 l 1,20,-1
 320 816 l 1,21,-1
 330 816 l 1,22,23
 380 863 380 863 430 887.5 c 128,-1,24
 480 912 480 912 548 912 c 0,25,26
 864 912 864 912 864 447 c 0,27,28
 864 211 864 211 772.5 97.5 c 128,-1,29
 681 -16 681 -16 496 -16 c 0,30,31
 374 -16 374 -16 192 15 c 1,32,-1
 192 137 l 1,0,1
EndSplineSet
EndChar

StartChar: six
Encoding: 54 54 25
Width: 1024
GlyphClass: 2
Flags: W
LayerCount: 3
Fore
SplineSet
320 448 m 128,-1,1
 320 384 320 384 323.5 339.5 c 128,-1,2
 327 295 327 295 339.5 247 c 128,-1,3
 352 199 352 199 374 170 c 128,-1,4
 396 141 396 141 435 122.5 c 128,-1,5
 474 104 474 104 528 104 c 128,-1,6
 582 104 582 104 621 122.5 c 128,-1,7
 660 141 660 141 682 170 c 128,-1,8
 704 199 704 199 716.5 247 c 128,-1,9
 729 295 729 295 732.5 339.5 c 128,-1,10
 736 384 736 384 736 448 c 128,-1,11
 736 512 736 512 732.5 556.5 c 128,-1,12
 729 601 729 601 716.5 649 c 128,-1,13
 704 697 704 697 682 726 c 128,-1,14
 660 755 660 755 621 773.5 c 128,-1,15
 582 792 582 792 528 792 c 128,-1,16
 474 792 474 792 435 773.5 c 128,-1,17
 396 755 396 755 374 726 c 128,-1,18
 352 697 352 697 339.5 649 c 128,-1,19
 327 601 327 601 323.5 556.5 c 128,-1,0
 320 512 320 512 320 448 c 128,-1,1
192 447 m 0,20,21
 192 584 192 584 215 709 c 128,-1,22
 238 834 238 834 274 930 c 128,-1,23
 310 1026 310 1026 367 1123.5 c 128,-1,24
 424 1221 424 1221 477 1290.5 c 128,-1,25
 530 1360 530 1360 603 1444 c 1,26,-1
 698 1362 l 1,27,28
 585 1231 585 1231 509 1116.5 c 128,-1,29
 433 1002 433 1002 385 864 c 1,30,-1
 395 860 l 1,31,32
 460 912 460 912 548 912 c 0,33,34
 655 912 655 912 728.5 858 c 128,-1,35
 802 804 802 804 836 712 c 0,36,37
 849 676 849 676 855.5 629 c 128,-1,38
 862 582 862 582 863 548 c 128,-1,39
 864 514 864 514 864 448 c 0,40,41
 864 271 864 271 832 184 c 0,42,43
 799 93 799 93 722.5 38.5 c 128,-1,44
 646 -16 646 -16 538 -16 c 0,45,46
 417 -16 417 -16 338 37.5 c 128,-1,47
 259 91 259 91 224 184 c 0,48,49
 204 237 204 237 198 294 c 128,-1,50
 192 351 192 351 192 447 c 0,20,21
EndSplineSet
Substitution2: "'ss13' Style Set 13 lookup 12 subtable" six.round
EndChar

StartChar: seven
Encoding: 55 55 26
Width: 1024
GlyphClass: 2
Flags: W
LayerCount: 3
Fore
SplineSet
866 673 m 5,0,-1
 866 673 l 5,1,-1
 348 668 l 1,2,-1
 348 788 l 1,3,-1
 866 788 l 5,4,-1
 866 673 l 5,0,-1
128 1408 m 1,5,-1
 896 1408 l 1,6,-1
 896 1318 l 1,7,-1
 428 0 l 1,8,-1
 299 0 l 1,9,-1
 761 1278 l 1,10,-1
 761 1288 l 1,11,-1
 128 1288 l 1,12,-1
 128 1408 l 1,5,-1
EndSplineSet
EndChar

StartChar: eight
Encoding: 56 56 27
Width: 1024
GlyphClass: 2
Flags: W
LayerCount: 3
Fore
SplineSet
512 1304 m 128,-1,1
 409 1304 409 1304 358.5 1232 c 128,-1,2
 308 1160 308 1160 308 1045 c 0,3,4
 308 929 308 929 359.5 851.5 c 128,-1,5
 411 774 411 774 512 774 c 128,-1,6
 613 774 613 774 664.5 851.5 c 128,-1,7
 716 929 716 929 716 1045 c 0,8,9
 716 1160 716 1160 665.5 1232 c 128,-1,0
 615 1304 615 1304 512 1304 c 128,-1,1
512 1424 m 128,-1,11
 670 1424 670 1424 757 1316.5 c 128,-1,12
 844 1209 844 1209 844 1045 c 0,13,14
 844 817 844 817 687 723 c 1,15,-1
 687 713 l 1,16,17
 864 617 864 617 864 374 c 0,18,19
 864 204 864 204 771 94 c 128,-1,20
 678 -16 678 -16 512 -16 c 128,-1,21
 346 -16 346 -16 253 94 c 128,-1,22
 160 204 160 204 160 374 c 0,23,24
 160 617 160 617 337 713 c 1,25,-1
 337 723 l 1,26,27
 180 817 180 817 180 1045 c 0,28,29
 180 1209 180 1209 267 1316.5 c 128,-1,10
 354 1424 354 1424 512 1424 c 128,-1,11
512 654 m 128,-1,31
 401 654 401 654 344.5 575 c 128,-1,32
 288 496 288 496 288 374 c 0,33,34
 288 253 288 253 344 178.5 c 128,-1,35
 400 104 400 104 512 104 c 128,-1,36
 624 104 624 104 680 178.5 c 128,-1,37
 736 253 736 253 736 374 c 0,38,39
 736 496 736 496 679.5 575 c 128,-1,30
 623 654 623 654 512 654 c 128,-1,31
EndSplineSet
EndChar

StartChar: nine
Encoding: 57 57 28
Width: 1024
GlyphClass: 2
Flags: W
LayerCount: 3
Fore
SplineSet
704 960 m 128,-1,1
 704 1024 704 1024 700.5 1068.5 c 128,-1,2
 697 1113 697 1113 684.5 1161 c 128,-1,3
 672 1209 672 1209 650 1238 c 128,-1,4
 628 1267 628 1267 589 1285.5 c 128,-1,5
 550 1304 550 1304 496 1304 c 128,-1,6
 442 1304 442 1304 403 1285.5 c 128,-1,7
 364 1267 364 1267 342 1238 c 128,-1,8
 320 1209 320 1209 307.5 1161 c 128,-1,9
 295 1113 295 1113 291.5 1068.5 c 128,-1,10
 288 1024 288 1024 288 960 c 128,-1,11
 288 896 288 896 291.5 851.5 c 128,-1,12
 295 807 295 807 307.5 759 c 128,-1,13
 320 711 320 711 342 682 c 128,-1,14
 364 653 364 653 403 634.5 c 128,-1,15
 442 616 442 616 496 616 c 128,-1,16
 550 616 550 616 589 634.5 c 128,-1,17
 628 653 628 653 650 682 c 128,-1,18
 672 711 672 711 684.5 759 c 128,-1,19
 697 807 697 807 700.5 851.5 c 128,-1,0
 704 896 704 896 704 960 c 128,-1,1
832 961 m 0,20,21
 832 824 832 824 809 699 c 128,-1,22
 786 574 786 574 750 478 c 128,-1,23
 714 382 714 382 657 284.5 c 128,-1,24
 600 187 600 187 547 117.5 c 128,-1,25
 494 48 494 48 421 -36 c 1,26,-1
 326 46 l 1,27,28
 439 177 439 177 515 291.5 c 128,-1,29
 591 406 591 406 639 544 c 1,30,-1
 629 548 l 1,31,32
 564 496 564 496 476 496 c 0,33,34
 369 496 369 496 295.5 550 c 128,-1,35
 222 604 222 604 188 696 c 0,36,37
 175 732 175 732 168.5 779 c 128,-1,38
 162 826 162 826 161 860 c 128,-1,39
 160 894 160 894 160 960 c 0,40,41
 160 1137 160 1137 192 1224 c 0,42,43
 226 1316 226 1316 304 1370 c 128,-1,44
 382 1424 382 1424 496 1424 c 128,-1,45
 610 1424 610 1424 688 1370 c 128,-1,46
 766 1316 766 1316 800 1224 c 0,47,48
 820 1171 820 1171 826 1114 c 128,-1,49
 832 1057 832 1057 832 961 c 0,20,21
EndSplineSet
Substitution2: "'ss13' Style Set 13 lookup 12 subtable" nine.round
EndChar

StartChar: colon
Encoding: 58 58 29
Width: 1024
GlyphClass: 2
Flags: W
LayerCount: 3
Back
SplineSet
655 -26 m 1029,0,-1
391 105 m 132,-1,2
 391 159 391 159 429.5 197.5 c 132,-1,3
 468 236 468 236 523 236 c 132,-1,4
 578 236 578 236 616.5 197.5 c 132,-1,5
 655 159 655 159 655 105 c 132,-1,6
 655 51 655 51 616.5 12.5 c 132,-1,7
 578 -26 578 -26 523 -26 c 132,-1,8
 468 -26 468 -26 429.5 12.5 c 132,-1,1
 391 51 391 51 391 105 c 132,-1,2
645 774 m 1025,9,-1
381 905 m 128,-1,11
 381 959 381 959 419.5 997.5 c 128,-1,12
 458 1036 458 1036 513 1036 c 128,-1,13
 568 1036 568 1036 606.5 997.5 c 128,-1,14
 645 959 645 959 645 905 c 128,-1,15
 645 851 645 851 606.5 812.5 c 128,-1,16
 568 774 568 774 513 774 c 128,-1,17
 458 774 458 774 419.5 812.5 c 128,-1,10
 381 851 381 851 381 905 c 128,-1,11
384 240 m 1,18,-1
 640 240 l 1,19,-1
 640 0 l 1,20,-1
 384 0 l 1,21,-1
 384 240 l 1,18,-1
EndSplineSet
Fore
SplineSet
645 -6 m 1025,0,-1
381 125 m 128,-1,2
 381 179 381 179 419.5 217.5 c 128,-1,3
 458 256 458 256 513 256 c 128,-1,4
 568 256 568 256 606.5 217.5 c 128,-1,5
 645 179 645 179 645 125 c 128,-1,6
 645 71 645 71 606.5 32.5 c 128,-1,7
 568 -6 568 -6 513 -6 c 128,-1,8
 458 -6 458 -6 419.5 32.5 c 128,-1,1
 381 71 381 71 381 125 c 128,-1,2
645 774 m 1025,9,-1
381 905 m 128,-1,11
 381 959 381 959 419.5 997.5 c 128,-1,12
 458 1036 458 1036 513 1036 c 128,-1,13
 568 1036 568 1036 606.5 997.5 c 128,-1,14
 645 959 645 959 645 905 c 128,-1,15
 645 851 645 851 606.5 812.5 c 128,-1,16
 568 774 568 774 513 774 c 128,-1,17
 458 774 458 774 419.5 812.5 c 128,-1,10
 381 851 381 851 381 905 c 128,-1,11
640 0 m 1025,18,-1
EndSplineSet
Substitution2: "Single Substitution lookup 92 subtable" colon.2r
Substitution2: "Single Substitution lookup 91 subtable" colon.2l
Substitution2: "Single Substitution lookup 58 subtable" larsenwork7
Position2: "Single Positioning lookup 26 subtable" dx=-128 dy=0 dh=0 dv=0
Position2: "Single Positioning lookup 20 subtable" dx=64 dy=0 dh=0 dv=0
Position2: "Single Positioning lookup 19 subtable" dx=64 dy=0 dh=0 dv=0
Position2: "Single Positioning lookup 17 subtable" dx=0 dy=0 dh=0 dv=0
Position2: "Single Positioning lookup 15 subtable" dx=0 dy=0 dh=0 dv=0
Position2: "Single Positioning lookup 12 subtable" dx=128 dy=0 dh=0 dv=0
Position2: "Single Positioning lookup 10 subtable" dx=64 dy=0 dh=0 dv=0
Position2: "Single Positioning lookup 8 subtable" dx=-64 dy=0 dh=0 dv=0
Position2: "Single Positioning lookup 4 subtable" dx=64 dy=0 dh=0 dv=0
Position2: "Single Positioning lookup 3 subtable" dx=64 dy=0 dh=0 dv=0
Position2: "Single Positioning lookup 1 subtable" dx=64 dy=0 dh=0 dv=0
EndChar

StartChar: semicolon
Encoding: 59 59 30
Width: 1024
GlyphClass: 2
Flags: W
LayerCount: 3
Fore
SplineSet
705 -162 m 1,0,-1
 705 -142 l 1,1,-1
 725 -142 l 1,2,-1
 725 -162 l 1,3,-1
 705 -162 l 1,0,-1
705 -162 m 1025,4,-1
457 128 m 1,5,-1
 645 245 l 1,6,-1
 573 -134 l 1,7,-1
 465 -134 l 1,8,-1
 457 128 l 1,5,-1
483 114 m 1049,9,-1
381 245 m 128,-1,11
 381 299 381 299 419.5 337.5 c 128,-1,12
 458 376 458 376 513 376 c 128,-1,13
 568 376 568 376 606.5 337.5 c 128,-1,14
 645 299 645 299 645 245 c 128,-1,15
 645 191 645 191 606.5 152.5 c 128,-1,16
 568 114 568 114 513 114 c 128,-1,17
 458 114 458 114 419.5 152.5 c 128,-1,10
 381 191 381 191 381 245 c 128,-1,11
381 905 m 128,-1,19
 381 959 381 959 419.5 997.5 c 128,-1,20
 458 1036 458 1036 513 1036 c 128,-1,21
 568 1036 568 1036 606.5 997.5 c 128,-1,22
 645 959 645 959 645 905 c 128,-1,23
 645 851 645 851 606.5 812.5 c 128,-1,24
 568 774 568 774 513 774 c 128,-1,25
 458 774 458 774 419.5 812.5 c 128,-1,18
 381 851 381 851 381 905 c 128,-1,19
645 245 m 0,26,27
 645 204 645 204 643.5 180 c 1024,28,-1
513 114 m 1025,29,-1
EndSplineSet
Position2: "Single Positioning lookup 26 subtable" dx=-128 dy=0 dh=0 dv=0
Position2: "Single Positioning lookup 20 subtable" dx=64 dy=0 dh=0 dv=0
Position2: "Single Positioning lookup 19 subtable" dx=64 dy=0 dh=0 dv=0
Position2: "Single Positioning lookup 17 subtable" dx=0 dy=0 dh=0 dv=0
Position2: "Single Positioning lookup 15 subtable" dx=0 dy=0 dh=0 dv=0
Position2: "Single Positioning lookup 12 subtable" dx=128 dy=0 dh=0 dv=0
Position2: "Single Positioning lookup 10 subtable" dx=64 dy=0 dh=0 dv=0
Position2: "Single Positioning lookup 8 subtable" dx=-64 dy=0 dh=0 dv=0
Position2: "Single Positioning lookup 4 subtable" dx=64 dy=0 dh=0 dv=0
Position2: "Single Positioning lookup 3 subtable" dx=64 dy=0 dh=0 dv=0
Position2: "Single Positioning lookup 1 subtable" dx=64 dy=0 dh=0 dv=0
EndChar

StartChar: less
Encoding: 60 60 31
Width: 1024
GlyphClass: 2
Flags: W
LayerCount: 3
Fore
SplineSet
325 571 m 1,0,-1
 836 95 l 1,1,-1
 750 5 l 1,2,-1
 192 531 l 1,3,-1
 192 621 l 1,4,-1
 750 1147 l 1,5,-1
 836 1057 l 1,6,-1
 325 581 l 1,7,-1
 325 571 l 1,0,-1
EndSplineSet
Substitution2: "Single Substitution lookup 104 subtable" less2
Substitution2: "Single Substitution lookup 103 subtable" less1
Substitution2: "Single Substitution lookup 98 subtable" rangeless
Substitution2: "Single Substitution lookup 68 subtable" equallessless
Substitution2: "Single Substitution lookup 67 subtable" larsenwork8
Substitution2: "Single Substitution lookup 61 subtable" larsenwork3
Substitution2: "Single Substitution lookup 54 subtable" larsenwork6
Substitution2: "Single Substitution lookup 47 subtable" larsenwork10
Substitution2: "Single Substitution lookup 44 subtable" larsenwork9
Substitution2: "Single Substitution lookup 35 subtable" larsenwork2
Substitution2: "Single Substitution lookup 30 subtable" larsenwork1
Substitution2: "Single Substitution lookup 29 subtable" larsenwork1
Substitution2: "Single Substitution lookup 23 subtable" larsenwork3
Substitution2: "Single Substitution lookup 19 subtable" larsenwork5
EndChar

StartChar: equal
Encoding: 61 61 32
Width: 1024
GlyphClass: 2
Flags: W
LayerCount: 3
Fore
SplineSet
192 380 m 1,0,-1
 832 380 l 1,1,-1
 832 260 l 1,2,-1
 192 260 l 1,3,-1
 192 380 l 1,0,-1
192 892 m 1,4,-1
 832 892 l 1,5,-1
 832 772 l 1,6,-1
 192 772 l 1,7,-1
 192 892 l 1,4,-1
EndSplineSet
Substitution2: "Single Substitution lookup 110 subtable" equal.wide
Substitution2: "Single Substitution lookup 71 subtable" larsenwork2
Substitution2: "Single Substitution lookup 70 subtable" greaterequalliga
Substitution2: "Single Substitution lookup 66 subtable" larsenwork8
Substitution2: "Single Substitution lookup 65 subtable" greatergreaterequal
Substitution2: "Single Substitution lookup 62 subtable" lessequalliga
Substitution2: "Single Substitution lookup 60 subtable" equal.after
Substitution2: "Single Substitution lookup 59 subtable" equalcolonequal
Substitution2: "Single Substitution lookup 57 subtable" larsenwork7
Substitution2: "Single Substitution lookup 56 subtable" leftarrowequallong
Substitution2: "Single Substitution lookup 55 subtable" larsenwork6
Substitution2: "Single Substitution lookup 52 subtable" larsenwork5
Substitution2: "Single Substitution lookup 51 subtable" larsenwork5
Substitution2: "Single Substitution lookup 49 subtable" larsenwork10
Substitution2: "Single Substitution lookup 48 subtable" larsenwork10
Substitution2: "Single Substitution lookup 45 subtable" larsenwork9
Substitution2: "Single Substitution lookup 43 subtable" notequalliga
Substitution2: "Single Substitution lookup 41 subtable" notequaltypeliga
Substitution2: "Single Substitution lookup 40 subtable" larsenwork1
EndChar

StartChar: greater
Encoding: 62 62 33
Width: 1024
GlyphClass: 2
Flags: W
LayerCount: 3
Fore
SplineSet
188 1057 m 1,0,-1
 274 1147 l 1,1,-1
 832 621 l 1,2,-1
 832 531 l 1,3,-1
 274 5 l 1,4,-1
 188 95 l 1,5,-1
 699 571 l 1,6,-1
 699 581 l 1,7,-1
 188 1057 l 1,0,-1
EndSplineSet
Substitution2: "Single Substitution lookup 102 subtable" greater2
Substitution2: "Single Substitution lookup 101 subtable" greater1
Substitution2: "Single Substitution lookup 72 subtable" ligaequalarrow
Substitution2: "Single Substitution lookup 69 subtable" larsenwork4
Substitution2: "Single Substitution lookup 64 subtable" larsenwork8
Substitution2: "Single Substitution lookup 63 subtable" larsenwork8
Substitution2: "Single Substitution lookup 53 subtable" rightarrowequallong
Substitution2: "Single Substitution lookup 50 subtable" lessequalequalgreater
Substitution2: "Single Substitution lookup 46 subtable" lessequalgreater
Substitution2: "Single Substitution lookup 38 subtable" arrowright.liga
Substitution2: "Single Substitution lookup 34 subtable" ligaarrowrighttwoheads
Substitution2: "Single Substitution lookup 33 subtable" larsenwork1
Substitution2: "Single Substitution lookup 28 subtable" ligaarrowrightlong
EndChar

StartChar: question
Encoding: 63 63 34
Width: 1024
GlyphClass: 2
Flags: W
LayerCount: 3
Fore
SplineSet
512 272 m 128,-1,1
 576 272 576 272 616 232 c 128,-1,2
 656 192 656 192 656 128 c 128,-1,3
 656 64 656 64 616 24 c 128,-1,4
 576 -16 576 -16 512 -16 c 128,-1,5
 448 -16 448 -16 408 24 c 128,-1,6
 368 64 368 64 368 128 c 128,-1,7
 368 192 368 192 408 232 c 128,-1,0
 448 272 448 272 512 272 c 128,-1,1
448 512 m 1,8,9
 448 591 448 591 468 655.5 c 128,-1,10
 488 720 488 720 547 781 c 0,11,12
 593 828 593 828 616.5 855 c 128,-1,13
 640 882 640 882 667 922 c 128,-1,14
 694 962 694 962 705 1002.5 c 128,-1,15
 716 1043 716 1043 716 1092 c 0,16,17
 716 1197 716 1197 657 1250.5 c 128,-1,18
 598 1304 598 1304 470 1304 c 0,19,20
 377 1304 377 1304 214 1267 c 1,21,-1
 214 1387 l 1,22,23
 372 1424 372 1424 470 1424 c 0,24,25
 650 1424 650 1424 747 1336 c 128,-1,26
 844 1248 844 1248 844 1092 c 0,27,28
 844 1031 844 1031 829.5 977.5 c 128,-1,29
 815 924 815 924 784.5 875 c 128,-1,30
 754 826 754 826 723 788.5 c 128,-1,31
 692 751 692 751 643 701 c 0,32,33
 612 669 612 669 596 632.5 c 128,-1,34
 580 596 580 596 578 573.5 c 128,-1,35
 576 551 576 551 576 512 c 1,36,-1
 448 512 l 1,8,9
EndSplineSet
EndChar

StartChar: at
Encoding: 64 64 35
Width: 1024
GlyphClass: 2
Flags: W
LayerCount: 3
Fore
SplineSet
832 896 m 1,0,-1
 668 896 l 2,1,2
 631 896 631 896 610.5 894 c 128,-1,3
 590 892 590 892 559 879.5 c 128,-1,4
 528 867 528 867 504 842 c 0,5,6
 448 783 448 783 448 687 c 0,7,8
 448 602 448 602 493 545 c 128,-1,9
 538 488 538 488 616 488 c 0,10,11
 660 488 660 488 694.5 502 c 128,-1,12
 729 516 729 516 751 537 c 128,-1,13
 773 558 773 558 789.5 592 c 128,-1,14
 806 626 806 626 814 655.5 c 128,-1,15
 822 685 822 685 826 726.5 c 128,-1,16
 830 768 830 768 831 793.5 c 128,-1,17
 832 819 832 819 832 855 c 2,18,-1
 832 896 l 1,0,-1
960 1016 m 2,19,-1
 960 384 l 1,20,-1
 832 384 l 1,21,-1
 832 507 l 1,22,-1
 822 507 l 1,23,24
 729 368 729 368 592 368 c 0,25,26
 477 368 477 368 398.5 458 c 128,-1,27
 320 548 320 548 320 685 c 0,28,29
 320 829 320 829 408 917 c 0,30,31
 440 948 440 948 476 968 c 128,-1,32
 512 988 512 988 551.5 995.5 c 128,-1,33
 591 1003 591 1003 613.5 1004.5 c 128,-1,34
 636 1006 636 1006 670 1006 c 2,35,-1
 832 1006 l 1,36,37
 832 1100 832 1100 822 1139 c 0,38,39
 794 1249 794 1249 684 1278 c 0,40,41
 646 1288 646 1288 563 1288 c 0,42,43
 453 1288 453 1288 402 1275 c 0,44,45
 246 1235 246 1235 205 1075 c 0,46,47
 192 1024 192 1024 192 913 c 2,48,-1
 192 495 l 2,49,50
 192 384 192 384 205 333 c 0,51,52
 244 174 244 174 402 133 c 0,53,54
 453 120 453 120 563 120 c 0,55,56
 702 120 702 120 883 141 c 1,57,-1
 883 21 l 1,58,59
 704 0 704 0 563 0 c 0,60,61
 437 0 437 0 369 17 c 0,62,63
 260 44 260 44 183.5 118.5 c 128,-1,64
 107 193 107 193 80 307 c 0,65,66
 64 374 64 374 64 495 c 2,67,-1
 64 913 l 2,68,69
 64 1034 64 1034 80 1101 c 0,70,71
 107 1215 107 1215 183.5 1289.5 c 128,-1,72
 260 1364 260 1364 369 1391 c 0,73,74
 437 1408 437 1408 563 1408 c 0,75,76
 662 1408 662 1408 717 1394 c 0,77,78
 806 1371 806 1371 865.5 1311.5 c 128,-1,79
 925 1252 925 1252 947 1164 c 0,80,81
 960 1112 960 1112 960 1016 c 2,19,-1
EndSplineSet
EndChar

StartChar: A
Encoding: 65 65 36
Width: 1024
GlyphClass: 2
Flags: W
LayerCount: 3
Fore
SplineSet
39 0 m 1,0,1
 128 838 128 838 447 1408 c 1,2,-1
 577 1408 l 1,3,4
 896 838 896 838 985 0 c 1,5,-1
 850 0 l 1,6,7
 835 181 835 181 795 388 c 1,8,-1
 229 388 l 1,9,10
 224 357 224 357 214 296.5 c 128,-1,11
 204 236 204 236 198 197 c 128,-1,12
 192 158 192 158 185 103 c 128,-1,13
 178 48 178 48 174 0 c 1,14,-1
 39 0 l 1,0,1
774 508 m 1,15,16
 716 753 716 753 657 938 c 128,-1,17
 598 1123 598 1123 517 1279 c 1,18,-1
 507 1279 l 1,19,20
 426 1123 426 1123 367 938 c 128,-1,21
 308 753 308 753 250 508 c 1,22,-1
 774 508 l 1,15,16
EndSplineSet
Position2: "Single Positioning lookup 25 subtable" dx=-128 dy=0 dh=0 dv=0
Position2: "Single Positioning lookup 24 subtable" dx=0 dy=0 dh=0 dv=0
EndChar

StartChar: B
Encoding: 66 66 37
Width: 1024
GlyphClass: 2
Flags: W
LayerCount: 3
Fore
SplineSet
432 768 m 2,0,1
 544 768 544 768 584 778 c 0,2,3
 667 798 667 798 717 864.5 c 128,-1,4
 767 931 767 931 767 1028 c 0,5,6
 767 1126 767 1126 716.5 1193 c 128,-1,7
 666 1260 666 1260 584 1278 c 0,8,9
 539 1288 539 1288 432 1288 c 2,10,-1
 256 1288 l 1,11,-1
 256 768 l 1,12,-1
 432 768 l 2,0,1
128 1408 m 1,13,-1
 432 1408 l 2,14,15
 561 1408 561 1408 616 1395 c 0,16,17
 739 1366 739 1366 817 1268 c 128,-1,18
 895 1170 895 1170 895 1028 c 0,19,20
 895 926 895 926 848.5 849.5 c 128,-1,21
 802 773 802 773 721 732 c 1,22,-1
 721 722 l 1,23,24
 828 686 828 686 894 597 c 128,-1,25
 960 508 960 508 960 384 c 0,26,27
 960 244 960 244 886.5 144.5 c 128,-1,28
 813 45 813 45 696 16 c 0,29,30
 632 0 632 0 483 0 c 2,31,-1
 128 0 l 1,32,-1
 128 1408 l 1,13,-1
256 648 m 1,33,-1
 256 120 l 1,34,-1
 483 120 l 2,35,36
 619 120 619 120 664 132 c 0,37,38
 739 152 739 152 785.5 220 c 128,-1,39
 832 288 832 288 832 384 c 0,40,41
 832 481 832 481 786 549.5 c 128,-1,42
 740 618 740 618 664 636 c 0,43,44
 615 648 615 648 483 648 c 2,45,-1
 256 648 l 1,33,-1
EndSplineSet
Position2: "Single Positioning lookup 25 subtable" dx=-128 dy=0 dh=0 dv=0
Position2: "Single Positioning lookup 24 subtable" dx=0 dy=0 dh=0 dv=0
EndChar

StartChar: C
Encoding: 67 67 38
Width: 1024
GlyphClass: 2
Flags: W
LayerCount: 3
Fore
SplineSet
960 141 m 1,0,-1
 960 21 l 1,1,2
 755 -16 755 -16 599 -16 c 0,3,4
 413 -16 413 -16 300.5 86 c 128,-1,5
 188 188 188 188 143 364 c 0,6,7
 112 486 112 486 112 704 c 128,-1,8
 112 922 112 922 143 1044 c 0,9,10
 188 1221 188 1221 297 1322.5 c 128,-1,11
 406 1424 406 1424 589 1424 c 0,12,13
 749 1424 749 1424 930 1395 c 1,14,-1
 930 1275 l 1,15,16
 742 1304 742 1304 589 1304 c 0,17,18
 454 1304 454 1304 379 1229.5 c 128,-1,19
 304 1155 304 1155 268 1016 c 0,20,21
 240 907 240 907 240 704 c 128,-1,22
 240 501 240 501 268 392 c 0,23,24
 304 254 304 254 381.5 179 c 128,-1,25
 459 104 459 104 599 104 c 0,26,27
 747 104 747 104 960 141 c 1,0,-1
EndSplineSet
Position2: "Single Positioning lookup 25 subtable" dx=-128 dy=0 dh=0 dv=0
Position2: "Single Positioning lookup 24 subtable" dx=0 dy=0 dh=0 dv=0
EndChar

StartChar: D
Encoding: 68 68 39
Width: 1024
GlyphClass: 2
Flags: W
LayerCount: 3
Fore
SplineSet
410 1408 m 2,0,1
 732 1408 732 1408 879 1171 c 0,2,3
 936 1081 936 1081 956 967 c 128,-1,4
 976 853 976 853 976 704 c 128,-1,5
 976 555 976 555 956 441 c 128,-1,6
 936 327 936 327 879 237 c 0,7,8
 732 0 732 0 410 0 c 2,9,-1
 128 0 l 1,10,-1
 128 1408 l 1,11,-1
 410 1408 l 2,0,1
848 704 m 128,-1,13
 848 852 848 852 828.5 955 c 128,-1,14
 809 1058 809 1058 761 1126 c 0,15,16
 647 1288 647 1288 410 1288 c 2,17,-1
 256 1288 l 1,18,-1
 256 120 l 1,19,-1
 410 120 l 2,20,21
 647 120 647 120 761 282 c 0,22,23
 809 350 809 350 828.5 453 c 128,-1,12
 848 556 848 556 848 704 c 128,-1,13
EndSplineSet
Position2: "Single Positioning lookup 25 subtable" dx=-128 dy=0 dh=0 dv=0
Position2: "Single Positioning lookup 24 subtable" dx=0 dy=0 dh=0 dv=0
EndChar

StartChar: E
Encoding: 69 69 40
Width: 1024
GlyphClass: 2
Flags: W
LayerCount: 3
Fore
SplineSet
128 1408 m 1,0,-1
 896 1408 l 1,1,-1
 896 1288 l 1,2,-1
 256 1288 l 1,3,-1
 256 768 l 1,4,-1
 768 768 l 1,5,-1
 768 648 l 1,6,-1
 256 648 l 1,7,-1
 256 120 l 1,8,-1
 896 120 l 1,9,-1
 896 0 l 1,10,-1
 128 0 l 1,11,-1
 128 1408 l 1,0,-1
EndSplineSet
Position2: "Single Positioning lookup 25 subtable" dx=-128 dy=0 dh=0 dv=0
Position2: "Single Positioning lookup 24 subtable" dx=0 dy=0 dh=0 dv=0
EndChar

StartChar: F
Encoding: 70 70 41
Width: 1024
GlyphClass: 2
Flags: W
LayerCount: 3
Fore
SplineSet
128 1408 m 1,0,-1
 896 1408 l 1,1,-1
 896 1288 l 1,2,-1
 256 1288 l 1,3,-1
 256 760 l 1,4,-1
 768 760 l 1,5,-1
 768 640 l 1,6,-1
 256 640 l 1,7,-1
 256 0 l 1,8,-1
 128 0 l 1,9,-1
 128 1408 l 1,0,-1
EndSplineSet
EndChar

StartChar: G
Encoding: 71 71 42
Width: 1024
GlyphClass: 2
Flags: W
LayerCount: 3
Fore
SplineSet
545 1424 m 0,0,1
 689 1424 689 1424 846 1402 c 1,2,-1
 846 1282 l 1,3,4
 682 1304 682 1304 545 1304 c 0,5,6
 278 1304 278 1304 204 1016 c 0,7,8
 176 907 176 907 176 704 c 128,-1,9
 176 501 176 501 204 392 c 0,10,11
 279 104 279 104 515 104 c 0,12,13
 632 104 632 104 768 128 c 1,14,-1
 768 648 l 1,15,-1
 602 648 l 5,16,-1
 602 768 l 5,17,-1
 896 768 l 1,18,-1
 896 34 l 1,19,20
 687 -16 687 -16 515 -16 c 0,21,22
 342 -16 342 -16 233 86.5 c 128,-1,23
 124 189 124 189 79 364 c 0,24,25
 48 486 48 486 48 704 c 128,-1,26
 48 922 48 922 79 1044 c 0,27,28
 123 1219 123 1219 241 1321.5 c 128,-1,29
 359 1424 359 1424 545 1424 c 0,0,1
EndSplineSet
Position2: "Single Positioning lookup 25 subtable" dx=-128 dy=0 dh=0 dv=0
Position2: "Single Positioning lookup 24 subtable" dx=0 dy=0 dh=0 dv=0
EndChar

StartChar: H
Encoding: 72 72 43
Width: 1024
GlyphClass: 2
Flags: W
LayerCount: 3
Fore
SplineSet
128 1408 m 1,0,-1
 256 1408 l 1,1,-1
 256 760 l 1,2,-1
 768 760 l 1,3,-1
 768 1408 l 1,4,-1
 896 1408 l 1,5,-1
 896 0 l 1,6,-1
 768 0 l 1,7,-1
 768 640 l 1,8,-1
 256 640 l 1,9,-1
 256 0 l 1,10,-1
 128 0 l 1,11,-1
 128 1408 l 1,0,-1
EndSplineSet
Position2: "Single Positioning lookup 25 subtable" dx=-128 dy=0 dh=0 dv=0
Position2: "Single Positioning lookup 24 subtable" dx=0 dy=0 dh=0 dv=0
EndChar

StartChar: I
Encoding: 73 73 44
Width: 1024
GlyphClass: 2
Flags: W
LayerCount: 3
Fore
SplineSet
832 1408 m 1,0,-1
 832 1288 l 1,1,-1
 576 1288 l 1,2,-1
 576 120 l 1,3,-1
 832 120 l 1,4,-1
 832 0 l 1,5,-1
 192 0 l 1,6,-1
 192 120 l 1,7,-1
 448 120 l 1,8,-1
 448 1288 l 1,9,-1
 192 1288 l 1,10,-1
 192 1408 l 1,11,-1
 832 1408 l 1,0,-1
EndSplineSet
EndChar

StartChar: J
Encoding: 74 74 45
Width: 1024
GlyphClass: 2
Flags: W
LayerCount: 3
Fore
SplineSet
896 1408 m 21,0,-1
 896 474 l 2,1,2
 896 425 896 425 894.5 395.5 c 128,-1,3
 893 366 893 366 885.5 317 c 128,-1,4
 878 268 878 268 858 223.5 c 128,-1,5
 838 179 838 179 807 139 c 0,6,7
 753 70 753 70 668.5 29 c 128,-1,8
 584 -12 584 -12 479 -12 c 0,9,10
 368 -12 368 -12 266 32 c 128,-1,11
 164 76 164 76 85 143 c 1,12,-1
 159 239 l 1,13,14
 223 183 223 183 307 145.5 c 128,-1,15
 391 108 391 108 479 108 c 0,16,17
 653 108 653 108 704 210 c 0,18,19
 746 294 746 294 749 299 c 0,20,21
 764.18287037 323.943287037 764.18287037 323.943287037 766 383 c 0,22,23
 768 455 768 455 768 474 c 2,24,-1
 763 1415 l 9,25,-1
 896 1408 l 21,0,-1
EndSplineSet
EndChar

StartChar: K
Encoding: 75 75 46
Width: 1024
GlyphClass: 2
Flags: W
LayerCount: 3
Fore
SplineSet
192 0 m 1,0,-1
 64 0 l 1,1,-1
 64 1408 l 1,2,-1
 192 1408 l 1,3,-1
 192 719 l 1,4,-1
 766 1408 l 1,5,-1
 905 1408 l 1,6,-1
 417 813 l 1,7,-1
 998 0 l 1,8,-1
 841 0 l 1,9,-1
 332 721 l 1,10,-1
 192 558 l 1,11,-1
 192 0 l 1,0,-1
EndSplineSet
EndChar

StartChar: L
Encoding: 76 76 47
Width: 1024
GlyphClass: 2
Flags: W
LayerCount: 3
Fore
SplineSet
128 0 m 1,0,-1
 128 1408 l 1,1,-1
 256 1408 l 1,2,-1
 256 120 l 1,3,-1
 896 120 l 1,4,-1
 896 0 l 1,5,-1
 128 0 l 1,0,-1
EndSplineSet
EndChar

StartChar: M
Encoding: 77 77 48
Width: 1024
GlyphClass: 2
Flags: WO
LayerCount: 3
Fore
SplineSet
74 -76 m 1049,0,-1
517 1289 m 1,1,2
 577 1389 577 1389 704 1389 c 0,3,4
 797 1389 797 1389 864.5 1338 c 128,-1,5
 932 1287 932 1287 951 1206 c 0,6,7
 960 1169 960 1169 960 1109 c 2,8,-1
 960 4 l 1,9,-1
 832 4 l 1,10,-1
 832 1109 l 2,11,12
 832 1154 832 1154 826 1180 c 0,13,14
 817 1220 817 1220 784 1244.5 c 128,-1,15
 751 1269 751 1269 704 1269 c 128,-1,16
 657 1269 657 1269 624 1244.5 c 128,-1,17
 591 1220 591 1220 582 1180 c 0,18,19
 576 1154 576 1154 576 1109 c 2,20,-1
 576 825 l 5,21,-1
 448 825 l 5,22,-1
 448 1109 l 2,23,24
 448 1154 448 1154 442 1180 c 0,25,26
 433 1220 433 1220 400 1244.5 c 128,-1,27
 367 1269 367 1269 320 1269 c 128,-1,28
 273 1269 273 1269 240 1244.5 c 128,-1,29
 207 1220 207 1220 198 1180 c 0,30,31
 192 1154 192 1154 192 1109 c 2,32,-1
 192 4 l 1,33,-1
 64 4 l 1,34,-1
 64 1109 l 2,35,36
 64 1169 64 1169 73 1206 c 0,37,38
 92 1287 92 1287 159.5 1338 c 128,-1,39
 227 1389 227 1389 320 1389 c 0,40,41
 447 1389 447 1389 507 1289 c 1,42,-1
 517 1289 l 1,1,2
EndSplineSet
Position2: "Single Positioning lookup 25 subtable" dx=-128 dy=0 dh=0 dv=0
Position2: "Single Positioning lookup 24 subtable" dx=0 dy=0 dh=0 dv=0
EndChar

StartChar: N
Encoding: 78 78 49
Width: 1024
GlyphClass: 2
Flags: W
LayerCount: 3
Fore
SplineSet
256 0 m 1,0,-1
 128 0 l 1,1,-1
 128 1408 l 1,2,-1
 255 1408 l 1,3,-1
 758 280 l 1,4,-1
 768 280 l 1,5,-1
 768 1408 l 1,6,-1
 896 1408 l 1,7,-1
 896 0 l 1,8,-1
 768 0 l 1,9,-1
 266 1128 l 1,10,-1
 256 1128 l 1,11,-1
 256 0 l 1,0,-1
EndSplineSet
Position2: "Single Positioning lookup 25 subtable" dx=-128 dy=0 dh=0 dv=0
Position2: "Single Positioning lookup 24 subtable" dx=0 dy=0 dh=0 dv=0
EndChar

StartChar: O
Encoding: 79 79 50
Width: 1024
GlyphClass: 2
Flags: W
LayerCount: 3
Fore
SplineSet
512 1304 m 128,-1,1
 433 1304 433 1304 370.5 1264 c 128,-1,2
 308 1224 308 1224 270 1162 c 0,3,4
 242 1116 242 1116 225 1061.5 c 128,-1,5
 208 1007 208 1007 201.5 938.5 c 128,-1,6
 195 870 195 870 193.5 826 c 128,-1,7
 192 782 192 782 192 704 c 128,-1,8
 192 626 192 626 193.5 582 c 128,-1,9
 195 538 195 538 201.5 469.5 c 128,-1,10
 208 401 208 401 225 346.5 c 128,-1,11
 242 292 242 292 270 246 c 0,12,13
 308 184 308 184 370.5 144 c 128,-1,14
 433 104 433 104 512 104 c 128,-1,15
 591 104 591 104 653.5 144 c 128,-1,16
 716 184 716 184 754 246 c 0,17,18
 782 292 782 292 799 346.5 c 128,-1,19
 816 401 816 401 822.5 469.5 c 128,-1,20
 829 538 829 538 830.5 582 c 128,-1,21
 832 626 832 626 832 704 c 128,-1,22
 832 782 832 782 830.5 826 c 128,-1,23
 829 870 829 870 822.5 938.5 c 128,-1,24
 816 1007 816 1007 799 1061.5 c 128,-1,25
 782 1116 782 1116 754 1162 c 0,26,27
 716 1224 716 1224 653.5 1264 c 128,-1,0
 591 1304 591 1304 512 1304 c 128,-1,1
512 1424 m 128,-1,29
 628 1424 628 1424 720 1366.5 c 128,-1,30
 812 1309 812 1309 865 1222 c 0,31,32
 892 1177 892 1177 911 1121.5 c 128,-1,33
 930 1066 930 1066 939.5 1020 c 128,-1,34
 949 974 949 974 954 908.5 c 128,-1,35
 959 843 959 843 959.5 806.5 c 128,-1,36
 960 770 960 770 960 704 c 128,-1,37
 960 638 960 638 959.5 601.5 c 128,-1,38
 959 565 959 565 954 499.5 c 128,-1,39
 949 434 949 434 939.5 388 c 128,-1,40
 930 342 930 342 911 286.5 c 128,-1,41
 892 231 892 231 865 186 c 0,42,43
 812 99 812 99 720 41.5 c 128,-1,44
 628 -16 628 -16 512 -16 c 128,-1,45
 396 -16 396 -16 304 41.5 c 128,-1,46
 212 99 212 99 159 186 c 0,47,48
 132 231 132 231 113 286.5 c 128,-1,49
 94 342 94 342 84.5 388 c 128,-1,50
 75 434 75 434 70 499.5 c 128,-1,51
 65 565 65 565 64.5 601.5 c 128,-1,52
 64 638 64 638 64 704 c 128,-1,53
 64 770 64 770 64.5 806.5 c 128,-1,54
 65 843 65 843 70 908.5 c 128,-1,55
 75 974 75 974 84.5 1020 c 128,-1,56
 94 1066 94 1066 113 1121.5 c 128,-1,57
 132 1177 132 1177 159 1222 c 0,58,59
 212 1309 212 1309 304 1366.5 c 128,-1,28
 396 1424 396 1424 512 1424 c 128,-1,29
EndSplineSet
Position2: "Single Positioning lookup 25 subtable" dx=-128 dy=0 dh=0 dv=0
Position2: "Single Positioning lookup 24 subtable" dx=0 dy=0 dh=0 dv=0
EndChar

StartChar: P
Encoding: 80 80 51
Width: 1024
GlyphClass: 2
Flags: W
LayerCount: 3
Fore
SplineSet
256 1288 m 1,0,-1
 256 640 l 1,1,-1
 405 640 l 2,2,3
 448 640 448 640 473 641.5 c 128,-1,4
 498 643 498 643 538 649 c 128,-1,5
 578 655 578 655 612.5 671 c 128,-1,6
 647 687 647 687 677 713 c 0,7,8
 726 755 726 755 755 820.5 c 128,-1,9
 784 886 784 886 784 964 c 128,-1,10
 784 1042 784 1042 755 1107.5 c 128,-1,11
 726 1173 726 1173 677 1215 c 0,12,13
 647 1241 647 1241 612.5 1257 c 128,-1,14
 578 1273 578 1273 538 1279 c 128,-1,15
 498 1285 498 1285 473 1286.5 c 128,-1,16
 448 1288 448 1288 405 1288 c 2,17,-1
 256 1288 l 1,0,-1
128 1408 m 1,18,-1
 405 1408 l 2,19,20
 454 1408 454 1408 485.5 1406 c 128,-1,21
 517 1404 517 1404 570.5 1395.5 c 128,-1,22
 624 1387 624 1387 672.5 1363.5 c 128,-1,23
 721 1340 721 1340 763 1303 c 0,24,25
 912 1171 912 1171 912 964 c 128,-1,26
 912 757 912 757 763 625 c 0,27,28
 721 588 721 588 672.5 564.5 c 128,-1,29
 624 541 624 541 570.5 532.5 c 128,-1,30
 517 524 517 524 485.5 522 c 128,-1,31
 454 520 454 520 405 520 c 2,32,-1
 256 520 l 1,33,-1
 256 0 l 1,34,-1
 128 0 l 1,35,-1
 128 1408 l 1,18,-1
EndSplineSet
Position2: "Single Positioning lookup 25 subtable" dx=-128 dy=0 dh=0 dv=0
Position2: "Single Positioning lookup 24 subtable" dx=0 dy=0 dh=0 dv=0
EndChar

StartChar: Q
Encoding: 81 81 52
Width: 1024
GlyphClass: 2
Flags: W
LayerCount: 3
Fore
SplineSet
592 -8 m 9,0,1
 590 -187 l 1,2,-1
 463 -189 l 25,3,-1
 461 -14 l 1,4,5
 305 -1 305 -1 210 101 c 128,-1,6
 115 203 115 203 76 355 c 0,7,8
 48 466 48 466 48 704 c 0,9,10
 48 938 48 938 76 1053 c 0,11,12
 116 1215 116 1215 227 1319.5 c 128,-1,13
 338 1424 338 1424 512 1424 c 0,14,15
 685 1424 685 1424 796 1320 c 128,-1,16
 907 1216 907 1216 948 1053 c 0,17,18
 976 942 976 942 976 704 c 0,19,20
 976 470 976 470 948 355 c 0,21,22
 914 216 914 216 820.5 117 c 128,-1,23
 727 18 727 18 592 -8 c 9,0,1
176 704 m 0,24,25
 176 486 176 486 201 382 c 0,26,27
 227 277 227 277 290 202.5 c 128,-1,28
 353 128 353 128 452 109 c 1,29,30
 450 202 450 202 450 296 c 6,31,-1
 450 314 l 5,32,-1
 578 314 l 5,33,-1
 578 296 l 6,34,35
 578 204 578 204 580 111 c 1,36,37
 676 131 676 131 736.5 204.5 c 128,-1,38
 797 278 797 278 823 382 c 0,39,40
 848 482 848 482 848 704 c 0,41,42
 848 922 848 922 823 1026 c 0,43,44
 793 1148 793 1148 715.5 1226 c 128,-1,45
 638 1304 638 1304 512 1304 c 0,46,47
 385 1304 385 1304 307 1226 c 128,-1,48
 229 1148 229 1148 201 1026 c 0,49,50
 176 917 176 917 176 704 c 0,24,25
EndSplineSet
Position2: "Single Positioning lookup 25 subtable" dx=-128 dy=0 dh=0 dv=0
Position2: "Single Positioning lookup 24 subtable" dx=0 dy=0 dh=0 dv=0
EndChar

StartChar: R
Encoding: 82 82 53
Width: 1024
GlyphClass: 2
Flags: W
LayerCount: 3
Fore
SplineSet
256 1288 m 1,0,-1
 256 640 l 1,1,-1
 405 640 l 2,2,3
 461 640 461 640 496 642.5 c 128,-1,4
 531 645 531 645 584.5 662.5 c 128,-1,5
 638 680 638 680 677 713 c 0,6,7
 726 755 726 755 755 820.5 c 128,-1,8
 784 886 784 886 784 964 c 128,-1,9
 784 1042 784 1042 755 1107.5 c 128,-1,10
 726 1173 726 1173 677 1215 c 0,11,12
 647 1241 647 1241 612.5 1257 c 128,-1,13
 578 1273 578 1273 538 1279 c 128,-1,14
 498 1285 498 1285 473 1286.5 c 128,-1,15
 448 1288 448 1288 405 1288 c 2,16,-1
 256 1288 l 1,0,-1
128 1408 m 1,17,-1
 405 1408 l 2,18,19
 454 1408 454 1408 485.5 1406 c 128,-1,20
 517 1404 517 1404 570.5 1395.5 c 128,-1,21
 624 1387 624 1387 672.5 1363.5 c 128,-1,22
 721 1340 721 1340 763 1303 c 0,23,24
 912 1171 912 1171 912 964 c 128,-1,25
 912 757 912 757 763 625 c 0,26,27
 728 594 728 594 685 572 c 1,28,-1
 937 0 l 1,29,-1
 801 0 l 1,30,-1
 564 531 l 1,31,32
 504 520 504 520 405 520 c 2,33,-1
 256 520 l 1,34,-1
 256 0 l 1,35,-1
 128 0 l 1,36,-1
 128 1408 l 1,17,-1
EndSplineSet
Position2: "Single Positioning lookup 25 subtable" dx=-128 dy=0 dh=0 dv=0
Position2: "Single Positioning lookup 24 subtable" dx=0 dy=0 dh=0 dv=0
EndChar

StartChar: S
Encoding: 83 83 54
Width: 1024
GlyphClass: 2
Flags: W
LayerCount: 3
Fore
SplineSet
926 385 m 0,0,1
 926 204 926 204 804 94 c 128,-1,2
 682 -16 682 -16 492 -16 c 0,3,4
 331 -16 331 -16 122 16 c 1,5,-1
 122 139 l 1,6,7
 347 104 347 104 492 104 c 0,8,9
 630 104 630 104 714 179 c 128,-1,10
 798 254 798 254 798 385 c 0,11,12
 798 462 798 462 763 521 c 128,-1,13
 728 580 728 580 672 613 c 0,14,15
 626 641 626 641 502 660 c 128,-1,16
 378 679 378 679 337 694 c 0,17,18
 229 733 229 733 163.5 823.5 c 128,-1,19
 98 914 98 914 98 1045 c 0,20,21
 98 1211 98 1211 210 1317.5 c 128,-1,22
 322 1424 322 1424 492 1424 c 0,23,24
 631 1424 631 1424 862 1399 c 1,25,-1
 862 1278 l 1,26,27
 614 1304 614 1304 492 1304 c 0,28,29
 375 1304 375 1304 300.5 1232 c 128,-1,30
 226 1160 226 1160 226 1045 c 0,31,32
 226 966 226 966 261 907.5 c 128,-1,33
 296 849 296 849 354 819 c 0,34,35
 392 799 392 799 528.5 777 c 128,-1,36
 665 755 665 755 722 725 c 0,37,38
 811 678 811 678 868.5 589 c 128,-1,39
 926 500 926 500 926 385 c 0,0,1
EndSplineSet
Position2: "Single Positioning lookup 25 subtable" dx=-128 dy=0 dh=0 dv=0
Position2: "Single Positioning lookup 24 subtable" dx=0 dy=0 dh=0 dv=0
EndChar

StartChar: T
Encoding: 84 84 55
Width: 1024
GlyphClass: 2
Flags: W
LayerCount: 3
Fore
SplineSet
960 1408 m 1,0,-1
 960 1288 l 1,1,-1
 576 1288 l 1,2,-1
 576 0 l 1,3,-1
 448 0 l 1,4,-1
 448 1288 l 1,5,-1
 64 1288 l 1,6,-1
 64 1408 l 1,7,-1
 960 1408 l 1,0,-1
EndSplineSet
EndChar

StartChar: U
Encoding: 85 85 56
Width: 1024
GlyphClass: 2
Flags: W
LayerCount: 3
Fore
SplineSet
128 1408 m 5,0,-1
 256 1408 l 5,1,-1
 256 482 l 6,2,3
 256 358 256 358 268 300 c 4,4,5
 287 209 287 209 349.5 156.5 c 132,-1,6
 412 104 412 104 512 104 c 132,-1,7
 612 104 612 104 674.5 156.5 c 132,-1,8
 737 209 737 209 756 300 c 4,9,10
 768 358 768 358 768 482 c 6,11,-1
 768 1408 l 5,12,-1
 896 1408 l 5,13,-1
 896 482 l 6,14,15
 896 351 896 351 880 273 c 4,16,17
 853 144 853 144 755 64 c 132,-1,18
 657 -16 657 -16 512 -16 c 132,-1,19
 367 -16 367 -16 268.5 64 c 132,-1,20
 170 144 170 144 144 273 c 4,21,22
 128 351 128 351 128 482 c 6,23,-1
 128 1408 l 5,0,-1
EndSplineSet
Position2: "Single Positioning lookup 25 subtable" dx=-128 dy=0 dh=0 dv=0
Position2: "Single Positioning lookup 24 subtable" dx=0 dy=0 dh=0 dv=0
EndChar

StartChar: V
Encoding: 86 86 57
Width: 1024
GlyphClass: 2
Flags: W
LayerCount: 3
Fore
SplineSet
517 157 m 1,0,1
 633 432 633 432 712 738.5 c 128,-1,2
 791 1045 791 1045 853 1408 c 1,3,-1
 983 1408 l 1,4,5
 911 998 911 998 815 653.5 c 128,-1,6
 719 309 719 309 570 0 c 1,7,-1
 454 0 l 1,8,9
 305 309 305 309 209 653.5 c 128,-1,10
 113 998 113 998 41 1408 c 1,11,-1
 171 1408 l 1,12,13
 303 639 303 639 507 157 c 1,14,-1
 517 157 l 1,0,1
EndSplineSet
Position2: "Single Positioning lookup 25 subtable" dx=-128 dy=0 dh=0 dv=0
Position2: "Single Positioning lookup 24 subtable" dx=0 dy=0 dh=0 dv=0
EndChar

StartChar: W
Encoding: 87 87 58
Width: 1024
GlyphClass: 2
Flags: W
LayerCount: 3
Fore
SplineSet
507 84 m 1,0,1
 447 -16 447 -16 320 -16 c 0,2,3
 227 -16 227 -16 159.5 35 c 128,-1,4
 92 86 92 86 73 167 c 0,5,6
 64 204 64 204 64 264 c 2,7,-1
 64 1369 l 1,8,-1
 192 1369 l 1,9,-1
 192 264 l 2,10,11
 192 219 192 219 198 193 c 0,12,13
 207 153 207 153 240 128.5 c 128,-1,14
 273 104 273 104 320 104 c 128,-1,15
 367 104 367 104 400 128.5 c 128,-1,16
 433 153 433 153 442 193 c 0,17,18
 448 219 448 219 448 264 c 2,19,-1
 448 1368 l 5,20,-1
 576 1368 l 5,21,-1
 576 264 l 2,22,23
 576 219 576 219 582 193 c 0,24,25
 591 153 591 153 624 128.5 c 128,-1,26
 657 104 657 104 704 104 c 128,-1,27
 751 104 751 104 784 128.5 c 128,-1,28
 817 153 817 153 826 193 c 0,29,30
 832 219 832 219 832 264 c 2,31,-1
 832 1369 l 1,32,-1
 960 1369 l 1,33,-1
 960 264 l 2,34,35
 960 204 960 204 951 167 c 0,36,37
 932 86 932 86 864.5 35 c 128,-1,38
 797 -16 797 -16 704 -16 c 0,39,40
 577 -16 577 -16 517 84 c 1,41,-1
 507 84 l 1,0,1
EndSplineSet
Substitution2: "'ss10' Style Set 10 lookup 9 subtable" W.straight
Position2: "Single Positioning lookup 25 subtable" dx=-128 dy=0 dh=0 dv=0
Position2: "Single Positioning lookup 24 subtable" dx=0 dy=0 dh=0 dv=0
EndChar

StartChar: X
Encoding: 88 88 59
Width: 1024
GlyphClass: 2
Flags: W
LayerCount: 3
Fore
SplineSet
507 824 m 1,0,-1
 517 824 l 1,1,-1
 820 1408 l 1,2,-1
 967 1408 l 1,3,-1
 596 721 l 1,4,-1
 596 711 l 1,5,-1
 999 0 l 1,6,-1
 851 0 l 1,7,-1
 517 608 l 1,8,-1
 507 608 l 1,9,-1
 173 0 l 1,10,-1
 25 0 l 1,11,-1
 428 711 l 1,12,-1
 428 721 l 1,13,-1
 57 1408 l 1,14,-1
 204 1408 l 1,15,-1
 507 824 l 1,0,-1
EndSplineSet
Position2: "Single Positioning lookup 25 subtable" dx=-128 dy=0 dh=0 dv=0
Position2: "Single Positioning lookup 24 subtable" dx=0 dy=0 dh=0 dv=0
EndChar

StartChar: Y
Encoding: 89 89 60
Width: 1024
GlyphClass: 2
Flags: W
LayerCount: 3
Fore
SplineSet
522 741 m 1,0,1
 698 1000 698 1000 852 1408 c 1,2,-1
 988 1408 l 1,3,4
 897 1171 897 1171 799.5 977 c 128,-1,5
 702 783 702 783 576 616 c 1,6,-1
 576 0 l 1,7,-1
 448 0 l 1,8,-1
 448 616 l 1,9,10
 322 783 322 783 224.5 977 c 128,-1,11
 127 1171 127 1171 36 1408 c 1,12,-1
 172 1408 l 1,13,14
 325 1002 325 1002 502 741 c 1,15,-1
 522 741 l 1,0,1
EndSplineSet
EndChar

StartChar: Z
Encoding: 90 90 61
Width: 1024
GlyphClass: 2
Flags: W
LayerCount: 3
Fore
SplineSet
874 657 m 1,0,-1
 874 657 l 1,1,-1
 148 658 l 1,2,-1
 148 778 l 1,3,-1
 876 778 l 1,4,-1
 874 657 l 1,0,-1
148 1288 m 1,5,-1
 148 1408 l 1,6,-1
 876 1408 l 1,7,-1
 876 1318 l 1,8,-1
 278 130 l 1,9,-1
 278 120 l 1,10,-1
 896 120 l 1,11,-1
 896 0 l 1,12,-1
 128 0 l 1,13,-1
 128 92 l 1,14,-1
 726 1278 l 1,15,-1
 726 1288 l 1,16,-1
 148 1288 l 1,5,-1
EndSplineSet
Position2: "Single Positioning lookup 25 subtable" dx=-128 dy=0 dh=0 dv=0
Position2: "Single Positioning lookup 24 subtable" dx=0 dy=0 dh=0 dv=0
EndChar

StartChar: bracketleft
Encoding: 91 91 62
Width: 1024
GlyphClass: 2
Flags: W
LayerCount: 3
Fore
SplineSet
320 1536 m 1,0,-1
 832 1536 l 1,1,-1
 832 1416 l 1,2,-1
 448 1416 l 1,3,-1
 448 -8 l 1,4,-1
 832 -8 l 1,5,-1
 832 -128 l 1,6,7
 832 -128 832 -128 320 -128 c 1,8,9
 320 -128 320 -128 320 1536 c 1,0,-1
EndSplineSet
EndChar

StartChar: backslash
Encoding: 92 92 63
Width: 1024
GlyphClass: 2
Flags: W
LayerCount: 3
Fore
SplineSet
850 -155 m 1,0,-1
 61 1510 l 1,1,-1
 174 1563 l 1,2,-1
 963 -102 l 1,3,-1
 850 -155 l 1,0,-1
EndSplineSet
Substitution2: "Single Substitution lookup 15 subtable" backslash.shrug
EndChar

StartChar: bracketright
Encoding: 93 93 64
Width: 1024
GlyphClass: 2
Flags: W
LayerCount: 3
Fore
SplineSet
192 1536 m 1,0,-1
 704 1536 l 1,1,-1
 704 -128 l 1,2,-1
 192 -128 l 1,3,-1
 192 -8 l 1,4,-1
 576 -8 l 1,5,-1
 576 1416 l 1,6,-1
 192 1416 l 1,7,-1
 192 1536 l 1,0,-1
EndSplineSet
EndChar

StartChar: asciicircum
Encoding: 94 94 65
Width: 1024
GlyphClass: 2
Flags: W
LayerCount: 3
Fore
SplineSet
137 896 m 1,0,1
 221 1203 221 1203 432 1408 c 1,2,-1
 592 1408 l 1,3,4
 803 1203 803 1203 887 896 c 1,5,-1
 752 896 l 1,6,7
 680 1140 680 1140 537 1299 c 1,8,-1
 487 1299 l 1,9,10
 344 1140 344 1140 272 896 c 1,11,-1
 137 896 l 1,0,1
EndSplineSet
EndChar

StartChar: underscore
Encoding: 95 95 66
Width: 1024
GlyphClass: 2
Flags: W
LayerCount: 3
Fore
SplineSet
64 0 m 1,0,-1
 960 0 l 1,1,-1
 960 -120 l 1,2,-1
 64 -120 l 1,3,-1
 64 0 l 1,0,-1
EndSplineSet
Substitution2: "Single Substitution lookup 80 subtable" underscore.2r
Substitution2: "Single Substitution lookup 79 subtable" underscore.2l
Substitution2: "Single Substitution lookup 78 subtable" underscore.more
Substitution2: "Single Substitution lookup 77 subtable" underscore.more
Substitution2: "Single Substitution lookup 76 subtable" underscore.more
EndChar

StartChar: grave
Encoding: 96 96 67
Width: 1024
GlyphClass: 2
Flags: W
LayerCount: 3
Fore
SplineSet
599 1024 m 1,0,-1
 461 1024 l 1,1,-1
 295 1408 l 1,2,-1
 433 1408 l 1,3,-1
 599 1024 l 1,0,-1
EndSplineSet
EndChar

StartChar: a
Encoding: 97 97 68
Width: 1024
GlyphClass: 2
Flags: W
LayerCount: 3
Fore
SplineSet
704 512 m 1,0,-1
 508 512 l 2,1,2
 471 512 471 512 450.5 510 c 128,-1,3
 430 508 430 508 399 495.5 c 128,-1,4
 368 483 368 483 344 458 c 0,5,6
 288 399 288 399 288 303 c 0,7,8
 288 218 288 218 336.5 161 c 128,-1,9
 385 104 385 104 468 104 c 0,10,11
 516 104 516 104 553.5 118 c 128,-1,12
 591 132 591 132 615.5 153 c 128,-1,13
 640 174 640 174 657.5 208 c 128,-1,14
 675 242 675 242 683.5 271.5 c 128,-1,15
 692 301 692 301 697 342 c 128,-1,16
 702 383 702 383 703 409 c 128,-1,17
 704 435 704 435 704 471 c 2,18,-1
 704 512 l 1,0,-1
544 1040 m 0,19,20
 630 1040 630 1040 695 1013.5 c 128,-1,21
 760 987 760 987 802 913 c 0,22,23
 832 860 832 860 832 749 c 2,24,-1
 832 0 l 1,25,-1
 704 0 l 1,26,-1
 704 123 l 1,27,-1
 694 123 l 1,28,29
 593 -16 593 -16 444 -16 c 0,30,31
 324 -16 324 -16 242 74 c 128,-1,32
 160 164 160 164 160 301 c 0,33,34
 160 445 160 445 248 533 c 0,35,36
 280 564 280 564 316 584 c 128,-1,37
 352 604 352 604 391.5 611.5 c 128,-1,38
 431 619 431 619 453.5 620.5 c 128,-1,39
 476 622 476 622 510 622 c 2,40,-1
 704 622 l 1,41,-1
 704 744 l 2,42,43
 704 831 704 831 686 862 c 0,44,45
 669 891 669 891 637.5 905.5 c 128,-1,46
 606 920 606 920 544 920 c 0,47,48
 424 920 424 920 256 899 c 1,49,-1
 256 1021 l 1,50,51
 421 1040 421 1040 544 1040 c 0,19,20
EndSplineSet
Position2: "Single Positioning lookup 23 subtable" dx=-128 dy=0 dh=0 dv=0
Position2: "Single Positioning lookup 22 subtable" dx=-64 dy=0 dh=0 dv=0
Position2: "Single Positioning lookup 21 subtable" dx=0 dy=0 dh=0 dv=0
Position2: "Single Positioning lookup 14 subtable" dx=-64 dy=0 dh=0 dv=0
Position2: "Single Positioning lookup 11 subtable" dx=0 dy=0 dh=0 dv=0
Position2: "Single Positioning lookup 9 subtable" dx=-128 dy=0 dh=0 dv=0
Position2: "Single Positioning lookup 7 subtable" dx=128 dy=0 dh=0 dv=0
Position2: "Single Positioning lookup 6 subtable" dx=64 dy=0 dh=0 dv=0
Position2: "Single Positioning lookup 5 subtable" dx=0 dy=0 dh=0 dv=0
Position2: "Single Positioning lookup 2 subtable" dx=128 dy=0 dh=0 dv=0
EndChar

StartChar: b
Encoding: 98 98 69
Width: 1024
GlyphClass: 2
Flags: W
LayerCount: 3
Fore
SplineSet
548 1040 m 0,0,1
 647 1040 647 1040 724 977.5 c 128,-1,2
 801 915 801 915 836 803 c 0,3,4
 849 761 849 761 855.5 709 c 128,-1,5
 862 657 862 657 863 620.5 c 128,-1,6
 864 584 864 584 864 512 c 128,-1,7
 864 440 864 440 863 403.5 c 128,-1,8
 862 367 862 367 855.5 315 c 128,-1,9
 849 263 849 263 836 221 c 0,10,11
 801 109 801 109 724 46.5 c 128,-1,12
 647 -16 647 -16 548 -16 c 0,13,14
 420 -16 420 -16 330 125 c 1,15,-1
 320 125 l 1,16,-1
 320 0 l 1,17,-1
 192 0 l 1,18,-1
 192 1408 l 1,19,-1
 320 1408 l 1,20,-1
 320 899 l 1,21,-1
 330 899 l 1,22,23
 420 1040 420 1040 548 1040 c 0,0,1
528 920 m 128,-1,25
 461 920 461 920 414.5 876.5 c 128,-1,26
 368 833 368 833 346 768 c 0,27,28
 320 689 320 689 320 512 c 128,-1,29
 320 335 320 335 346 256 c 0,30,31
 368 191 368 191 414.5 147.5 c 128,-1,32
 461 104 461 104 528 104 c 128,-1,33
 595 104 595 104 641.5 147.5 c 128,-1,34
 688 191 688 191 710 256 c 0,35,36
 736 335 736 335 736 512 c 128,-1,37
 736 689 736 689 710 768 c 0,38,39
 688 833 688 833 641.5 876.5 c 128,-1,24
 595 920 595 920 528 920 c 128,-1,25
EndSplineSet
Position2: "Single Positioning lookup 23 subtable" dx=-128 dy=0 dh=0 dv=0
Position2: "Single Positioning lookup 22 subtable" dx=-64 dy=0 dh=0 dv=0
Position2: "Single Positioning lookup 21 subtable" dx=0 dy=0 dh=0 dv=0
Position2: "Single Positioning lookup 14 subtable" dx=-64 dy=0 dh=0 dv=0
Position2: "Single Positioning lookup 11 subtable" dx=0 dy=0 dh=0 dv=0
Position2: "Single Positioning lookup 9 subtable" dx=-128 dy=0 dh=0 dv=0
Position2: "Single Positioning lookup 7 subtable" dx=128 dy=0 dh=0 dv=0
Position2: "Single Positioning lookup 6 subtable" dx=64 dy=0 dh=0 dv=0
Position2: "Single Positioning lookup 5 subtable" dx=0 dy=0 dh=0 dv=0
Position2: "Single Positioning lookup 2 subtable" dx=128 dy=0 dh=0 dv=0
EndChar

StartChar: c
Encoding: 99 99 70
Width: 1024
GlyphClass: 2
Flags: W
LayerCount: 3
Fore
SplineSet
160 512 m 128,-1,1
 160 624 160 624 167.5 696 c 128,-1,2
 175 768 175 768 203 831 c 0,3,4
 294 1040 294 1040 542 1040 c 0,5,6
 642 1040 642 1040 812 1023 c 1,7,-1
 812 903 l 1,8,9
 640 920 640 920 542 920 c 0,10,11
 456 920 456 920 405.5 887.5 c 128,-1,12
 355 855 355 855 323 789 c 0,13,14
 307 755 307 755 298.5 704 c 128,-1,15
 290 653 290 653 289 616.5 c 128,-1,16
 288 580 288 580 288 512 c 128,-1,17
 288 444 288 444 289 407.5 c 128,-1,18
 290 371 290 371 298.5 320 c 128,-1,19
 307 269 307 269 323 235 c 0,20,21
 355 169 355 169 405.5 136.5 c 128,-1,22
 456 104 456 104 542 104 c 0,23,24
 659 104 659 104 832 130 c 1,25,-1
 832 10 l 1,26,27
 660 -16 660 -16 542 -16 c 0,28,29
 294 -16 294 -16 203 193 c 0,30,31
 175 256 175 256 167.5 328 c 128,-1,0
 160 400 160 400 160 512 c 128,-1,1
EndSplineSet
Position2: "Single Positioning lookup 23 subtable" dx=-128 dy=0 dh=0 dv=0
Position2: "Single Positioning lookup 22 subtable" dx=-64 dy=0 dh=0 dv=0
Position2: "Single Positioning lookup 21 subtable" dx=0 dy=0 dh=0 dv=0
Position2: "Single Positioning lookup 14 subtable" dx=-64 dy=0 dh=0 dv=0
Position2: "Single Positioning lookup 11 subtable" dx=0 dy=0 dh=0 dv=0
Position2: "Single Positioning lookup 9 subtable" dx=-128 dy=0 dh=0 dv=0
Position2: "Single Positioning lookup 7 subtable" dx=128 dy=0 dh=0 dv=0
Position2: "Single Positioning lookup 6 subtable" dx=64 dy=0 dh=0 dv=0
Position2: "Single Positioning lookup 5 subtable" dx=0 dy=0 dh=0 dv=0
Position2: "Single Positioning lookup 2 subtable" dx=128 dy=0 dh=0 dv=0
EndChar

StartChar: d
Encoding: 100 100 71
Width: 1024
GlyphClass: 2
Flags: W
LayerCount: 3
Fore
SplineSet
476 1040 m 0,0,1
 543 1040 543 1040 601 1005.5 c 128,-1,2
 659 971 659 971 694 899 c 1,3,-1
 704 899 l 1,4,-1
 704 1408 l 1,5,-1
 832 1408 l 1,6,-1
 832 0 l 1,7,-1
 704 0 l 1,8,-1
 704 125 l 1,9,-1
 694 125 l 1,10,11
 659 53 659 53 601 18.5 c 128,-1,12
 543 -16 543 -16 476 -16 c 0,13,14
 377 -16 377 -16 300 46.5 c 128,-1,15
 223 109 223 109 188 221 c 0,16,17
 175 263 175 263 168.5 315 c 128,-1,18
 162 367 162 367 161 403.5 c 128,-1,19
 160 440 160 440 160 512 c 128,-1,20
 160 584 160 584 161 620.5 c 128,-1,21
 162 657 162 657 168.5 709 c 128,-1,22
 175 761 175 761 188 803 c 0,23,24
 223 915 223 915 300 977.5 c 128,-1,25
 377 1040 377 1040 476 1040 c 0,0,1
496 920 m 128,-1,27
 429 920 429 920 382.5 876.5 c 128,-1,28
 336 833 336 833 314 768 c 0,29,30
 288 689 288 689 288 512 c 128,-1,31
 288 335 288 335 314 256 c 0,32,33
 336 191 336 191 382.5 147.5 c 128,-1,34
 429 104 429 104 496 104 c 128,-1,35
 563 104 563 104 609.5 147.5 c 128,-1,36
 656 191 656 191 678 256 c 0,37,38
 704 335 704 335 704 512 c 128,-1,39
 704 689 704 689 678 768 c 0,40,41
 656 833 656 833 609.5 876.5 c 128,-1,26
 563 920 563 920 496 920 c 128,-1,27
EndSplineSet
Position2: "Single Positioning lookup 23 subtable" dx=-128 dy=0 dh=0 dv=0
Position2: "Single Positioning lookup 22 subtable" dx=-64 dy=0 dh=0 dv=0
Position2: "Single Positioning lookup 21 subtable" dx=0 dy=0 dh=0 dv=0
Position2: "Single Positioning lookup 14 subtable" dx=-64 dy=0 dh=0 dv=0
Position2: "Single Positioning lookup 11 subtable" dx=0 dy=0 dh=0 dv=0
Position2: "Single Positioning lookup 9 subtable" dx=-128 dy=0 dh=0 dv=0
Position2: "Single Positioning lookup 7 subtable" dx=128 dy=0 dh=0 dv=0
Position2: "Single Positioning lookup 6 subtable" dx=64 dy=0 dh=0 dv=0
Position2: "Single Positioning lookup 5 subtable" dx=0 dy=0 dh=0 dv=0
Position2: "Single Positioning lookup 2 subtable" dx=128 dy=0 dh=0 dv=0
EndChar

StartChar: e
Encoding: 101 101 72
Width: 1024
GlyphClass: 2
Flags: W
LayerCount: 3
Fore
SplineSet
512 920 m 128,-1,1
 440 920 440 920 389.5 888 c 128,-1,2
 339 856 339 856 317 799 c 0,3,4
 296 751 296 751 290 632 c 1,5,-1
 734 632 l 1,6,7
 728 751 728 751 707 799 c 0,8,9
 685 856 685 856 634.5 888 c 128,-1,0
 584 920 584 920 512 920 c 128,-1,1
512 1040 m 128,-1,11
 629 1040 629 1040 711.5 984 c 128,-1,12
 794 928 794 928 827 839 c 0,13,14
 844 796 844 796 852.5 738 c 128,-1,15
 861 680 861 680 862.5 635.5 c 128,-1,16
 864 591 864 591 864 512 c 1,17,-1
 288 512 l 1,18,19
 288 444 288 444 289 407.5 c 128,-1,20
 290 371 290 371 297.5 320 c 128,-1,21
 305 269 305 269 320 235 c 0,22,23
 378 104 378 104 532 104 c 0,24,25
 648 104 648 104 832 125 c 1,26,-1
 832 5 l 1,27,28
 650 -16 650 -16 532 -16 c 0,29,30
 408 -16 408 -16 323 42 c 128,-1,31
 238 100 238 100 200 193 c 0,32,33
 174 256 174 256 167 328 c 128,-1,34
 160 400 160 400 160 512 c 0,35,36
 160 591 160 591 161.5 635.5 c 128,-1,37
 163 680 163 680 171.5 738 c 128,-1,38
 180 796 180 796 197 839 c 0,39,40
 230 928 230 928 312.5 984 c 128,-1,10
 395 1040 395 1040 512 1040 c 128,-1,11
EndSplineSet
Position2: "Single Positioning lookup 23 subtable" dx=-128 dy=0 dh=0 dv=0
Position2: "Single Positioning lookup 22 subtable" dx=-64 dy=0 dh=0 dv=0
Position2: "Single Positioning lookup 21 subtable" dx=0 dy=0 dh=0 dv=0
Position2: "Single Positioning lookup 14 subtable" dx=-64 dy=0 dh=0 dv=0
Position2: "Single Positioning lookup 11 subtable" dx=0 dy=0 dh=0 dv=0
Position2: "Single Positioning lookup 9 subtable" dx=-128 dy=0 dh=0 dv=0
Position2: "Single Positioning lookup 7 subtable" dx=128 dy=0 dh=0 dv=0
Position2: "Single Positioning lookup 6 subtable" dx=64 dy=0 dh=0 dv=0
Position2: "Single Positioning lookup 5 subtable" dx=0 dy=0 dh=0 dv=0
Position2: "Single Positioning lookup 2 subtable" dx=128 dy=0 dh=0 dv=0
EndChar

StartChar: f
Encoding: 102 102 73
Width: 1024
GlyphClass: 2
Flags: W
LayerCount: 3
Fore
SplineSet
512 0 m 1,0,-1
 384 0 l 1,1,-1
 384 776 l 1,2,-1
 128 776 l 1,3,-1
 128 896 l 1,4,-1
 384 896 l 1,5,-1
 384 1129 l 2,6,7
 384 1167 384 1167 385.5 1190.5 c 128,-1,8
 387 1214 387 1214 399.5 1255.5 c 128,-1,9
 412 1297 412 1297 436 1329 c 0,10,11
 469 1374 469 1374 527.5 1399 c 128,-1,12
 586 1424 586 1424 660 1424 c 0,13,14
 754 1424 754 1424 896 1408 c 1,15,-1
 896 1288 l 1,16,17
 754 1304 754 1304 660 1304 c 0,18,19
 574 1304 574 1304 540 1259 c 0,20,21
 512 1222 512 1222 512 1129 c 2,22,-1
 512 896 l 1,23,-1
 896 896 l 1,24,-1
 896 776 l 1,25,-1
 512 776 l 1,26,-1
 512 0 l 1,0,-1
EndSplineSet
Position2: "Single Positioning lookup 23 subtable" dx=-128 dy=0 dh=0 dv=0
Position2: "Single Positioning lookup 22 subtable" dx=-64 dy=0 dh=0 dv=0
Position2: "Single Positioning lookup 21 subtable" dx=0 dy=0 dh=0 dv=0
Position2: "Single Positioning lookup 14 subtable" dx=-64 dy=0 dh=0 dv=0
Position2: "Single Positioning lookup 11 subtable" dx=0 dy=0 dh=0 dv=0
Position2: "Single Positioning lookup 9 subtable" dx=-128 dy=0 dh=0 dv=0
Position2: "Single Positioning lookup 7 subtable" dx=128 dy=0 dh=0 dv=0
Position2: "Single Positioning lookup 6 subtable" dx=64 dy=0 dh=0 dv=0
Position2: "Single Positioning lookup 5 subtable" dx=0 dy=0 dh=0 dv=0
Position2: "Single Positioning lookup 2 subtable" dx=128 dy=0 dh=0 dv=0
EndChar

StartChar: g
Encoding: 103 103 74
Width: 1024
GlyphClass: 2
Flags: W
LayerCount: 3
Fore
SplineSet
288 576 m 128,-1,1
 288 357 288 357 373 278 c 0,2,3
 422 232 422 232 496 232 c 128,-1,4
 570 232 570 232 619 278 c 0,5,6
 704 357 704 357 704 576 c 128,-1,7
 704 795 704 795 619 874 c 0,8,9
 570 920 570 920 496 920 c 128,-1,10
 422 920 422 920 373 874 c 0,11,0
 288 795 288 795 288 576 c 128,-1,1
704 253 m 1,12,-1
 694 253 l 1,13,14
 603 112 603 112 476 112 c 0,15,16
 358 112 358 112 275 193 c 0,17,18
 160 307 160 307 160 576 c 128,-1,19
 160 845 160 845 275 959 c 0,20,21
 358 1040 358 1040 476 1040 c 0,22,23
 603 1040 603 1040 694 899 c 1,24,-1
 704 899 l 1,25,-1
 704 1024 l 1,26,-1
 832 1024 l 1,27,-1
 832 160 l 2,28,29
 832 -11 832 -11 771 -113 c 0,30,31
 676 -272 676 -272 472 -272 c 0,32,33
 356 -272 356 -272 236 -257 c 1,34,-1
 236 -137 l 1,35,36
 371 -152 371 -152 472 -152 c 0,37,38
 599 -152 599 -152 660 -54 c 0,39,40
 704 17 704 17 704 160 c 2,41,-1
 704 253 l 1,12,-1
EndSplineSet
Substitution2: "'ss11' Style Set 11 lookup 10 subtable" g.long
Position2: "Single Positioning lookup 23 subtable" dx=-128 dy=0 dh=0 dv=0
Position2: "Single Positioning lookup 22 subtable" dx=-64 dy=0 dh=0 dv=0
Position2: "Single Positioning lookup 21 subtable" dx=0 dy=0 dh=0 dv=0
Position2: "Single Positioning lookup 14 subtable" dx=-64 dy=0 dh=0 dv=0
Position2: "Single Positioning lookup 11 subtable" dx=0 dy=0 dh=0 dv=0
Position2: "Single Positioning lookup 9 subtable" dx=-128 dy=0 dh=0 dv=0
Position2: "Single Positioning lookup 7 subtable" dx=128 dy=0 dh=0 dv=0
Position2: "Single Positioning lookup 6 subtable" dx=64 dy=0 dh=0 dv=0
Position2: "Single Positioning lookup 5 subtable" dx=0 dy=0 dh=0 dv=0
Position2: "Single Positioning lookup 2 subtable" dx=128 dy=0 dh=0 dv=0
EndChar

StartChar: h
Encoding: 104 104 75
Width: 1024
GlyphClass: 2
Flags: W
LayerCount: 3
Fore
SplineSet
532 1040 m 0,0,1
 604 1040 604 1040 664 1011 c 128,-1,2
 724 982 724 982 763 933 c 0,3,4
 788 902 788 902 803 869 c 128,-1,5
 818 836 818 836 823.5 796 c 128,-1,6
 829 756 829 756 830.5 730 c 128,-1,7
 832 704 832 704 832 657 c 2,8,-1
 832 0 l 1,9,-1
 704 0 l 1,10,-1
 704 657 l 2,11,12
 704 712 704 712 702.5 739 c 128,-1,13
 701 766 701 766 690.5 799.5 c 128,-1,14
 680 833 680 833 659 858 c 0,15,16
 605 920 605 920 512 920 c 128,-1,17
 419 920 419 920 365 858 c 0,18,19
 344 833 344 833 333.5 799.5 c 128,-1,20
 323 766 323 766 321.5 739 c 128,-1,21
 320 712 320 712 320 657 c 2,22,-1
 320 0 l 1,23,-1
 192 0 l 1,24,-1
 192 1408 l 1,25,-1
 320 1408 l 1,26,-1
 320 912 l 1,27,-1
 330 912 l 1,28,29
 367 970 367 970 421.5 1005 c 128,-1,30
 476 1040 476 1040 532 1040 c 0,0,1
EndSplineSet
Position2: "Single Positioning lookup 23 subtable" dx=-128 dy=0 dh=0 dv=0
Position2: "Single Positioning lookup 22 subtable" dx=-64 dy=0 dh=0 dv=0
Position2: "Single Positioning lookup 21 subtable" dx=0 dy=0 dh=0 dv=0
Position2: "Single Positioning lookup 14 subtable" dx=-64 dy=0 dh=0 dv=0
Position2: "Single Positioning lookup 11 subtable" dx=0 dy=0 dh=0 dv=0
Position2: "Single Positioning lookup 9 subtable" dx=-128 dy=0 dh=0 dv=0
Position2: "Single Positioning lookup 7 subtable" dx=128 dy=0 dh=0 dv=0
Position2: "Single Positioning lookup 6 subtable" dx=64 dy=0 dh=0 dv=0
Position2: "Single Positioning lookup 5 subtable" dx=0 dy=0 dh=0 dv=0
Position2: "Single Positioning lookup 2 subtable" dx=128 dy=0 dh=0 dv=0
EndChar

StartChar: i
Encoding: 105 105 76
Width: 1024
GlyphClass: 2
Flags: W
LayerCount: 3
Fore
SplineSet
544 1424 m 128,-1,1
 594 1424 594 1424 625 1393 c 128,-1,2
 656 1362 656 1362 656 1312 c 128,-1,3
 656 1262 656 1262 625 1231 c 128,-1,4
 594 1200 594 1200 544 1200 c 128,-1,5
 494 1200 494 1200 463 1231 c 128,-1,6
 432 1262 432 1262 432 1312 c 128,-1,7
 432 1362 432 1362 463 1393 c 128,-1,0
 494 1424 494 1424 544 1424 c 128,-1,1
512 0 m 1,8,-1
 512 904 l 1,9,-1
 256 904 l 1,10,-1
 256 1024 l 1,11,-1
 640 1024 l 1,12,-1
 640 0 l 1,13,-1
 512 0 l 1,8,-1
EndSplineSet
Substitution2: "'ss07' Style Set 7 lookup 6 subtable" i.flyingdot
Position2: "Single Positioning lookup 26 subtable" dx=-128 dy=0 dh=0 dv=0
Position2: "Single Positioning lookup 20 subtable" dx=64 dy=0 dh=0 dv=0
Position2: "Single Positioning lookup 19 subtable" dx=64 dy=0 dh=0 dv=0
Position2: "Single Positioning lookup 17 subtable" dx=0 dy=0 dh=0 dv=0
Position2: "Single Positioning lookup 15 subtable" dx=0 dy=0 dh=0 dv=0
Position2: "Single Positioning lookup 12 subtable" dx=128 dy=0 dh=0 dv=0
Position2: "Single Positioning lookup 10 subtable" dx=64 dy=0 dh=0 dv=0
Position2: "Single Positioning lookup 8 subtable" dx=-64 dy=0 dh=0 dv=0
Position2: "Single Positioning lookup 4 subtable" dx=64 dy=0 dh=0 dv=0
Position2: "Single Positioning lookup 3 subtable" dx=64 dy=0 dh=0 dv=0
Position2: "Single Positioning lookup 1 subtable" dx=64 dy=0 dh=0 dv=0
EndChar

StartChar: j
Encoding: 106 106 77
Width: 1024
GlyphClass: 2
Flags: W
LayerCount: 3
Fore
SplineSet
576 160 m 2,0,-1
 576 904 l 1,1,-1
 320 904 l 1,2,-1
 320 1024 l 1,3,-1
 704 1024 l 1,4,-1
 704 160 l 2,5,6
 704 -11 704 -11 643 -113 c 0,7,8
 548 -272 548 -272 344 -272 c 0,9,10
 228 -272 228 -272 108 -257 c 1,11,-1
 108 -137 l 1,12,13
 243 -152 243 -152 344 -152 c 0,14,15
 471 -152 471 -152 532 -54 c 0,16,17
 576 17 576 17 576 160 c 2,0,-1
608 1424 m 128,-1,19
 658 1424 658 1424 689 1393 c 128,-1,20
 720 1362 720 1362 720 1312 c 128,-1,21
 720 1262 720 1262 689 1231 c 128,-1,22
 658 1200 658 1200 608 1200 c 128,-1,23
 558 1200 558 1200 527 1231 c 128,-1,24
 496 1262 496 1262 496 1312 c 128,-1,25
 496 1362 496 1362 527 1393 c 128,-1,18
 558 1424 558 1424 608 1424 c 128,-1,19
EndSplineSet
Substitution2: "'ss11' Style Set 11 lookup 10 subtable" j.long
Substitution2: "'ss07' Style Set 7 lookup 6 subtable" j.flyingdot
Position2: "Single Positioning lookup 23 subtable" dx=-128 dy=0 dh=0 dv=0
Position2: "Single Positioning lookup 22 subtable" dx=-64 dy=0 dh=0 dv=0
Position2: "Single Positioning lookup 21 subtable" dx=0 dy=0 dh=0 dv=0
Position2: "Single Positioning lookup 14 subtable" dx=-64 dy=0 dh=0 dv=0
Position2: "Single Positioning lookup 11 subtable" dx=0 dy=0 dh=0 dv=0
Position2: "Single Positioning lookup 9 subtable" dx=-128 dy=0 dh=0 dv=0
Position2: "Single Positioning lookup 7 subtable" dx=128 dy=0 dh=0 dv=0
Position2: "Single Positioning lookup 6 subtable" dx=64 dy=0 dh=0 dv=0
Position2: "Single Positioning lookup 5 subtable" dx=0 dy=0 dh=0 dv=0
Position2: "Single Positioning lookup 2 subtable" dx=128 dy=0 dh=0 dv=0
EndChar

StartChar: k
Encoding: 107 107 78
Width: 1024
GlyphClass: 2
Flags: W
LayerCount: 3
Fore
SplineSet
320 0 m 1,0,-1
 192 0 l 1,1,-1
 192 1408 l 1,2,-1
 320 1408 l 1,3,-1
 320 602 l 1,4,-1
 730 1024 l 1,5,-1
 891 1024 l 1,6,-1
 528 645 l 1,7,-1
 938 0 l 1,8,-1
 782 0 l 1,9,-1
 445 560 l 1,10,-1
 320 435 l 1,11,-1
 320 0 l 1,0,-1
EndSplineSet
Position2: "Single Positioning lookup 23 subtable" dx=-128 dy=0 dh=0 dv=0
Position2: "Single Positioning lookup 22 subtable" dx=-64 dy=0 dh=0 dv=0
Position2: "Single Positioning lookup 21 subtable" dx=0 dy=0 dh=0 dv=0
Position2: "Single Positioning lookup 14 subtable" dx=-64 dy=0 dh=0 dv=0
Position2: "Single Positioning lookup 11 subtable" dx=0 dy=0 dh=0 dv=0
Position2: "Single Positioning lookup 9 subtable" dx=-128 dy=0 dh=0 dv=0
Position2: "Single Positioning lookup 7 subtable" dx=128 dy=0 dh=0 dv=0
Position2: "Single Positioning lookup 6 subtable" dx=64 dy=0 dh=0 dv=0
Position2: "Single Positioning lookup 5 subtable" dx=0 dy=0 dh=0 dv=0
Position2: "Single Positioning lookup 2 subtable" dx=128 dy=0 dh=0 dv=0
EndChar

StartChar: l
Encoding: 108 108 79
Width: 1024
GlyphClass: 2
Flags: W
LayerCount: 3
Fore
SplineSet
768 -11 m 1,0,1
 673 -16 673 -16 630 -16 c 0,2,3
 523 -16 523 -16 457 52 c 0,4,5
 423 87 423 87 406 133.5 c 128,-1,6
 389 180 389 180 386.5 207.5 c 128,-1,7
 384 235 384 235 384 279 c 2,8,-1
 384 1408 l 1,9,-1
 512 1408 l 1,10,-1
 512 279 l 2,11,12
 512 248 512 248 513 231 c 128,-1,13
 514 214 514 214 520.5 190 c 128,-1,14
 527 166 527 166 540 148 c 0,15,16
 573 104 573 104 640 104 c 0,17,18
 708 104 708 104 768 109 c 1,19,-1
 768 -11 l 1,0,1
EndSplineSet
Substitution2: "'ss09' Style Set 9 lookup 8 subtable" l.base
Substitution2: "'ss08' Style Set 8 lookup 7 subtable" l.zstyle
Position2: "Single Positioning lookup 26 subtable" dx=-128 dy=0 dh=0 dv=0
Position2: "Single Positioning lookup 18 subtable" dx=-64 dy=0 dh=0 dv=0
Position2: "Single Positioning lookup 16 subtable" dx=-128 dy=0 dh=0 dv=0
Position2: "Single Positioning lookup 13 subtable" dx=-128 dy=0 dh=0 dv=0
Position2: "Single Positioning lookup 12 subtable" dx=128 dy=0 dh=0 dv=0
Position2: "Single Positioning lookup 10 subtable" dx=64 dy=0 dh=0 dv=0
Position2: "Single Positioning lookup 8 subtable" dx=-64 dy=0 dh=0 dv=0
Position2: "Single Positioning lookup 3 subtable" dx=64 dy=0 dh=0 dv=0
Position2: "Single Positioning lookup 1 subtable" dx=64 dy=0 dh=0 dv=0
EndChar

StartChar: m
Encoding: 109 109 80
Width: 1024
GlyphClass: 2
Flags: W
LayerCount: 3
Fore
SplineSet
350 1040 m 0,0,1
 410 1040 410 1040 457.5 1009.5 c 128,-1,2
 505 979 505 979 533 929 c 1,3,4
 618 1040 618 1040 734 1040 c 0,5,6
 844 1040 844 1040 908 954 c 0,7,8
 932 921 932 921 944 881 c 128,-1,9
 956 841 956 841 958 812.5 c 128,-1,10
 960 784 960 784 960 730 c 2,11,-1
 960 0 l 1,12,-1
 832 0 l 1,13,-1
 832 730 l 2,14,15
 832 773 832 773 831 793 c 128,-1,16
 830 813 830 813 823 838 c 128,-1,17
 816 863 816 863 802 879 c 0,18,19
 766 920 766 920 704 920 c 128,-1,20
 642 920 642 920 606 879 c 0,21,22
 592 863 592 863 585 838 c 128,-1,23
 578 813 578 813 577 793 c 128,-1,24
 576 773 576 773 576 730 c 2,25,-1
 576 0 l 1,26,-1
 448 0 l 1,27,-1
 448 730 l 2,28,29
 448 773 448 773 447 793 c 128,-1,30
 446 813 446 813 439 838 c 128,-1,31
 432 863 432 863 418 879 c 0,32,33
 382 920 382 920 320 920 c 128,-1,34
 258 920 258 920 222 879 c 0,35,36
 208 863 208 863 201 838 c 128,-1,37
 194 813 194 813 193 793 c 128,-1,38
 192 773 192 773 192 730 c 2,39,-1
 192 0 l 1,40,-1
 64 0 l 1,41,-1
 64 1024 l 1,42,-1
 192 1024 l 1,43,-1
 192 949 l 1,44,-1
 202 949 l 1,45,46
 264 1040 264 1040 350 1040 c 0,0,1
EndSplineSet
Substitution2: "Single Substitution lookup 82 subtable" mm
Substitution2: "Single Substitution lookup 81 subtable" larsenwork
Position2: "Single Positioning lookup 25 subtable" dx=-128 dy=0 dh=0 dv=0
Position2: "Single Positioning lookup 24 subtable" dx=0 dy=0 dh=0 dv=0
EndChar

StartChar: n
Encoding: 110 110 81
Width: 1024
GlyphClass: 2
Flags: W
LayerCount: 3
Fore
SplineSet
532 1040 m 0,0,1
 604 1040 604 1040 664 1011 c 128,-1,2
 724 982 724 982 763 933 c 0,3,4
 788 902 788 902 803 869 c 128,-1,5
 818 836 818 836 823.5 796 c 128,-1,6
 829 756 829 756 830.5 730 c 128,-1,7
 832 704 832 704 832 657 c 2,8,-1
 832 0 l 1,9,-1
 704 0 l 1,10,-1
 704 657 l 2,11,12
 704 712 704 712 702.5 739 c 128,-1,13
 701 766 701 766 690.5 799.5 c 128,-1,14
 680 833 680 833 659 858 c 0,15,16
 605 920 605 920 512 920 c 128,-1,17
 419 920 419 920 365 858 c 0,18,19
 344 833 344 833 333.5 799.5 c 128,-1,20
 323 766 323 766 321.5 739 c 128,-1,21
 320 712 320 712 320 657 c 2,22,-1
 320 0 l 1,23,-1
 192 0 l 1,24,-1
 192 1024 l 1,25,-1
 320 1024 l 1,26,-1
 320 912 l 1,27,-1
 330 912 l 1,28,29
 367 970 367 970 421.5 1005 c 128,-1,30
 476 1040 476 1040 532 1040 c 0,0,1
EndSplineSet
Position2: "Single Positioning lookup 23 subtable" dx=-128 dy=0 dh=0 dv=0
Position2: "Single Positioning lookup 22 subtable" dx=-64 dy=0 dh=0 dv=0
Position2: "Single Positioning lookup 21 subtable" dx=0 dy=0 dh=0 dv=0
Position2: "Single Positioning lookup 14 subtable" dx=-64 dy=0 dh=0 dv=0
Position2: "Single Positioning lookup 11 subtable" dx=0 dy=0 dh=0 dv=0
Position2: "Single Positioning lookup 9 subtable" dx=-128 dy=0 dh=0 dv=0
Position2: "Single Positioning lookup 7 subtable" dx=128 dy=0 dh=0 dv=0
Position2: "Single Positioning lookup 6 subtable" dx=64 dy=0 dh=0 dv=0
Position2: "Single Positioning lookup 5 subtable" dx=0 dy=0 dh=0 dv=0
Position2: "Single Positioning lookup 2 subtable" dx=128 dy=0 dh=0 dv=0
EndChar

StartChar: o
Encoding: 111 111 82
Width: 1024
GlyphClass: 2
Flags: W
LayerCount: 3
Fore
SplineSet
512 1040 m 128,-1,1
 605 1040 605 1040 678.5 997.5 c 128,-1,2
 752 955 752 955 799 880 c 0,3,4
 838 816 838 816 851 728.5 c 128,-1,5
 864 641 864 641 864 512 c 128,-1,6
 864 383 864 383 851 295.5 c 128,-1,7
 838 208 838 208 799 144 c 0,8,9
 752 69 752 69 678.5 26.5 c 128,-1,10
 605 -16 605 -16 512 -16 c 128,-1,11
 419 -16 419 -16 345.5 26.5 c 128,-1,12
 272 69 272 69 225 144 c 0,13,14
 186 208 186 208 173 295.5 c 128,-1,15
 160 383 160 383 160 512 c 128,-1,16
 160 641 160 641 173 728.5 c 128,-1,17
 186 816 186 816 225 880 c 0,18,19
 272 955 272 955 345.5 997.5 c 128,-1,0
 419 1040 419 1040 512 1040 c 128,-1,1
512 920 m 128,-1,21
 394 920 394 920 336 822 c 0,22,23
 314 785 314 785 303 729.5 c 128,-1,24
 292 674 292 674 290 630 c 128,-1,25
 288 586 288 586 288 512 c 128,-1,26
 288 438 288 438 290 394 c 128,-1,27
 292 350 292 350 303 294.5 c 128,-1,28
 314 239 314 239 336 202 c 0,29,30
 394 104 394 104 512 104 c 128,-1,31
 630 104 630 104 688 202 c 0,32,33
 710 239 710 239 721 294.5 c 128,-1,34
 732 350 732 350 734 394 c 128,-1,35
 736 438 736 438 736 512 c 128,-1,36
 736 586 736 586 734 630 c 128,-1,37
 732 674 732 674 721 729.5 c 128,-1,38
 710 785 710 785 688 822 c 0,39,20
 630 920 630 920 512 920 c 128,-1,21
EndSplineSet
Position2: "Single Positioning lookup 23 subtable" dx=-128 dy=0 dh=0 dv=0
Position2: "Single Positioning lookup 22 subtable" dx=-64 dy=0 dh=0 dv=0
Position2: "Single Positioning lookup 21 subtable" dx=0 dy=0 dh=0 dv=0
Position2: "Single Positioning lookup 14 subtable" dx=-64 dy=0 dh=0 dv=0
Position2: "Single Positioning lookup 11 subtable" dx=0 dy=0 dh=0 dv=0
Position2: "Single Positioning lookup 9 subtable" dx=-128 dy=0 dh=0 dv=0
Position2: "Single Positioning lookup 7 subtable" dx=128 dy=0 dh=0 dv=0
Position2: "Single Positioning lookup 6 subtable" dx=64 dy=0 dh=0 dv=0
Position2: "Single Positioning lookup 5 subtable" dx=0 dy=0 dh=0 dv=0
Position2: "Single Positioning lookup 2 subtable" dx=128 dy=0 dh=0 dv=0
EndChar

StartChar: p
Encoding: 112 112 83
Width: 1024
GlyphClass: 2
Flags: W
LayerCount: 3
Fore
SplineSet
548 -16 m 0,0,1
 420 -16 420 -16 330 125 c 1,2,-1
 320 125 l 1,3,-1
 320 -384 l 1,4,-1
 192 -384 l 1,5,-1
 192 1024 l 1,6,-1
 320 1024 l 1,7,-1
 320 899 l 1,8,-1
 330 899 l 1,9,10
 420 1040 420 1040 548 1040 c 0,11,12
 647 1040 647 1040 724 977.5 c 128,-1,13
 801 915 801 915 836 803 c 0,14,15
 849 761 849 761 855.5 709 c 128,-1,16
 862 657 862 657 863 620.5 c 128,-1,17
 864 584 864 584 864 512 c 128,-1,18
 864 440 864 440 863 403.5 c 128,-1,19
 862 367 862 367 855.5 315 c 128,-1,20
 849 263 849 263 836 221 c 0,21,22
 801 109 801 109 724 46.5 c 128,-1,23
 647 -16 647 -16 548 -16 c 0,0,1
528 104 m 128,-1,25
 595 104 595 104 641.5 147.5 c 128,-1,26
 688 191 688 191 710 256 c 0,27,28
 736 335 736 335 736 512 c 128,-1,29
 736 689 736 689 710 768 c 0,30,31
 688 833 688 833 641.5 876.5 c 128,-1,32
 595 920 595 920 528 920 c 128,-1,33
 461 920 461 920 414.5 876.5 c 128,-1,34
 368 833 368 833 346 768 c 0,35,36
 320 689 320 689 320 512 c 128,-1,37
 320 335 320 335 346 256 c 0,38,39
 368 191 368 191 414.5 147.5 c 128,-1,24
 461 104 461 104 528 104 c 128,-1,25
EndSplineSet
Position2: "Single Positioning lookup 23 subtable" dx=-128 dy=0 dh=0 dv=0
Position2: "Single Positioning lookup 22 subtable" dx=-64 dy=0 dh=0 dv=0
Position2: "Single Positioning lookup 21 subtable" dx=0 dy=0 dh=0 dv=0
Position2: "Single Positioning lookup 14 subtable" dx=-64 dy=0 dh=0 dv=0
Position2: "Single Positioning lookup 11 subtable" dx=0 dy=0 dh=0 dv=0
Position2: "Single Positioning lookup 9 subtable" dx=-128 dy=0 dh=0 dv=0
Position2: "Single Positioning lookup 7 subtable" dx=128 dy=0 dh=0 dv=0
Position2: "Single Positioning lookup 6 subtable" dx=64 dy=0 dh=0 dv=0
Position2: "Single Positioning lookup 5 subtable" dx=0 dy=0 dh=0 dv=0
Position2: "Single Positioning lookup 2 subtable" dx=128 dy=0 dh=0 dv=0
EndChar

StartChar: q
Encoding: 113 113 84
Width: 1024
GlyphClass: 2
Flags: W
LayerCount: 3
Fore
SplineSet
476 -16 m 0,0,1
 377 -16 377 -16 300 46.5 c 128,-1,2
 223 109 223 109 188 221 c 0,3,4
 175 263 175 263 168.5 315 c 128,-1,5
 162 367 162 367 161 403.5 c 128,-1,6
 160 440 160 440 160 512 c 128,-1,7
 160 584 160 584 161 620.5 c 128,-1,8
 162 657 162 657 168.5 709 c 128,-1,9
 175 761 175 761 188 803 c 0,10,11
 223 915 223 915 300 977.5 c 128,-1,12
 377 1040 377 1040 476 1040 c 0,13,14
 604 1040 604 1040 694 899 c 1,15,-1
 704 899 l 1,16,-1
 704 1024 l 1,17,-1
 832 1024 l 1,18,-1
 832 -384 l 1,19,-1
 704 -384 l 1,20,-1
 704 125 l 1,21,-1
 694 125 l 1,22,23
 604 -16 604 -16 476 -16 c 0,0,1
496 104 m 128,-1,25
 563 104 563 104 609.5 147.5 c 128,-1,26
 656 191 656 191 678 256 c 0,27,28
 704 335 704 335 704 512 c 128,-1,29
 704 689 704 689 678 768 c 0,30,31
 656 833 656 833 609.5 876.5 c 128,-1,32
 563 920 563 920 496 920 c 128,-1,33
 429 920 429 920 382.5 876.5 c 128,-1,34
 336 833 336 833 314 768 c 0,35,36
 288 689 288 689 288 512 c 128,-1,37
 288 335 288 335 314 256 c 0,38,39
 336 191 336 191 382.5 147.5 c 128,-1,24
 429 104 429 104 496 104 c 128,-1,25
EndSplineSet
Position2: "Single Positioning lookup 23 subtable" dx=-128 dy=0 dh=0 dv=0
Position2: "Single Positioning lookup 22 subtable" dx=-64 dy=0 dh=0 dv=0
Position2: "Single Positioning lookup 21 subtable" dx=0 dy=0 dh=0 dv=0
Position2: "Single Positioning lookup 14 subtable" dx=-64 dy=0 dh=0 dv=0
Position2: "Single Positioning lookup 11 subtable" dx=0 dy=0 dh=0 dv=0
Position2: "Single Positioning lookup 9 subtable" dx=-128 dy=0 dh=0 dv=0
Position2: "Single Positioning lookup 7 subtable" dx=128 dy=0 dh=0 dv=0
Position2: "Single Positioning lookup 6 subtable" dx=64 dy=0 dh=0 dv=0
Position2: "Single Positioning lookup 5 subtable" dx=0 dy=0 dh=0 dv=0
Position2: "Single Positioning lookup 2 subtable" dx=128 dy=0 dh=0 dv=0
EndChar

StartChar: r
Encoding: 114 114 85
Width: 1024
GlyphClass: 2
Flags: W
LayerCount: 3
Fore
SplineSet
652 920 m 0,0,1
 516 920 516 920 437 847 c 0,2,3
 396 809 396 809 370 763 c 128,-1,4
 344 717 344 717 334 660.5 c 128,-1,5
 324 604 324 604 322 569 c 128,-1,6
 320 534 320 534 320 475 c 2,7,-1
 320 0 l 1,8,-1
 192 0 l 1,9,-1
 192 1024 l 1,10,-1
 320 1024 l 1,11,-1
 320 865 l 1,12,-1
 330 865 l 1,13,14
 392 949 392 949 467.5 994.5 c 128,-1,15
 543 1040 543 1040 652 1040 c 0,16,17
 726 1040 726 1040 832 1027 c 1,18,-1
 832 907 l 1,19,20
 726 920 726 920 652 920 c 0,0,1
EndSplineSet
Substitution2: "'ss09' Style Set 9 lookup 8 subtable" r.base
Position2: "Single Positioning lookup 23 subtable" dx=-128 dy=0 dh=0 dv=0
Position2: "Single Positioning lookup 22 subtable" dx=-64 dy=0 dh=0 dv=0
Position2: "Single Positioning lookup 21 subtable" dx=0 dy=0 dh=0 dv=0
Position2: "Single Positioning lookup 14 subtable" dx=-64 dy=0 dh=0 dv=0
Position2: "Single Positioning lookup 11 subtable" dx=0 dy=0 dh=0 dv=0
Position2: "Single Positioning lookup 9 subtable" dx=-128 dy=0 dh=0 dv=0
Position2: "Single Positioning lookup 7 subtable" dx=128 dy=0 dh=0 dv=0
Position2: "Single Positioning lookup 6 subtable" dx=64 dy=0 dh=0 dv=0
Position2: "Single Positioning lookup 5 subtable" dx=0 dy=0 dh=0 dv=0
Position2: "Single Positioning lookup 2 subtable" dx=128 dy=0 dh=0 dv=0
EndChar

StartChar: s
Encoding: 115 115 86
Width: 1024
GlyphClass: 2
Flags: W
LayerCount: 3
Fore
SplineSet
511 1040 m 0,0,1
 625 1040 625 1040 822 1019 c 1,2,-1
 822 899 l 1,3,4
 600 920 600 920 511 920 c 0,5,6
 416 920 416 920 357 881 c 128,-1,7
 298 842 298 842 298 760 c 0,8,9
 298 712 298 712 324 675 c 128,-1,10
 350 638 350 638 390 620 c 0,11,12
 435 600 435 600 539 589.5 c 128,-1,13
 643 579 643 579 695 555 c 0,14,15
 768 521 768 521 816 451 c 128,-1,16
 864 381 864 381 864 291 c 0,17,18
 864 153 864 153 763.5 68.5 c 128,-1,19
 663 -16 663 -16 512 -16 c 0,20,21
 471 -16 471 -16 425 -13.5 c 128,-1,22
 379 -11 379 -11 349.5 -8.5 c 128,-1,23
 320 -6 320 -6 266.5 -1 c 128,-1,24
 213 4 213 4 192 6 c 1,25,-1
 192 125 l 1,26,27
 425 104 425 104 512 104 c 0,28,29
 611 104 611 104 673.5 153.5 c 128,-1,30
 736 203 736 203 736 291 c 0,31,32
 736 346 736 346 709 386.5 c 128,-1,33
 682 427 682 427 639 447 c 0,34,35
 595 468 595 468 490.5 478.5 c 128,-1,36
 386 489 386 489 334 512 c 0,37,38
 264 543 264 543 217 609 c 128,-1,39
 170 675 170 675 170 760 c 0,40,41
 170 894 170 894 266.5 967 c 128,-1,42
 363 1040 363 1040 511 1040 c 0,0,1
EndSplineSet
Position2: "Single Positioning lookup 23 subtable" dx=-128 dy=0 dh=0 dv=0
Position2: "Single Positioning lookup 22 subtable" dx=-64 dy=0 dh=0 dv=0
Position2: "Single Positioning lookup 21 subtable" dx=0 dy=0 dh=0 dv=0
Position2: "Single Positioning lookup 14 subtable" dx=-64 dy=0 dh=0 dv=0
Position2: "Single Positioning lookup 11 subtable" dx=0 dy=0 dh=0 dv=0
Position2: "Single Positioning lookup 9 subtable" dx=-128 dy=0 dh=0 dv=0
Position2: "Single Positioning lookup 7 subtable" dx=128 dy=0 dh=0 dv=0
Position2: "Single Positioning lookup 6 subtable" dx=64 dy=0 dh=0 dv=0
Position2: "Single Positioning lookup 5 subtable" dx=0 dy=0 dh=0 dv=0
Position2: "Single Positioning lookup 2 subtable" dx=128 dy=0 dh=0 dv=0
EndChar

StartChar: t
Encoding: 116 116 87
Width: 1024
GlyphClass: 2
Flags: W
LayerCount: 3
Fore
SplineSet
832 -1 m 1,0,1
 725 -16 725 -16 640 -16 c 0,2,3
 560 -16 560 -16 494.5 13 c 128,-1,4
 429 42 429 42 388 92 c 0,5,6
 356 130 356 130 340 181 c 128,-1,7
 324 232 324 232 322 266 c 128,-1,8
 320 300 320 300 320 360 c 2,9,-1
 320 898 l 1,10,-1
 64 898 l 1,11,-1
 64 1024 l 1,12,-1
 320 1024 l 1,13,-1
 320 1280 l 1,14,-1
 448 1280 l 1,15,-1
 448 1024 l 1,16,-1
 832 1024 l 1,17,-1
 832 898 l 1,18,-1
 448 898 l 1,19,-1
 448 370 l 2,20,21
 448 315 448 315 449.5 288 c 128,-1,22
 451 261 451 261 461 226 c 128,-1,23
 471 191 471 191 491 166 c 0,24,25
 543 104 543 104 650 104 c 0,26,27
 721 104 721 104 832 119 c 1,28,-1
 832 -1 l 1,0,1
EndSplineSet
Position2: "Single Positioning lookup 23 subtable" dx=-128 dy=0 dh=0 dv=0
Position2: "Single Positioning lookup 22 subtable" dx=-64 dy=0 dh=0 dv=0
Position2: "Single Positioning lookup 21 subtable" dx=0 dy=0 dh=0 dv=0
Position2: "Single Positioning lookup 14 subtable" dx=-64 dy=0 dh=0 dv=0
Position2: "Single Positioning lookup 11 subtable" dx=0 dy=0 dh=0 dv=0
Position2: "Single Positioning lookup 9 subtable" dx=-128 dy=0 dh=0 dv=0
Position2: "Single Positioning lookup 7 subtable" dx=128 dy=0 dh=0 dv=0
Position2: "Single Positioning lookup 6 subtable" dx=64 dy=0 dh=0 dv=0
Position2: "Single Positioning lookup 5 subtable" dx=0 dy=0 dh=0 dv=0
Position2: "Single Positioning lookup 2 subtable" dx=128 dy=0 dh=0 dv=0
EndChar

StartChar: u
Encoding: 117 117 88
Width: 1024
GlyphClass: 2
Flags: W
LayerCount: 3
Fore
SplineSet
492 -16 m 0,0,1
 420 -16 420 -16 360 13 c 128,-1,2
 300 42 300 42 261 91 c 0,3,4
 236 122 236 122 221 155 c 128,-1,5
 206 188 206 188 200.5 228 c 128,-1,6
 195 268 195 268 193.5 294 c 128,-1,7
 192 320 192 320 192 367 c 2,8,-1
 192 1024 l 1,9,-1
 320 1024 l 1,10,-1
 320 367 l 2,11,12
 320 312 320 312 321.5 285 c 128,-1,13
 323 258 323 258 333.5 224.5 c 128,-1,14
 344 191 344 191 365 166 c 0,15,16
 419 104 419 104 512 104 c 128,-1,17
 605 104 605 104 659 166 c 0,18,19
 680 191 680 191 690.5 224.5 c 128,-1,20
 701 258 701 258 702.5 285 c 128,-1,21
 704 312 704 312 704 367 c 2,22,-1
 704 1024 l 1,23,-1
 832 1024 l 1,24,-1
 832 0 l 1,25,-1
 704 0 l 1,26,-1
 704 112 l 1,27,-1
 694 112 l 1,28,29
 657 54 657 54 602.5 19 c 128,-1,30
 548 -16 548 -16 492 -16 c 0,0,1
EndSplineSet
Position2: "Single Positioning lookup 23 subtable" dx=-128 dy=0 dh=0 dv=0
Position2: "Single Positioning lookup 22 subtable" dx=-64 dy=0 dh=0 dv=0
Position2: "Single Positioning lookup 21 subtable" dx=0 dy=0 dh=0 dv=0
Position2: "Single Positioning lookup 14 subtable" dx=-64 dy=0 dh=0 dv=0
Position2: "Single Positioning lookup 11 subtable" dx=0 dy=0 dh=0 dv=0
Position2: "Single Positioning lookup 9 subtable" dx=-128 dy=0 dh=0 dv=0
Position2: "Single Positioning lookup 7 subtable" dx=128 dy=0 dh=0 dv=0
Position2: "Single Positioning lookup 6 subtable" dx=64 dy=0 dh=0 dv=0
Position2: "Single Positioning lookup 5 subtable" dx=0 dy=0 dh=0 dv=0
Position2: "Single Positioning lookup 2 subtable" dx=128 dy=0 dh=0 dv=0
EndChar

StartChar: v
Encoding: 118 118 89
Width: 1024
GlyphClass: 2
Flags: W
LayerCount: 3
Fore
SplineSet
517 168 m 1,0,1
 653 500 653 500 753 1024 c 1,2,-1
 884 1024 l 1,3,4
 827 726 827 726 753.5 475.5 c 128,-1,5
 680 225 680 225 570 0 c 1,6,-1
 454 0 l 1,7,8
 344 225 344 225 270.5 475.5 c 128,-1,9
 197 726 197 726 140 1024 c 1,10,-1
 271 1024 l 1,11,12
 371 501 371 501 507 168 c 1,13,-1
 517 168 l 1,0,1
EndSplineSet
Position2: "Single Positioning lookup 23 subtable" dx=-128 dy=0 dh=0 dv=0
Position2: "Single Positioning lookup 22 subtable" dx=-64 dy=0 dh=0 dv=0
Position2: "Single Positioning lookup 21 subtable" dx=0 dy=0 dh=0 dv=0
Position2: "Single Positioning lookup 14 subtable" dx=-64 dy=0 dh=0 dv=0
Position2: "Single Positioning lookup 11 subtable" dx=0 dy=0 dh=0 dv=0
Position2: "Single Positioning lookup 9 subtable" dx=-128 dy=0 dh=0 dv=0
Position2: "Single Positioning lookup 7 subtable" dx=128 dy=0 dh=0 dv=0
Position2: "Single Positioning lookup 6 subtable" dx=64 dy=0 dh=0 dv=0
Position2: "Single Positioning lookup 5 subtable" dx=0 dy=0 dh=0 dv=0
Position2: "Single Positioning lookup 2 subtable" dx=128 dy=0 dh=0 dv=0
EndChar

StartChar: w
Encoding: 119 119 90
Width: 1024
GlyphClass: 2
Flags: W
LayerCount: 3
Fore
SplineSet
450 767 m 1,0,-1
 574 767 l 1,1,-1
 738 140 l 1,2,-1
 748 140 l 1,3,4
 851 536 851 536 851 1024 c 1,5,-1
 979 1024 l 1,6,7
 979 510 979 510 830 0 c 1,8,-1
 676 0 l 1,9,-1
 517 587 l 1,10,-1
 507 587 l 1,11,-1
 348 0 l 1,12,-1
 194 0 l 1,13,14
 45 510 45 510 45 1024 c 1,15,-1
 173 1024 l 1,16,17
 173 536 173 536 276 140 c 1,18,-1
 286 140 l 1,19,-1
 450 767 l 1,0,-1
EndSplineSet
Substitution2: "'ss10' Style Set 10 lookup 9 subtable" w.straight
Position2: "Single Positioning lookup 25 subtable" dx=-128 dy=0 dh=0 dv=0
Position2: "Single Positioning lookup 24 subtable" dx=0 dy=0 dh=0 dv=0
EndChar

StartChar: x
Encoding: 120 120 91
Width: 1024
GlyphClass: 2
Flags: W
LayerCount: 3
Fore
SplineSet
507 644 m 1,0,-1
 517 644 l 1,1,-1
 740 1024 l 1,2,-1
 907 1024 l 1,3,-1
 586 551 l 1,4,-1
 586 541 l 1,5,-1
 929 0 l 1,6,-1
 761 0 l 1,7,-1
 517 448 l 1,8,-1
 507 448 l 1,9,-1
 263 0 l 1,10,-1
 95 0 l 1,11,-1
 438 541 l 1,12,-1
 438 551 l 1,13,-1
 117 1024 l 1,14,-1
 284 1024 l 1,15,-1
 507 644 l 1,0,-1
EndSplineSet
Position2: "Single Positioning lookup 23 subtable" dx=-128 dy=0 dh=0 dv=0
Position2: "Single Positioning lookup 22 subtable" dx=-64 dy=0 dh=0 dv=0
Position2: "Single Positioning lookup 21 subtable" dx=0 dy=0 dh=0 dv=0
Position2: "Single Positioning lookup 14 subtable" dx=-64 dy=0 dh=0 dv=0
Position2: "Single Positioning lookup 11 subtable" dx=0 dy=0 dh=0 dv=0
Position2: "Single Positioning lookup 9 subtable" dx=-128 dy=0 dh=0 dv=0
Position2: "Single Positioning lookup 7 subtable" dx=128 dy=0 dh=0 dv=0
Position2: "Single Positioning lookup 6 subtable" dx=64 dy=0 dh=0 dv=0
Position2: "Single Positioning lookup 5 subtable" dx=0 dy=0 dh=0 dv=0
Position2: "Single Positioning lookup 2 subtable" dx=128 dy=0 dh=0 dv=0
EndChar

StartChar: y
Encoding: 121 121 92
Width: 1024
GlyphClass: 2
Flags: W
LayerCount: 3
Fore
SplineSet
541 240 m 1,0,1
 636 532 636 532 754 1024 c 1,2,-1
 885 1024 l 1,3,4
 880 1005 880 1005 861.5 929.5 c 128,-1,5
 843 854 843 854 838 832.5 c 128,-1,6
 833 811 833 811 816 743.5 c 128,-1,7
 799 676 799 676 791.5 648.5 c 128,-1,8
 784 621 784 621 768 559.5 c 128,-1,9
 752 498 752 498 741.5 463 c 128,-1,10
 731 428 731 428 714 370 c 128,-1,11
 697 312 697 312 682.5 267 c 128,-1,12
 668 222 668 222 649.5 166 c 128,-1,13
 631 110 631 110 612 55 c 0,14,15
 588 -13 588 -13 574.5 -47.5 c 128,-1,16
 561 -82 561 -82 536 -126 c 128,-1,17
 511 -170 511 -170 482 -193 c 0,18,19
 388 -272 388 -272 192 -272 c 1,20,-1
 192 -152 l 1,21,22
 335 -152 335 -152 388 -111 c 0,23,24
 411 -94 411 -94 430.5 -59 c 128,-1,25
 450 -24 450 -24 461.5 6 c 128,-1,26
 473 36 473 36 505 128 c 1,27,-1
 453 128 l 1,28,29
 345 324 345 324 272.5 542 c 128,-1,30
 200 760 200 760 140 1024 c 1,31,-1
 271 1024 l 1,32,33
 375 546 375 546 531 240 c 1,34,-1
 541 240 l 1,0,1
EndSplineSet
Substitution2: "'ss11' Style Set 11 lookup 10 subtable" y.long
Position2: "Single Positioning lookup 23 subtable" dx=-128 dy=0 dh=0 dv=0
Position2: "Single Positioning lookup 22 subtable" dx=-64 dy=0 dh=0 dv=0
Position2: "Single Positioning lookup 21 subtable" dx=0 dy=0 dh=0 dv=0
Position2: "Single Positioning lookup 14 subtable" dx=-64 dy=0 dh=0 dv=0
Position2: "Single Positioning lookup 11 subtable" dx=0 dy=0 dh=0 dv=0
Position2: "Single Positioning lookup 9 subtable" dx=-128 dy=0 dh=0 dv=0
Position2: "Single Positioning lookup 7 subtable" dx=128 dy=0 dh=0 dv=0
Position2: "Single Positioning lookup 6 subtable" dx=64 dy=0 dh=0 dv=0
Position2: "Single Positioning lookup 5 subtable" dx=0 dy=0 dh=0 dv=0
Position2: "Single Positioning lookup 2 subtable" dx=128 dy=0 dh=0 dv=0
EndChar

StartChar: z
Encoding: 122 122 93
Width: 1024
GlyphClass: 2
Flags: W
LayerCount: 3
Fore
SplineSet
814 464 m 1,5,-1
 814 464 l 1,1,-1
 212 464 l 1,2,-1
 212 584 l 1,3,-1
 812 584 l 1,4,-1
 814 464 l 1,5,-1
212 904 m 1,6,-1
 212 1024 l 1,7,-1
 812 1024 l 1,8,-1
 812 934 l 1,9,-1
 337 130 l 1,10,-1
 337 120 l 1,11,-1
 832 120 l 1,12,-1
 832 0 l 1,13,-1
 192 0 l 1,14,-1
 192 92 l 1,15,-1
 667 894 l 1,16,-1
 667 904 l 1,17,-1
 212 904 l 1,6,-1
EndSplineSet
Position2: "Single Positioning lookup 23 subtable" dx=-128 dy=0 dh=0 dv=0
Position2: "Single Positioning lookup 22 subtable" dx=-64 dy=0 dh=0 dv=0
Position2: "Single Positioning lookup 21 subtable" dx=0 dy=0 dh=0 dv=0
Position2: "Single Positioning lookup 14 subtable" dx=-64 dy=0 dh=0 dv=0
Position2: "Single Positioning lookup 11 subtable" dx=0 dy=0 dh=0 dv=0
Position2: "Single Positioning lookup 9 subtable" dx=-128 dy=0 dh=0 dv=0
Position2: "Single Positioning lookup 7 subtable" dx=128 dy=0 dh=0 dv=0
Position2: "Single Positioning lookup 6 subtable" dx=64 dy=0 dh=0 dv=0
Position2: "Single Positioning lookup 5 subtable" dx=0 dy=0 dh=0 dv=0
Position2: "Single Positioning lookup 2 subtable" dx=128 dy=0 dh=0 dv=0
EndChar

StartChar: braceleft
Encoding: 123 123 94
Width: 1024
GlyphClass: 2
Flags: W
LayerCount: 3
Fore
SplineSet
417 698 m 1,0,1
 504 665 504 665 540 606 c 128,-1,2
 576 547 576 547 576 436 c 2,3,-1
 576 183 l 2,4,5
 576 69 576 69 640 22.5 c 128,-1,6
 704 -24 704 -24 832 -24 c 1,7,-1
 832 -144 l 1,8,9
 653 -144 653 -144 550.5 -64 c 128,-1,10
 448 16 448 16 448 183 c 2,11,-1
 448 436 l 2,12,13
 448 550 448 550 384 596.5 c 128,-1,14
 320 643 320 643 192 643 c 1,15,-1
 192 763 l 1,16,17
 319 763 319 763 383.5 809.5 c 128,-1,18
 448 856 448 856 448 970 c 2,19,-1
 448 1223 l 2,20,21
 448 1390 448 1390 550.5 1470 c 128,-1,22
 653 1550 653 1550 832 1550 c 1,23,-1
 832 1430 l 1,24,25
 705 1430 705 1430 640.5 1383.5 c 128,-1,26
 576 1337 576 1337 576 1223 c 2,27,-1
 576 970 l 2,28,29
 576 859 576 859 540 800 c 128,-1,30
 504 741 504 741 417 708 c 1,31,-1
 417 698 l 1,0,1
EndSplineSet
EndChar

StartChar: bar
Encoding: 124 124 95
Width: 1024
GlyphClass: 2
Flags: W
LayerCount: 3
Fore
SplineSet
576 1536 m 1,0,-1
 576 -256 l 1,1,-1
 448 -256 l 1,2,-1
 448 1536 l 1,3,-1
 576 1536 l 1,0,-1
EndSplineSet
Substitution2: "Single Substitution lookup 88 subtable" bar2
Substitution2: "Single Substitution lookup 87 subtable" bar1
EndChar

StartChar: braceright
Encoding: 125 125 96
Width: 1024
GlyphClass: 2
Flags: W
LayerCount: 3
Fore
SplineSet
607 698 m 1,0,-1
 607 708 l 1,1,2
 520 741 520 741 484 800 c 128,-1,3
 448 859 448 859 448 970 c 2,4,-1
 448 1223 l 2,5,6
 448 1337 448 1337 383.5 1383.5 c 128,-1,7
 319 1430 319 1430 192 1430 c 1,8,-1
 192 1550 l 1,9,10
 371 1550 371 1550 473.5 1470 c 128,-1,11
 576 1390 576 1390 576 1223 c 2,12,-1
 576 970 l 2,13,14
 576 856 576 856 640.5 809.5 c 128,-1,15
 705 763 705 763 832 763 c 1,16,-1
 832 643 l 1,17,18
 704 643 704 643 640 596.5 c 128,-1,19
 576 550 576 550 576 436 c 2,20,-1
 576 183 l 2,21,22
 576 16 576 16 473.5 -64 c 128,-1,23
 371 -144 371 -144 192 -144 c 1,24,-1
 192 -24 l 1,25,26
 320 -24 320 -24 384 22.5 c 128,-1,27
 448 69 448 69 448 183 c 2,28,-1
 448 436 l 2,29,30
 448 547 448 547 484 606 c 128,-1,31
 520 665 520 665 607 698 c 1,0,-1
EndSplineSet
EndChar

StartChar: tilde
Encoding: 126 126 97
Width: 1024
GlyphClass: 2
Flags: W
LayerCount: 3
Fore
SplineSet
192 384 m 1,0,-1
 64 384 l 1,1,2
 64 455 64 455 69.5 509 c 128,-1,3
 75 563 75 563 90.5 614.5 c 128,-1,4
 106 666 106 666 133 699 c 128,-1,5
 160 732 160 732 205 752 c 128,-1,6
 250 772 250 772 311 772 c 0,7,8
 374 772 374 772 425.5 744 c 128,-1,9
 477 716 477 716 511 676 c 128,-1,10
 545 636 545 636 575 596 c 128,-1,11
 605 556 605 556 640 528 c 128,-1,12
 675 500 675 500 713 500 c 0,13,14
 741 500 741 500 761 507 c 128,-1,15
 781 514 781 514 794 532 c 128,-1,16
 807 550 807 550 815 569 c 128,-1,17
 823 588 823 588 826.5 623 c 128,-1,18
 830 658 830 658 831 688 c 128,-1,19
 832 718 832 718 832 768 c 1,20,-1
 960 768 l 1,21,22
 960 697 960 697 954.5 643 c 128,-1,23
 949 589 949 589 933.5 537.5 c 128,-1,24
 918 486 918 486 891 453 c 128,-1,25
 864 420 864 420 819 400 c 128,-1,26
 774 380 774 380 713 380 c 0,27,28
 650 380 650 380 598.5 408 c 128,-1,29
 547 436 547 436 513 476 c 128,-1,30
 479 516 479 516 449 556 c 128,-1,31
 419 596 419 596 384 624 c 128,-1,32
 349 652 349 652 311 652 c 0,33,34
 283 652 283 652 263 645 c 128,-1,35
 243 638 243 638 230 620 c 128,-1,36
 217 602 217 602 209 583 c 128,-1,37
 201 564 201 564 197.5 529 c 128,-1,38
 194 494 194 494 193 464 c 128,-1,39
 192 434 192 434 192 384 c 1,0,-1
EndSplineSet
EndChar

StartChar: exclamdown
Encoding: 161 161 99
Width: 1024
GlyphClass: 2
Flags: W
LayerCount: 3
Fore
SplineSet
512 1168 m 128,-1,1
 576 1168 576 1168 616 1128 c 128,-1,2
 656 1088 656 1088 656 1024 c 128,-1,3
 656 960 656 960 616 920 c 128,-1,4
 576 880 576 880 512 880 c 128,-1,5
 448 880 448 880 408 920 c 128,-1,6
 368 960 368 960 368 1024 c 128,-1,7
 368 1088 368 1088 408 1128 c 128,-1,0
 448 1168 448 1168 512 1168 c 128,-1,1
576 640 m 1,8,-1
 586 -256 l 1,9,-1
 438 -256 l 1,10,-1
 448 640 l 1,11,-1
 576 640 l 1,8,-1
EndSplineSet
EndChar

StartChar: cent
Encoding: 162 162 100
Width: 1024
GlyphClass: 2
Flags: W
LayerCount: 3
Fore
SplineSet
160 512 m 0,0,1
 160 619 160 619 167.5 690.5 c 128,-1,2
 175 762 175 762 200 824 c 0,3,4
 232 903 232 903 295 959 c 128,-1,5
 358 1015 358 1015 448 1031 c 1,6,-1
 448 1280 l 1,7,-1
 576 1280 l 1,8,-1
 576 1040 l 1,9,10
 692 1037 692 1037 812 1018 c 1,11,-1
 812 898 l 1,12,13
 666 920 666 920 528 920 c 0,14,15
 383 920 383 920 320 778 c 0,16,17
 305 745 305 745 297.5 696 c 128,-1,18
 290 647 290 647 289 612 c 128,-1,19
 288 577 288 577 288 512 c 0,20,21
 288 444 288 444 289 407.5 c 128,-1,22
 290 371 290 371 298.5 320 c 128,-1,23
 307 269 307 269 323 235 c 0,24,25
 385 104 385 104 532 104 c 0,26,27
 665 104 665 104 832 130 c 1,28,-1
 832 9 l 1,29,30
 691 -12 691 -12 576 -16 c 1,31,-1
 576 -256 l 1,32,-1
 448 -256 l 1,33,-1
 448 -7 l 1,34,35
 360 9 360 9 298.5 62.5 c 128,-1,36
 237 116 237 116 203 193 c 0,37,38
 175 256 175 256 167.5 328 c 128,-1,39
 160 400 160 400 160 512 c 0,0,1
EndSplineSet
EndChar

StartChar: sterling
Encoding: 163 163 101
Width: 1024
GlyphClass: 2
Flags: W
LayerCount: 3
Fore
SplineSet
192 120 m 1,0,-1
 192 648 l 1,1,-1
 64 648 l 1,2,-1
 64 768 l 1,3,-1
 192 768 l 1,4,-1
 192 896 l 2,5,6
 192 1008 192 1008 199 1080 c 128,-1,7
 206 1152 206 1152 232 1215 c 0,8,9
 270 1308 270 1308 352 1366 c 128,-1,10
 434 1424 434 1424 554 1424 c 0,11,12
 649 1424 649 1424 802 1409 c 1,13,-1
 802 1289 l 1,14,15
 647 1304 647 1304 554 1304 c 0,16,17
 409 1304 409 1304 352 1173 c 0,18,19
 337 1139 337 1139 329.5 1088 c 128,-1,20
 322 1037 322 1037 321 1000.5 c 128,-1,21
 320 964 320 964 320 896 c 2,22,-1
 320 768 l 1,23,-1
 704 768 l 1,24,-1
 704 648 l 1,25,-1
 320 648 l 1,26,-1
 320 120 l 1,27,-1
 832 120 l 1,28,-1
 832 0 l 1,29,-1
 64 0 l 1,30,-1
 64 120 l 1,31,-1
 192 120 l 1,0,-1
EndSplineSet
EndChar

StartChar: currency
Encoding: 164 164 102
Width: 1024
GlyphClass: 2
Flags: W
LayerCount: 3
Fore
SplineSet
512 788 m 128,-1,1
 419 788 419 788 361.5 731 c 128,-1,2
 304 674 304 674 304 576 c 128,-1,3
 304 478 304 478 361.5 421 c 128,-1,4
 419 364 419 364 512 364 c 128,-1,5
 605 364 605 364 662.5 421 c 128,-1,6
 720 478 720 478 720 576 c 128,-1,7
 720 674 720 674 662.5 731 c 128,-1,0
 605 788 605 788 512 788 c 128,-1,1
92 908 m 1,8,-1
 180 996 l 1,9,-1
 321 854 l 1,10,11
 405 908 405 908 512 908 c 128,-1,12
 619 908 619 908 703 854 c 1,13,-1
 844 996 l 1,14,-1
 932 908 l 1,15,-1
 791 768 l 1,16,17
 848 684 848 684 848 576 c 128,-1,18
 848 468 848 468 791 384 c 1,19,-1
 932 244 l 1,20,-1
 844 156 l 1,21,-1
 703 298 l 1,22,23
 619 244 619 244 512 244 c 128,-1,24
 405 244 405 244 321 298 c 1,25,-1
 180 156 l 1,26,-1
 92 244 l 1,27,-1
 233 384 l 1,28,29
 176 468 176 468 176 576 c 128,-1,30
 176 684 176 684 233 768 c 1,31,-1
 92 908 l 1,8,-1
EndSplineSet
EndChar

StartChar: yen
Encoding: 165 165 103
Width: 1024
GlyphClass: 2
Flags: W
LayerCount: 3
Fore
SplineSet
49 1408 m 1,0,-1
 174 1408 l 1,1,2
 279 982 279 982 497 740 c 1,3,-1
 527 740 l 1,4,5
 745 982 745 982 850 1408 c 1,6,-1
 975 1408 l 1,7,8
 891 1035 891 1035 692 768 c 1,9,-1
 832 768 l 1,10,-1
 832 648 l 1,11,-1
 593 648 l 1,12,-1
 576 630 l 1,13,-1
 576 504 l 1,14,-1
 832 504 l 1,15,-1
 832 384 l 1,16,-1
 576 384 l 1,17,-1
 576 0 l 1,18,-1
 448 0 l 1,19,-1
 448 384 l 1,20,-1
 192 384 l 1,21,-1
 192 504 l 1,22,-1
 448 504 l 1,23,-1
 448 630 l 1,24,-1
 431 648 l 1,25,-1
 192 648 l 1,26,-1
 192 768 l 1,27,-1
 332 768 l 1,28,29
 133 1035 133 1035 49 1408 c 1,0,-1
EndSplineSet
EndChar

StartChar: brokenbar
Encoding: 166 166 104
Width: 1024
GlyphClass: 2
Flags: W
LayerCount: 3
Fore
SplineSet
576 384 m 1,0,-1
 576 -128 l 1,1,-1
 448 -128 l 1,2,-1
 448 384 l 1,3,-1
 576 384 l 1,0,-1
576 1536 m 1,4,-1
 576 1024 l 1,5,-1
 448 1024 l 1,6,-1
 448 1536 l 1,7,-1
 576 1536 l 1,4,-1
EndSplineSet
EndChar

StartChar: section
Encoding: 167 167 105
Width: 1024
GlyphClass: 2
Flags: W
LayerCount: 3
Fore
SplineSet
520 368 m 0,0,1
 584 368 584 368 631 389 c 128,-1,2
 678 410 678 410 701 443.5 c 128,-1,3
 724 477 724 477 734.5 510.5 c 128,-1,4
 745 544 745 544 745 578 c 0,5,6
 745 680 745 680 678.5 730 c 128,-1,7
 612 780 612 780 501 780 c 0,8,9
 438 780 438 780 391.5 759.5 c 128,-1,10
 345 739 345 739 322 705.5 c 128,-1,11
 299 672 299 672 289 639 c 128,-1,12
 279 606 279 606 279 571 c 0,13,14
 279 501 279 501 314.5 453.5 c 128,-1,15
 350 406 350 406 402.5 387 c 128,-1,16
 455 368 455 368 520 368 c 0,0,1
319 289 m 0,17,18
 242 330 242 330 196.5 404 c 128,-1,19
 151 478 151 478 151 571 c 0,20,21
 151 653 151 653 194 725.5 c 128,-1,22
 237 798 237 798 318 843 c 1,23,24
 248 887 248 887 208.5 953.5 c 128,-1,25
 169 1020 169 1020 169 1101 c 0,26,27
 169 1163 169 1163 192 1219.5 c 128,-1,28
 215 1276 215 1276 258 1322 c 128,-1,29
 301 1368 301 1368 371.5 1395 c 128,-1,30
 442 1422 442 1422 530 1422 c 0,31,32
 635 1422 635 1422 792 1394 c 1,33,-1
 792 1271 l 1,34,35
 637 1302 637 1302 530 1302 c 0,36,37
 476 1302 476 1302 434 1288.5 c 128,-1,38
 392 1275 392 1275 366.5 1254 c 128,-1,39
 341 1233 341 1233 325 1205.5 c 128,-1,40
 309 1178 309 1178 303 1152.5 c 128,-1,41
 297 1127 297 1127 297 1101 c 0,42,43
 297 999 297 999 381 936 c 0,44,45
 417 910 417 910 473.5 903.5 c 128,-1,46
 530 897 530 897 594.5 890.5 c 128,-1,47
 659 884 659 884 707 859 c 0,48,49
 781 820 781 820 827 746.5 c 128,-1,50
 873 673 873 673 873 578 c 0,51,52
 873 496 873 496 830 423 c 128,-1,53
 787 350 787 350 706 306 c 1,54,55
 774 264 774 264 814.5 197 c 128,-1,56
 855 130 855 130 855 47 c 0,57,58
 855 -15 855 -15 832 -71 c 128,-1,59
 809 -127 809 -127 766 -172.5 c 128,-1,60
 723 -218 723 -218 652.5 -245 c 128,-1,61
 582 -272 582 -272 494 -272 c 0,62,63
 378 -272 378 -272 192 -233 c 1,64,-1
 192 -110 l 1,65,66
 373 -152 373 -152 494 -152 c 0,67,68
 548 -152 548 -152 590 -138.5 c 128,-1,69
 632 -125 632 -125 657.5 -104.5 c 128,-1,70
 683 -84 683 -84 699 -56.5 c 128,-1,71
 715 -29 715 -29 721 -4 c 128,-1,72
 727 21 727 21 727 47 c 0,73,74
 727 108 727 108 699.5 154 c 128,-1,75
 672 200 672 200 627 223 c 0,76,77
 585 244 585 244 479.5 252 c 128,-1,78
 374 260 374 260 319 289 c 0,17,18
EndSplineSet
EndChar

StartChar: dieresis
Encoding: 168 168 106
Width: 1024
GlyphClass: 2
Flags: W
LayerCount: 3
Fore
SplineSet
736 1360 m 128,-1,1
 786 1360 786 1360 817 1329 c 128,-1,2
 848 1298 848 1298 848 1248 c 128,-1,3
 848 1198 848 1198 817 1167 c 128,-1,4
 786 1136 786 1136 736 1136 c 128,-1,5
 686 1136 686 1136 655 1167 c 128,-1,6
 624 1198 624 1198 624 1248 c 128,-1,7
 624 1298 624 1298 655 1329 c 128,-1,0
 686 1360 686 1360 736 1360 c 128,-1,1
288 1360 m 128,-1,9
 338 1360 338 1360 369 1329 c 128,-1,10
 400 1298 400 1298 400 1248 c 128,-1,11
 400 1198 400 1198 369 1167 c 128,-1,12
 338 1136 338 1136 288 1136 c 128,-1,13
 238 1136 238 1136 207 1167 c 128,-1,14
 176 1198 176 1198 176 1248 c 128,-1,15
 176 1298 176 1298 207 1329 c 128,-1,8
 238 1360 238 1360 288 1360 c 128,-1,9
EndSplineSet
EndChar

StartChar: copyright
Encoding: 169 169 107
Width: 1024
GlyphClass: 2
Flags: W
LayerCount: 3
Fore
SplineSet
684 390 m 1,0,1
 600 374 600 374 531 374 c 0,2,3
 404 374 404 374 346 436 c 0,4,5
 319 465 319 465 305.5 513 c 128,-1,6
 292 561 292 561 290 598 c 128,-1,7
 288 635 288 635 288 708 c 0,8,9
 288 853 288 853 311 912 c 0,10,11
 359 1034 359 1034 532 1034 c 0,12,13
 600 1034 600 1034 684 1015 c 1,14,-1
 684 895 l 1,15,16
 602 914 602 914 530 914 c 0,17,18
 487 914 487 914 464.5 905 c 128,-1,19
 442 896 442 896 431 871 c 0,20,21
 416 837 416 837 416 708 c 0,22,23
 416 616 416 616 420.5 574.5 c 128,-1,24
 425 533 425 533 442 515 c 0,25,26
 451 505 451 505 466 500 c 128,-1,27
 481 495 481 495 493.5 494.5 c 128,-1,28
 506 494 506 494 531 494 c 0,29,30
 602 494 602 494 684 510 c 1,31,-1
 684 390 l 1,0,1
512 1213 m 0,32,33
 385 1213 385 1213 300 1149.5 c 128,-1,34
 215 1086 215 1086 176 980 c 0,35,36
 136 870 136 870 136 704 c 128,-1,37
 136 538 136 538 176 428 c 0,38,39
 215 321 215 321 299.5 258 c 128,-1,40
 384 195 384 195 512 195 c 0,41,42
 639 195 639 195 724 258.5 c 128,-1,43
 809 322 809 322 848 428 c 0,44,45
 888 538 888 538 888 704 c 128,-1,46
 888 870 888 870 848 980 c 0,47,48
 809 1087 809 1087 724.5 1150 c 128,-1,49
 640 1213 640 1213 512 1213 c 0,32,33
512 1295 m 128,-1,51
 668 1295 668 1295 776.5 1215.5 c 128,-1,52
 885 1136 885 1136 932 1006 c 0,53,54
 976 886 976 886 976 704 c 128,-1,55
 976 522 976 522 932 402 c 0,56,57
 885 272 885 272 776.5 192.5 c 128,-1,58
 668 113 668 113 512 113 c 128,-1,59
 356 113 356 113 247.5 192.5 c 128,-1,60
 139 272 139 272 92 402 c 0,61,62
 48 522 48 522 48 704 c 128,-1,63
 48 886 48 886 92 1006 c 0,64,65
 139 1136 139 1136 247.5 1215.5 c 128,-1,50
 356 1295 356 1295 512 1295 c 128,-1,51
EndSplineSet
EndChar

StartChar: ordfeminine
Encoding: 170 170 108
Width: 1024
GlyphClass: 2
Flags: W
LayerCount: 3
Fore
SplineSet
576 1106 m 2,0,-1
 576 1152 l 1,1,-1
 460 1152 l 2,2,3
 407 1152 407 1152 384 1143 c 0,4,5
 350 1130 350 1130 329 1094.5 c 128,-1,6
 308 1059 308 1059 308 1012 c 0,7,8
 308 954 308 954 340 913 c 128,-1,9
 372 872 372 872 425 872 c 0,10,11
 469 872 469 872 502 893.5 c 128,-1,12
 535 915 535 915 553 950 c 0,13,14
 576 996 576 996 576 1106 c 2,0,-1
566 835 m 1,15,16
 529 793 529 793 492 772.5 c 128,-1,17
 455 752 455 752 403 752 c 0,18,19
 309 752 309 752 244.5 829 c 128,-1,20
 180 906 180 906 180 1012 c 0,21,22
 180 1096 180 1096 224 1162 c 128,-1,23
 268 1228 268 1228 337 1254 c 0,24,25
 385 1272 385 1272 460 1272 c 2,26,-1
 576 1272 l 1,27,28
 576 1339 576 1339 570 1361 c 0,29,30
 559 1399 559 1399 529.5 1415.5 c 128,-1,31
 500 1432 500 1432 441 1432 c 0,32,33
 407 1432 407 1432 217 1419 c 1,34,-1
 217 1540 l 1,35,36
 395 1552 395 1552 441 1552 c 0,37,38
 646 1552 646 1552 693 1392 c 0,39,40
 704 1354 704 1354 704 1290 c 2,41,-1
 704 768 l 1,42,-1
 576 768 l 1,43,-1
 576 835 l 1,44,-1
 566 835 l 1,15,16
EndSplineSet
EndChar

StartChar: guillemotleft
Encoding: 171 171 109
Width: 1024
GlyphClass: 2
Flags: W
LayerCount: 3
Fore
SplineSet
189 581 m 1,0,-1
 189 571 l 1,1,-1
 489 181 l 1,2,-1
 385 113 l 1,3,-1
 64 542 l 1,4,-1
 64 610 l 1,5,-1
 385 1039 l 1,6,-1
 489 971 l 1,7,-1
 189 581 l 1,0,-1
573 581 m 1,8,-1
 573 571 l 1,9,-1
 873 181 l 1,10,-1
 769 113 l 1,11,-1
 448 542 l 1,12,-1
 448 610 l 1,13,-1
 769 1039 l 1,14,-1
 873 971 l 1,15,-1
 573 581 l 1,8,-1
EndSplineSet
EndChar

StartChar: logicalnot
Encoding: 172 172 110
Width: 1024
GlyphClass: 2
Flags: W
LayerCount: 3
Fore
SplineSet
960 764 m 1,0,-1
 960 384 l 1,1,-1
 832 384 l 1,2,-1
 832 644 l 1,3,-1
 64 644 l 1,4,-1
 64 764 l 1,5,-1
 960 764 l 1,0,-1
EndSplineSet
EndChar

StartChar: uni00AD
Encoding: 173 173 111
Width: 1024
GlyphClass: 2
Flags: W
LayerCount: 3
Fore
SplineSet
64 636 m 1,0,-1
 960 636 l 1,1,-1
 960 516 l 1,2,-1
 64 516 l 1,3,-1
 64 636 l 1,0,-1
EndSplineSet
EndChar

StartChar: registered
Encoding: 174 174 112
Width: 1024
GlyphClass: 2
Flags: W
LayerCount: 3
Fore
SplineSet
592 832 m 128,-1,1
 592 871 592 871 579.5 887.5 c 128,-1,2
 567 904 567 904 531 904 c 2,3,-1
 448 904 l 1,4,-1
 448 760 l 1,5,-1
 531 760 l 2,6,7
 567 760 567 760 579.5 776.5 c 128,-1,0
 592 793 592 793 592 832 c 128,-1,1
720 832 m 0,8,9
 720 723 720 723 648 671 c 1,10,-1
 745 384 l 1,11,-1
 610 384 l 1,12,-1
 534 640 l 1,13,-1
 448 640 l 1,14,-1
 448 384 l 1,15,-1
 320 384 l 1,16,-1
 320 1024 l 1,17,-1
 531 1024 l 2,18,19
 620 1024 620 1024 670 973 c 128,-1,20
 720 922 720 922 720 832 c 0,8,9
512 1213 m 0,21,22
 385 1213 385 1213 300 1149.5 c 128,-1,23
 215 1086 215 1086 176 980 c 0,24,25
 136 870 136 870 136 704 c 128,-1,26
 136 538 136 538 176 428 c 0,27,28
 215 321 215 321 299.5 258 c 128,-1,29
 384 195 384 195 512 195 c 0,30,31
 639 195 639 195 724 258.5 c 128,-1,32
 809 322 809 322 848 428 c 0,33,34
 888 538 888 538 888 704 c 128,-1,35
 888 870 888 870 848 980 c 0,36,37
 809 1087 809 1087 724.5 1150 c 128,-1,38
 640 1213 640 1213 512 1213 c 0,21,22
512 1295 m 128,-1,40
 668 1295 668 1295 776.5 1215.5 c 128,-1,41
 885 1136 885 1136 932 1006 c 0,42,43
 976 886 976 886 976 704 c 128,-1,44
 976 522 976 522 932 402 c 0,45,46
 885 272 885 272 776.5 192.5 c 128,-1,47
 668 113 668 113 512 113 c 128,-1,48
 356 113 356 113 247.5 192.5 c 128,-1,49
 139 272 139 272 92 402 c 0,50,51
 48 522 48 522 48 704 c 128,-1,52
 48 886 48 886 92 1006 c 0,53,54
 139 1136 139 1136 247.5 1215.5 c 128,-1,39
 356 1295 356 1295 512 1295 c 128,-1,40
EndSplineSet
EndChar

StartChar: macron
Encoding: 175 175 113
Width: 1024
GlyphClass: 2
Flags: W
LayerCount: 3
Fore
SplineSet
192 1276 m 1,0,-1
 832 1276 l 1,1,-1
 832 1156 l 1,2,-1
 192 1156 l 1,3,-1
 192 1276 l 1,0,-1
EndSplineSet
EndChar

StartChar: degree
Encoding: 176 176 114
Width: 1024
GlyphClass: 2
Flags: W
LayerCount: 3
Fore
SplineSet
512 1524 m 128,-1,1
 612 1524 612 1524 676 1458.5 c 128,-1,2
 740 1393 740 1393 740 1296 c 128,-1,3
 740 1199 740 1199 676 1133.5 c 128,-1,4
 612 1068 612 1068 512 1068 c 128,-1,5
 412 1068 412 1068 348 1133.5 c 128,-1,6
 284 1199 284 1199 284 1296 c 128,-1,7
 284 1393 284 1393 348 1458.5 c 128,-1,0
 412 1524 412 1524 512 1524 c 128,-1,1
512 1424 m 128,-1,9
 458 1424 458 1424 425 1390.5 c 128,-1,10
 392 1357 392 1357 392 1296 c 128,-1,11
 392 1235 392 1235 425 1201.5 c 128,-1,12
 458 1168 458 1168 512 1168 c 128,-1,13
 566 1168 566 1168 599 1201.5 c 128,-1,14
 632 1235 632 1235 632 1296 c 128,-1,15
 632 1357 632 1357 599 1390.5 c 128,-1,8
 566 1424 566 1424 512 1424 c 128,-1,9
EndSplineSet
EndChar

StartChar: plusminus
Encoding: 177 177 115
Width: 1024
GlyphClass: 2
Flags: W
LayerCount: 3
Fore
SplineSet
576 892 m 1,0,-1
 960 892 l 1,1,-1
 960 772 l 1,2,-1
 576 772 l 1,3,-1
 576 512 l 1,4,-1
 448 512 l 1,5,-1
 448 772 l 1,6,-1
 64 772 l 1,7,-1
 64 892 l 1,8,-1
 448 892 l 1,9,-1
 448 1152 l 1,10,-1
 576 1152 l 1,11,-1
 576 892 l 1,0,-1
64 380 m 1,12,-1
 960 380 l 1,13,-1
 960 260 l 1,14,-1
 64 260 l 1,15,-1
 64 380 l 1,12,-1
EndSplineSet
EndChar

StartChar: uni00B2
Encoding: 178 178 116
Width: 1024
GlyphClass: 2
Flags: W
LayerCount: 3
Fore
SplineSet
192 1525 m 1,0,1
 323 1552 323 1552 435 1552 c 0,2,3
 570 1552 570 1552 643 1484.5 c 128,-1,4
 716 1417 716 1417 716 1317 c 0,5,6
 716 1264 716 1264 697 1218.5 c 128,-1,7
 678 1173 678 1173 643 1139.5 c 128,-1,8
 608 1106 608 1106 575 1083.5 c 128,-1,9
 542 1061 542 1061 498 1039 c 0,10,11
 467 1023 467 1023 459.5 1019.5 c 128,-1,12
 452 1016 452 1016 426 1002 c 128,-1,13
 400 988 400 988 390.5 979.5 c 128,-1,14
 381 971 381 971 364.5 957 c 128,-1,15
 348 943 348 943 339 929 c 128,-1,16
 330 915 330 915 324 898 c 1,17,-1
 324 888 l 1,18,-1
 704 888 l 1,19,-1
 704 768 l 1,20,-1
 186 768 l 1,21,-1
 186 828 l 2,22,23
 186 1027 186 1027 426 1141 c 0,24,25
 462 1158 462 1158 484 1171 c 128,-1,26
 506 1184 506 1184 533.5 1205.5 c 128,-1,27
 561 1227 561 1227 574.5 1255 c 128,-1,28
 588 1283 588 1283 588 1317 c 0,29,30
 588 1335 588 1335 583 1351.5 c 128,-1,31
 578 1368 578 1368 564 1388 c 128,-1,32
 550 1408 550 1408 517 1420 c 128,-1,33
 484 1432 484 1432 435 1432 c 0,34,35
 327 1432 327 1432 192 1405 c 1,36,-1
 192 1525 l 1,0,1
EndSplineSet
EndChar

StartChar: uni00B3
Encoding: 179 179 117
Width: 1024
GlyphClass: 2
Flags: W
LayerCount: 3
Fore
SplineSet
610 1150 m 1,0,1
 716 1095 716 1095 716 983 c 0,2,3
 716 876 716 876 636.5 814 c 128,-1,4
 557 752 557 752 434 752 c 0,5,6
 331 752 331 752 192 767 c 1,7,-1
 192 887 l 1,8,9
 348 872 348 872 434 872 c 0,10,11
 506 872 506 872 547 900 c 128,-1,12
 588 928 588 928 588 983 c 0,13,14
 588 1024 588 1024 560 1051.5 c 128,-1,15
 532 1079 532 1079 490 1087 c 0,16,17
 464 1092 464 1092 398 1092 c 2,18,-1
 320 1092 l 1,19,-1
 320 1212 l 1,20,-1
 398 1212 l 2,21,22
 456 1212 456 1212 486 1218 c 0,23,24
 527 1227 527 1227 553 1253.5 c 128,-1,25
 579 1280 579 1280 579 1322 c 0,26,27
 579 1376 579 1376 541 1404 c 128,-1,28
 503 1432 503 1432 432 1432 c 0,29,30
 365 1432 365 1432 202 1415 c 1,31,-1
 202 1535 l 1,32,33
 334 1552 334 1552 432 1552 c 0,34,35
 557 1552 557 1552 632 1489 c 128,-1,36
 707 1426 707 1426 707 1322 c 0,37,38
 707 1215 707 1215 610 1160 c 1,39,-1
 610 1150 l 1,0,1
EndSplineSet
EndChar

StartChar: acute
Encoding: 180 180 118
Width: 1024
GlyphClass: 2
Flags: W
LayerCount: 3
Fore
SplineSet
425 1024 m 1,0,-1
 591 1408 l 1,1,-1
 729 1408 l 1,2,-1
 563 1024 l 1,3,-1
 425 1024 l 1,0,-1
EndSplineSet
EndChar

StartChar: mu
Encoding: 181 181 119
Width: 1024
GlyphClass: 2
Flags: W
LayerCount: 3
Fore
SplineSet
512 -16 m 128,-1,1
 461 -16 461 -16 412 19 c 128,-1,2
 363 54 363 54 330 112 c 1,3,-1
 320 112 l 1,4,-1
 320 -384 l 1,5,-1
 192 -384 l 1,6,-1
 192 1024 l 1,7,-1
 320 1024 l 1,8,-1
 320 367 l 2,9,10
 320 312 320 312 321.5 285 c 128,-1,11
 323 258 323 258 333.5 224.5 c 128,-1,12
 344 191 344 191 365 166 c 0,13,14
 419 104 419 104 512 104 c 128,-1,15
 605 104 605 104 659 166 c 0,16,17
 680 191 680 191 690.5 224.5 c 128,-1,18
 701 258 701 258 702.5 285 c 128,-1,19
 704 312 704 312 704 367 c 2,20,-1
 704 1024 l 1,21,-1
 832 1024 l 1,22,-1
 832 0 l 1,23,-1
 704 0 l 1,24,-1
 704 112 l 1,25,-1
 694 112 l 1,26,27
 661 54 661 54 612 19 c 128,-1,0
 563 -16 563 -16 512 -16 c 128,-1,1
EndSplineSet
EndChar

StartChar: paragraph
Encoding: 182 182 120
Width: 1024
GlyphClass: 2
Flags: W
LayerCount: 3
Fore
SplineSet
576 1288 m 1,0,-1
 576 0 l 1,1,-1
 448 0 l 1,2,-1
 448 655 l 1,3,4
 327 686 327 686 251.5 784.5 c 128,-1,5
 176 883 176 883 176 1024 c 0,6,7
 176 1167 176 1167 254 1266.5 c 128,-1,8
 332 1366 332 1366 455 1395 c 0,9,10
 510 1408 510 1408 639 1408 c 2,11,-1
 832 1408 l 1,12,-1
 832 0 l 1,13,-1
 704 0 l 1,14,-1
 704 1288 l 1,15,-1
 576 1288 l 1,0,-1
EndSplineSet
EndChar

StartChar: periodcentered
Encoding: 183 183 121
Width: 1024
GlyphClass: 2
Flags: W
LayerCount: 3
Fore
SplineSet
320 768 m 1,0,-1
 576 768 l 1,1,-1
 576 528 l 1,2,-1
 320 528 l 1,3,-1
 320 768 l 1,0,-1
EndSplineSet
EndChar

StartChar: cedilla
Encoding: 184 184 122
Width: 1024
GlyphClass: 2
Flags: W
LayerCount: 3
Fore
SplineSet
576 -105 m 2,0,1
 576 -146 576 -146 574.5 -170 c 128,-1,2
 573 -194 573 -194 560.5 -233.5 c 128,-1,3
 548 -273 548 -273 524 -305 c 0,4,5
 454 -400 454 -400 320 -400 c 0,6,7
 272 -400 272 -400 192 -383 c 1,8,-1
 192 -260 l 1,9,10
 279 -280 279 -280 320 -280 c 0,11,12
 386 -280 386 -280 420 -235 c 0,13,14
 433 -218 433 -218 439.5 -194.5 c 128,-1,15
 446 -171 446 -171 447 -154.5 c 128,-1,16
 448 -138 448 -138 448 -105 c 2,17,-1
 448 0 l 1,18,-1
 576 0 l 1,19,-1
 576 -105 l 2,0,1
EndSplineSet
EndChar

StartChar: uni00B9
Encoding: 185 185 123
Width: 1024
GlyphClass: 2
Flags: W
LayerCount: 3
Fore
SplineSet
468 1536 m 1,0,-1
 576 1536 l 1,1,-1
 576 768 l 1,2,-1
 448 768 l 1,3,-1
 448 1378 l 1,4,-1
 438 1378 l 1,5,-1
 192 1246 l 1,6,-1
 192 1380 l 1,7,-1
 468 1536 l 1,0,-1
EndSplineSet
EndChar

StartChar: ordmasculine
Encoding: 186 186 124
Width: 1024
GlyphClass: 2
Flags: W
LayerCount: 3
Fore
SplineSet
448 1552 m 128,-1,1
 505 1552 505 1552 550 1534.5 c 128,-1,2
 595 1517 595 1517 623 1492 c 128,-1,3
 651 1467 651 1467 671.5 1426.5 c 128,-1,4
 692 1386 692 1386 702 1353.5 c 128,-1,5
 712 1321 712 1321 717.5 1275.5 c 128,-1,6
 723 1230 723 1230 723.5 1207.5 c 128,-1,7
 724 1185 724 1185 724 1152 c 128,-1,8
 724 1119 724 1119 723.5 1096.5 c 128,-1,9
 723 1074 723 1074 717.5 1028.5 c 128,-1,10
 712 983 712 983 702 950.5 c 128,-1,11
 692 918 692 918 671.5 877.5 c 128,-1,12
 651 837 651 837 623 812 c 128,-1,13
 595 787 595 787 550 769.5 c 128,-1,14
 505 752 505 752 448 752 c 128,-1,15
 391 752 391 752 346 769.5 c 128,-1,16
 301 787 301 787 273 812 c 128,-1,17
 245 837 245 837 224.5 877.5 c 128,-1,18
 204 918 204 918 194 950.5 c 128,-1,19
 184 983 184 983 178.5 1028.5 c 128,-1,20
 173 1074 173 1074 172.5 1096.5 c 128,-1,21
 172 1119 172 1119 172 1152 c 128,-1,22
 172 1185 172 1185 172.5 1207.5 c 128,-1,23
 173 1230 173 1230 178.5 1275.5 c 128,-1,24
 184 1321 184 1321 194 1353.5 c 128,-1,25
 204 1386 204 1386 224.5 1426.5 c 128,-1,26
 245 1467 245 1467 273 1492 c 128,-1,27
 301 1517 301 1517 346 1534.5 c 128,-1,0
 391 1552 391 1552 448 1552 c 128,-1,1
300 1152 m 128,-1,29
 300 1114 300 1114 301.5 1086.5 c 128,-1,30
 303 1059 303 1059 307.5 1023.5 c 128,-1,31
 312 988 312 988 322 963.5 c 128,-1,32
 332 939 332 939 347.5 917 c 128,-1,33
 363 895 363 895 388.5 883.5 c 128,-1,34
 414 872 414 872 448 872 c 128,-1,35
 482 872 482 872 507.5 883.5 c 128,-1,36
 533 895 533 895 548.5 917 c 128,-1,37
 564 939 564 939 574 963.5 c 128,-1,38
 584 988 584 988 588.5 1023.5 c 128,-1,39
 593 1059 593 1059 594.5 1086.5 c 128,-1,40
 596 1114 596 1114 596 1152 c 128,-1,41
 596 1190 596 1190 594.5 1217.5 c 128,-1,42
 593 1245 593 1245 588.5 1280.5 c 128,-1,43
 584 1316 584 1316 574 1340.5 c 128,-1,44
 564 1365 564 1365 548.5 1387 c 128,-1,45
 533 1409 533 1409 507.5 1420.5 c 128,-1,46
 482 1432 482 1432 448 1432 c 128,-1,47
 414 1432 414 1432 388.5 1420.5 c 128,-1,48
 363 1409 363 1409 347.5 1387 c 128,-1,49
 332 1365 332 1365 322 1340.5 c 128,-1,50
 312 1316 312 1316 307.5 1280.5 c 128,-1,51
 303 1245 303 1245 301.5 1217.5 c 128,-1,28
 300 1190 300 1190 300 1152 c 128,-1,29
EndSplineSet
EndChar

StartChar: guillemotright
Encoding: 187 187 125
Width: 1024
GlyphClass: 2
Flags: W
LayerCount: 3
Fore
SplineSet
835 581 m 1,0,-1
 535 971 l 1,1,-1
 639 1039 l 1,2,-1
 960 610 l 1,3,-1
 960 542 l 1,4,-1
 639 113 l 1,5,-1
 535 181 l 1,6,-1
 835 571 l 1,7,-1
 835 581 l 1,0,-1
451 581 m 1,8,-1
 151 971 l 1,9,-1
 255 1039 l 1,10,-1
 576 610 l 1,11,-1
 576 542 l 1,12,-1
 255 113 l 1,13,-1
 151 181 l 1,14,-1
 451 571 l 1,15,-1
 451 581 l 1,8,-1
EndSplineSet
EndChar

StartChar: onequarter
Encoding: 188 188 126
Width: 1024
GlyphClass: 2
Flags: W
LayerCount: 3
Fore
SplineSet
340 1536 m 1,0,-1
 448 1536 l 1,1,-1
 448 768 l 1,2,-1
 320 768 l 1,3,-1
 320 1378 l 1,4,-1
 310 1378 l 1,5,-1
 64 1246 l 1,6,-1
 64 1380 l 1,7,-1
 340 1536 l 1,0,-1
960 -128 m 1,8,-1
 832 -128 l 1,9,-1
 832 128 l 1,10,-1
 448 128 l 1,11,-1
 448 200 l 1,12,-1
 526 640 l 1,13,-1
 647 640 l 1,14,-1
 579 248 l 1,15,-1
 832 248 l 1,16,-1
 832 640 l 1,17,-1
 960 640 l 1,18,-1
 960 -128 l 1,8,-1
EndSplineSet
EndChar

StartChar: onehalf
Encoding: 189 189 127
Width: 1024
GlyphClass: 2
Flags: W
LayerCount: 3
Fore
SplineSet
448 629 m 1,0,1
 579 656 579 656 691 656 c 0,2,3
 826 656 826 656 899 588.5 c 128,-1,4
 972 521 972 521 972 421 c 0,5,6
 972 368 972 368 953 322.5 c 128,-1,7
 934 277 934 277 899 243.5 c 128,-1,8
 864 210 864 210 831 187.5 c 128,-1,9
 798 165 798 165 754 143 c 0,10,11
 723 127 723 127 715.5 123.5 c 128,-1,12
 708 120 708 120 682 106 c 128,-1,13
 656 92 656 92 646.5 83.5 c 128,-1,14
 637 75 637 75 620.5 61 c 128,-1,15
 604 47 604 47 595 33 c 128,-1,16
 586 19 586 19 580 2 c 1,17,-1
 580 -8 l 1,18,-1
 960 -8 l 1,19,-1
 960 -128 l 1,20,-1
 442 -128 l 1,21,-1
 442 -68 l 2,22,23
 442 131 442 131 682 245 c 0,24,25
 718 262 718 262 740 275 c 128,-1,26
 762 288 762 288 789.5 309.5 c 128,-1,27
 817 331 817 331 830.5 359 c 128,-1,28
 844 387 844 387 844 421 c 0,29,30
 844 439 844 439 839 455.5 c 128,-1,31
 834 472 834 472 820 492 c 128,-1,32
 806 512 806 512 773 524 c 128,-1,33
 740 536 740 536 691 536 c 0,34,35
 583 536 583 536 448 509 c 1,36,-1
 448 629 l 1,0,1
340 1536 m 1,37,-1
 448 1536 l 1,38,-1
 448 768 l 1,39,-1
 320 768 l 1,40,-1
 320 1378 l 1,41,-1
 310 1378 l 1,42,-1
 64 1246 l 1,43,-1
 64 1380 l 1,44,-1
 340 1536 l 1,37,-1
EndSplineSet
EndChar

StartChar: threequarters
Encoding: 190 190 128
Width: 1024
GlyphClass: 2
Flags: W
LayerCount: 3
Fore
SplineSet
482 1150 m 1,0,1
 588 1095 588 1095 588 983 c 0,2,3
 588 876 588 876 508.5 814 c 128,-1,4
 429 752 429 752 306 752 c 0,5,6
 203 752 203 752 64 767 c 1,7,-1
 64 887 l 1,8,9
 220 872 220 872 306 872 c 0,10,11
 378 872 378 872 419 900 c 128,-1,12
 460 928 460 928 460 983 c 0,13,14
 460 1024 460 1024 432 1051.5 c 128,-1,15
 404 1079 404 1079 362 1087 c 0,16,17
 336 1092 336 1092 270 1092 c 2,18,-1
 192 1092 l 1,19,-1
 192 1212 l 1,20,-1
 270 1212 l 2,21,22
 328 1212 328 1212 358 1218 c 0,23,24
 399 1227 399 1227 425 1253.5 c 128,-1,25
 451 1280 451 1280 451 1322 c 0,26,27
 451 1376 451 1376 413 1404 c 128,-1,28
 375 1432 375 1432 304 1432 c 0,29,30
 237 1432 237 1432 74 1415 c 1,31,-1
 74 1535 l 1,32,33
 206 1552 206 1552 304 1552 c 0,34,35
 429 1552 429 1552 504 1489 c 128,-1,36
 579 1426 579 1426 579 1322 c 0,37,38
 579 1215 579 1215 482 1160 c 1,39,-1
 482 1150 l 1,0,1
960 -128 m 1,40,-1
 832 -128 l 1,41,-1
 832 128 l 1,42,-1
 448 128 l 1,43,-1
 448 200 l 1,44,-1
 526 640 l 1,45,-1
 647 640 l 1,46,-1
 579 248 l 1,47,-1
 832 248 l 1,48,-1
 832 640 l 1,49,-1
 960 640 l 1,50,-1
 960 -128 l 1,40,-1
EndSplineSet
EndChar

StartChar: questiondown
Encoding: 191 191 129
Width: 1024
GlyphClass: 2
Flags: W
LayerCount: 3
Fore
SplineSet
512 880 m 128,-1,1
 448 880 448 880 408 920 c 128,-1,2
 368 960 368 960 368 1024 c 128,-1,3
 368 1088 368 1088 408 1128 c 128,-1,4
 448 1168 448 1168 512 1168 c 128,-1,5
 576 1168 576 1168 616 1128 c 128,-1,6
 656 1088 656 1088 656 1024 c 128,-1,7
 656 960 656 960 616 920 c 128,-1,0
 576 880 576 880 512 880 c 128,-1,1
576 640 m 1,8,9
 576 561 576 561 556 496.5 c 128,-1,10
 536 432 536 432 477 371 c 0,11,12
 431 324 431 324 407.5 297 c 128,-1,13
 384 270 384 270 357 230 c 128,-1,14
 330 190 330 190 319 149.5 c 128,-1,15
 308 109 308 109 308 60 c 0,16,17
 308 -45 308 -45 367 -98.5 c 128,-1,18
 426 -152 426 -152 554 -152 c 0,19,20
 647 -152 647 -152 810 -115 c 1,21,-1
 810 -235 l 1,22,23
 652 -272 652 -272 554 -272 c 0,24,25
 374 -272 374 -272 277 -184 c 128,-1,26
 180 -96 180 -96 180 60 c 0,27,28
 180 121 180 121 194.5 174.5 c 128,-1,29
 209 228 209 228 239.5 277 c 128,-1,30
 270 326 270 326 301 363.5 c 128,-1,31
 332 401 332 401 381 451 c 0,32,33
 412 483 412 483 428 519.5 c 128,-1,34
 444 556 444 556 446 578.5 c 128,-1,35
 448 601 448 601 448 640 c 1,36,-1
 576 640 l 1,8,9
EndSplineSet
EndChar

StartChar: Aring
Encoding: 197 197 135
Width: 1024
GlyphClass: 2
Flags: W
LayerCount: 3
Fore
SplineSet
512 1664 m 128,-1,1
 458 1664 458 1664 425 1630.5 c 128,-1,2
 392 1597 392 1597 392 1536 c 128,-1,3
 392 1475 392 1475 425 1441.5 c 128,-1,4
 458 1408 458 1408 512 1408 c 128,-1,5
 566 1408 566 1408 599 1441.5 c 128,-1,6
 632 1475 632 1475 632 1536 c 128,-1,7
 632 1597 632 1597 599 1630.5 c 128,-1,0
 566 1664 566 1664 512 1664 c 128,-1,1
512 1764 m 128,-1,9
 612 1764 612 1764 676 1698.5 c 128,-1,10
 740 1633 740 1633 740 1536 c 0,11,12
 740 1469 740 1469 707 1414.5 c 128,-1,13
 674 1360 674 1360 618 1332 c 1,14,15
 901 788 901 788 985 0 c 1,16,-1
 850 0 l 1,17,18
 835 181 835 181 795 388 c 1,19,-1
 229 388 l 1,20,21
 224 357 224 357 214 296.5 c 128,-1,22
 204 236 204 236 198 197 c 128,-1,23
 192 158 192 158 185 103 c 128,-1,24
 178 48 178 48 174 0 c 1,25,-1
 39 0 l 1,26,27
 123 788 123 788 406 1332 c 1,28,29
 350 1360 350 1360 317 1414.5 c 128,-1,30
 284 1469 284 1469 284 1536 c 0,31,32
 284 1633 284 1633 348 1698.5 c 128,-1,8
 412 1764 412 1764 512 1764 c 128,-1,9
774 508 m 1,33,34
 716 753 716 753 657 938 c 128,-1,35
 598 1123 598 1123 517 1279 c 1,36,-1
 507 1279 l 1,37,38
 426 1123 426 1123 367 938 c 128,-1,39
 308 753 308 753 250 508 c 1,40,-1
 774 508 l 1,33,34
EndSplineSet
Substitution2: "'ss14' Style Set 14 lookup 13 subtable" Aring.sq
EndChar

StartChar: AE
Encoding: 198 198 136
Width: 1024
GlyphClass: 2
Flags: W
LayerCount: 3
Fore
SplineSet
576 388 m 1,0,-1
 184 388 l 1,1,2
 167 176 167 176 167 0 c 1,3,-1
 39 0 l 1,4,5
 39 755 39 755 293 1408 c 1,6,-1
 960 1408 l 1,7,-1
 960 1288 l 1,8,-1
 704 1288 l 1,9,-1
 704 764 l 1,10,-1
 960 764 l 1,11,-1
 960 644 l 1,12,-1
 704 644 l 1,13,-1
 704 120 l 1,14,-1
 960 120 l 1,15,-1
 960 0 l 1,16,-1
 576 0 l 1,17,-1
 576 388 l 1,0,-1
576 508 m 1,18,-1
 576 1288 l 1,19,-1
 367 1288 l 1,20,21
 249 937 249 937 198 508 c 1,22,-1
 576 508 l 1,18,-1
EndSplineSet
EndChar

StartChar: Ccedilla
Encoding: 199 199 137
Width: 1024
GlyphClass: 2
Flags: W
LayerCount: 3
Fore
SplineSet
960 141 m 1,0,-1
 960 21 l 1,1,2
 857 2 857 2 767 -7 c 1,3,4
 763 -113 763 -113 716 -178 c 0,5,6
 683 -222 683 -222 627 -247.5 c 128,-1,7
 571 -273 571 -273 502 -273 c 0,8,9
 459 -273 459 -273 384 -266 c 1,10,-1
 384 -146 l 1,11,12
 461 -153 461 -153 502 -153 c 0,13,14
 635 -153 635 -153 640 -15 c 1,15,16
 634 -15 634 -15 620 -15.5 c 128,-1,17
 606 -16 606 -16 599 -16 c 0,18,19
 413 -16 413 -16 300.5 86 c 128,-1,20
 188 188 188 188 143 364 c 0,21,22
 112 486 112 486 112 704 c 128,-1,23
 112 922 112 922 143 1044 c 0,24,25
 188 1221 188 1221 297 1322.5 c 128,-1,26
 406 1424 406 1424 589 1424 c 0,27,28
 749 1424 749 1424 930 1395 c 1,29,-1
 930 1275 l 1,30,31
 742 1304 742 1304 589 1304 c 0,32,33
 454 1304 454 1304 379 1229.5 c 128,-1,34
 304 1155 304 1155 268 1016 c 0,35,36
 240 907 240 907 240 704 c 128,-1,37
 240 501 240 501 268 392 c 0,38,39
 304 254 304 254 381.5 179 c 128,-1,40
 459 104 459 104 599 104 c 0,41,42
 747 104 747 104 960 141 c 1,0,-1
EndSplineSet
EndChar

StartChar: Eth
Encoding: 208 208 146
Width: 1024
GlyphClass: 2
Flags: W
LayerCount: 3
Fore
SplineSet
848 704 m 128,-1,1
 848 852 848 852 828.5 955 c 128,-1,2
 809 1058 809 1058 761 1126 c 0,3,4
 647 1288 647 1288 410 1288 c 2,5,-1
 320 1288 l 1,6,-1
 320 764 l 1,7,-1
 576 764 l 1,8,-1
 576 644 l 1,9,-1
 320 644 l 1,10,-1
 320 120 l 1,11,-1
 410 120 l 2,12,13
 647 120 647 120 761 282 c 0,14,15
 809 350 809 350 828.5 453 c 128,-1,0
 848 556 848 556 848 704 c 128,-1,1
410 1408 m 2,16,17
 732 1408 732 1408 879 1171 c 0,18,19
 936 1081 936 1081 956 967 c 128,-1,20
 976 853 976 853 976 704 c 128,-1,21
 976 555 976 555 956 441 c 128,-1,22
 936 327 936 327 879 237 c 0,23,24
 732 0 732 0 410 0 c 2,25,-1
 192 0 l 1,26,-1
 192 644 l 1,27,-1
 64 644 l 1,28,-1
 64 764 l 1,29,-1
 192 764 l 1,30,-1
 192 1408 l 1,31,-1
 410 1408 l 2,16,17
EndSplineSet
EndChar

StartChar: multiply
Encoding: 215 215 153
Width: 1024
GlyphClass: 2
Flags: W
LayerCount: 3
Fore
SplineSet
661 512 m 1,0,-1
 936 240 l 1,1,-1
 842 158 l 1,2,-1
 576 427 l 1,3,-1
 517 512 l 1,4,-1
 507 512 l 1,5,-1
 448 427 l 1,6,-1
 182 158 l 1,7,-1
 88 240 l 1,8,-1
 363 512 l 1,9,-1
 448 571 l 1,10,-1
 448 581 l 1,11,-1
 363 640 l 1,12,-1
 88 912 l 1,13,-1
 182 994 l 1,14,-1
 448 725 l 1,15,-1
 507 640 l 1,16,-1
 517 640 l 1,17,-1
 576 725 l 1,18,-1
 842 994 l 1,19,-1
 936 912 l 1,20,-1
 661 640 l 1,21,-1
 576 581 l 1,22,-1
 576 571 l 1,23,-1
 661 512 l 1,0,-1
EndSplineSet
EndChar

StartChar: Oslash
Encoding: 216 216 154
Width: 1024
GlyphClass: 2
Flags: W
LayerCount: 3
Fore
SplineSet
280 215 m 1,0,1
 369 104 369 104 512 104 c 0,2,3
 634 104 634 104 714 182 c 128,-1,4
 794 260 794 260 823 382 c 0,5,6
 848 489 848 489 848 704 c 0,7,8
 848 835 848 835 839.5 928.5 c 128,-1,9
 831 1022 831 1022 802 1094 c 1,10,-1
 280 215 l 1,0,1
137 -26 m 1,11,-1
 51 26 l 1,12,-1
 146 186 l 1,13,14
 97 264 97 264 76 355 c 0,15,16
 48 473 48 473 48 704 c 128,-1,17
 48 935 48 935 76 1053 c 0,18,19
 114 1215 114 1215 228 1319.5 c 128,-1,20
 342 1424 342 1424 512 1424 c 0,21,22
 690 1424 690 1424 811 1305 c 1,23,-1
 887 1434 l 1,24,-1
 973 1382 l 1,25,-1
 878 1222 l 1,26,27
 927 1144 927 1144 948 1053 c 0,28,29
 976 935 976 935 976 704 c 128,-1,30
 976 473 976 473 948 355 c 0,31,32
 910 193 910 193 796 88.5 c 128,-1,33
 682 -16 682 -16 512 -16 c 0,34,35
 334 -16 334 -16 213 103 c 1,36,-1
 137 -26 l 1,11,-1
512 1304 m 0,37,38
 390 1304 390 1304 310 1226 c 128,-1,39
 230 1148 230 1148 201 1026 c 0,40,41
 176 919 176 919 176 704 c 0,42,43
 176 573 176 573 184.5 479.5 c 128,-1,44
 193 386 193 386 222 314 c 1,45,-1
 744 1193 l 1,46,47
 655 1304 655 1304 512 1304 c 0,37,38
EndSplineSet
EndChar

StartChar: Thorn
Encoding: 222 222 160
Width: 1024
GlyphClass: 2
Flags: W
LayerCount: 3
Fore
SplineSet
256 1152 m 1,0,-1
 405 1152 l 2,1,2
 454 1152 454 1152 485.5 1150 c 128,-1,3
 517 1148 517 1148 570.5 1139.5 c 128,-1,4
 624 1131 624 1131 672.5 1107.5 c 128,-1,5
 721 1084 721 1084 763 1047 c 0,6,7
 912 915 912 915 912 708 c 128,-1,8
 912 501 912 501 763 369 c 0,9,10
 721 332 721 332 672.5 308.5 c 128,-1,11
 624 285 624 285 570.5 276.5 c 128,-1,12
 517 268 517 268 485.5 266 c 128,-1,13
 454 264 454 264 405 264 c 2,14,-1
 256 264 l 1,15,-1
 256 0 l 1,16,-1
 128 0 l 1,17,-1
 128 1408 l 1,18,-1
 256 1408 l 1,19,-1
 256 1152 l 1,0,-1
256 1032 m 1,20,-1
 256 384 l 1,21,-1
 405 384 l 2,22,23
 448 384 448 384 473 385.5 c 128,-1,24
 498 387 498 387 538 393 c 128,-1,25
 578 399 578 399 612.5 415 c 128,-1,26
 647 431 647 431 677 457 c 0,27,28
 726 499 726 499 755 564.5 c 128,-1,29
 784 630 784 630 784 708 c 128,-1,30
 784 786 784 786 755 851.5 c 128,-1,31
 726 917 726 917 677 959 c 0,32,33
 647 985 647 985 612.5 1001 c 128,-1,34
 578 1017 578 1017 538 1023 c 128,-1,35
 498 1029 498 1029 473 1030.5 c 128,-1,36
 448 1032 448 1032 405 1032 c 2,37,-1
 256 1032 l 1,20,-1
EndSplineSet
EndChar

StartChar: germandbls
Encoding: 223 223 161
Width: 1024
GlyphClass: 2
Flags: W
LayerCount: 3
Fore
SplineSet
666 833 m 1,0,1
 743 807 743 807 787.5 751.5 c 128,-1,2
 832 696 832 696 848 622.5 c 128,-1,3
 864 549 864 549 864 438 c 0,4,5
 864 302 864 302 833.5 203.5 c 128,-1,6
 803 105 803 105 731 44.5 c 128,-1,7
 659 -16 659 -16 548 -16 c 0,8,9
 504 -16 504 -16 440 -5 c 1,10,-1
 456 113 l 1,11,12
 503 104 503 104 528 104 c 0,13,14
 580 104 580 104 618.5 122.5 c 128,-1,15
 657 141 657 141 679 170.5 c 128,-1,16
 701 200 701 200 714.5 245.5 c 128,-1,17
 728 291 728 291 732 335.5 c 128,-1,18
 736 380 736 380 736 438 c 0,19,20
 736 515 736 515 725 572.5 c 128,-1,21
 714 630 714 630 687.5 676.5 c 128,-1,22
 661 723 661 723 613.5 747.5 c 128,-1,23
 566 772 566 772 498 772 c 1,24,-1
 498 892 l 1,25,26
 660 892 660 892 660 1098 c 0,27,28
 660 1195 660 1195 618 1249.5 c 128,-1,29
 576 1304 576 1304 498 1304 c 0,30,31
 397 1304 397 1304 358.5 1247.5 c 128,-1,32
 320 1191 320 1191 320 1078 c 2,33,-1
 320 0 l 1,34,-1
 192 0 l 1,35,-1
 192 1078 l 2,36,37
 192 1235 192 1235 269.5 1329.5 c 128,-1,38
 347 1424 347 1424 498 1424 c 0,39,40
 629 1424 629 1424 708.5 1331.5 c 128,-1,41
 788 1239 788 1239 788 1098 c 0,42,43
 788 1006 788 1006 762 942 c 128,-1,44
 736 878 736 878 666 843 c 1,45,-1
 666 833 l 1,0,1
EndSplineSet
EndChar

StartChar: aring
Encoding: 229 229 167
Width: 1024
GlyphClass: 2
Flags: W
LayerCount: 3
Fore
SplineSet
512 1296 m 128,-1,1
 458 1296 458 1296 425 1262.5 c 128,-1,2
 392 1229 392 1229 392 1168 c 128,-1,3
 392 1107 392 1107 425 1073.5 c 128,-1,4
 458 1040 458 1040 512 1040 c 128,-1,5
 566 1040 566 1040 599 1073.5 c 128,-1,6
 632 1107 632 1107 632 1168 c 128,-1,7
 632 1229 632 1229 599 1262.5 c 128,-1,0
 566 1296 566 1296 512 1296 c 128,-1,1
512 1396 m 128,-1,9
 612 1396 612 1396 676 1330.5 c 128,-1,10
 740 1265 740 1265 740 1168 c 0,11,12
 740 1081 740 1081 686 1017 c 1,13,14
 761 987 761 987 802 913 c 0,15,16
 832 860 832 860 832 749 c 2,17,-1
 832 0 l 1,18,-1
 704 0 l 1,19,-1
 704 123 l 1,20,-1
 694 123 l 1,21,22
 593 -16 593 -16 444 -16 c 0,23,24
 324 -16 324 -16 242 74 c 128,-1,25
 160 164 160 164 160 301 c 0,26,27
 160 445 160 445 248 533 c 0,28,29
 280 564 280 564 316 584 c 128,-1,30
 352 604 352 604 391.5 611.5 c 128,-1,31
 431 619 431 619 453.5 620.5 c 128,-1,32
 476 622 476 622 510 622 c 2,33,-1
 704 622 l 1,34,-1
 704 744 l 2,35,36
 704 831 704 831 686 862 c 0,37,38
 669 891 669 891 637.5 905.5 c 128,-1,39
 606 920 606 920 544 920 c 0,40,41
 424 920 424 920 256 899 c 1,42,-1
 256 1021 l 1,43,44
 299 1027 299 1027 329 1029 c 1,45,46
 284 1090 284 1090 284 1168 c 0,47,48
 284 1265 284 1265 348 1330.5 c 128,-1,8
 412 1396 412 1396 512 1396 c 128,-1,9
704 512 m 1,49,-1
 508 512 l 2,50,51
 471 512 471 512 450.5 510 c 128,-1,52
 430 508 430 508 399 495.5 c 128,-1,53
 368 483 368 483 344 458 c 0,54,55
 288 399 288 399 288 303 c 0,56,57
 288 218 288 218 336.5 161 c 128,-1,58
 385 104 385 104 468 104 c 0,59,60
 516 104 516 104 553.5 118 c 128,-1,61
 591 132 591 132 615.5 153 c 128,-1,62
 640 174 640 174 657.5 208 c 128,-1,63
 675 242 675 242 683.5 271.5 c 128,-1,64
 692 301 692 301 697 342 c 128,-1,65
 702 383 702 383 703 409 c 128,-1,66
 704 435 704 435 704 471 c 2,67,-1
 704 512 l 1,49,-1
EndSplineSet
EndChar

StartChar: ae
Encoding: 230 230 168
Width: 1024
GlyphClass: 2
Flags: W
LayerCount: 3
Fore
SplineSet
160 309 m 0,0,1
 160 229 160 229 191.5 166.5 c 128,-1,2
 223 104 223 104 284 104 c 0,3,4
 333 104 333 104 373.5 142.5 c 128,-1,5
 414 181 414 181 430 230 c 0,6,7
 448 286 448 286 448 421 c 2,8,-1
 448 512 l 1,9,-1
 313 512 l 2,10,11
 266 512 266 512 244.5 503 c 128,-1,12
 223 494 223 494 203 466 c 0,13,14
 160 404 160 404 160 309 c 0,0,1
510 148 m 1,15,16
 474 71 474 71 416 27.5 c 128,-1,17
 358 -16 358 -16 284 -16 c 0,18,19
 202 -16 202 -16 143.5 31.5 c 128,-1,20
 85 79 85 79 58.5 151 c 128,-1,21
 32 223 32 223 32 309 c 0,22,23
 32 412 32 412 73 494.5 c 128,-1,24
 114 577 114 577 189 611 c 0,25,26
 235 632 235 632 306 632 c 2,27,-1
 448 632 l 1,28,-1
 448 748 l 2,29,30
 448 795 448 795 442.5 824.5 c 128,-1,31
 437 854 437 854 420.5 878 c 128,-1,32
 404 902 404 902 371.5 913 c 128,-1,33
 339 924 339 924 288 924 c 0,34,35
 216 924 216 924 64 904 c 1,36,-1
 64 1026 l 1,37,38
 214 1044 214 1044 288 1044 c 0,39,40
 328 1044 328 1044 356 1040 c 128,-1,41
 384 1036 384 1036 418 1023.5 c 128,-1,42
 452 1011 452 1011 480 981.5 c 128,-1,43
 508 952 508 952 529 907 c 1,44,-1
 539 907 l 1,45,46
 605 1040 605 1040 726 1040 c 0,47,48
 822 1040 822 1040 884.5 970 c 128,-1,49
 947 900 947 900 971 802 c 0,50,51
 990 725 990 725 990 577 c 2,52,-1
 990 512 l 1,53,-1
 576 512 l 1,54,-1
 576 469 l 2,55,56
 576 417 576 417 578 379 c 128,-1,57
 580 341 580 341 586 295 c 128,-1,58
 592 249 592 249 605.5 218 c 128,-1,59
 619 187 619 187 639 159.5 c 128,-1,60
 659 132 659 132 692 118 c 128,-1,61
 725 104 725 104 768 104 c 0,62,63
 805 104 805 104 960 129 c 1,64,-1
 960 7 l 1,65,66
 815 -16 815 -16 765 -16 c 0,67,68
 595 -16 595 -16 520 148 c 1,69,-1
 510 148 l 1,15,16
863 632 m 1,70,71
 860 800 860 800 811 873 c 1,72,73
 774 920 774 920 726 920 c 0,74,75
 676 920 676 920 643 877 c 128,-1,76
 610 834 610 834 594 773 c 0,77,78
 579 717 579 717 577 632 c 1,79,-1
 863 632 l 1,70,71
EndSplineSet
EndChar

StartChar: ccedilla
Encoding: 231 231 169
Width: 1024
GlyphClass: 2
Flags: W
LayerCount: 3
Fore
SplineSet
160 512 m 128,-1,1
 160 624 160 624 167.5 696 c 128,-1,2
 175 768 175 768 203 831 c 0,3,4
 294 1040 294 1040 542 1040 c 0,5,6
 642 1040 642 1040 812 1023 c 1,7,-1
 812 903 l 1,8,9
 640 920 640 920 542 920 c 0,10,11
 456 920 456 920 405.5 887.5 c 128,-1,12
 355 855 355 855 323 789 c 0,13,14
 307 755 307 755 298.5 704 c 128,-1,15
 290 653 290 653 289 616.5 c 128,-1,16
 288 580 288 580 288 512 c 128,-1,17
 288 444 288 444 289 407.5 c 128,-1,18
 290 371 290 371 298.5 320 c 128,-1,19
 307 269 307 269 323 235 c 0,20,21
 355 169 355 169 405.5 136.5 c 128,-1,22
 456 104 456 104 542 104 c 0,23,24
 659 104 659 104 832 130 c 1,25,-1
 832 10 l 1,26,27
 758 -2 758 -2 703 -7 c 1,28,29
 699 -113 699 -113 652 -178 c 0,30,31
 619 -222 619 -222 563 -247.5 c 128,-1,32
 507 -273 507 -273 438 -273 c 0,33,34
 395 -273 395 -273 320 -266 c 1,35,-1
 320 -146 l 1,36,37
 397 -153 397 -153 438 -153 c 0,38,39
 571 -153 571 -153 576 -16 c 1,40,-1
 542 -16 l 2,41,42
 294 -16 294 -16 203 193 c 0,43,44
 175 256 175 256 167.5 328 c 128,-1,0
 160 400 160 400 160 512 c 128,-1,1
EndSplineSet
EndChar

StartChar: eth
Encoding: 240 240 178
Width: 1024
GlyphClass: 2
Flags: W
LayerCount: 3
Fore
SplineSet
342 1035 m 1,0,-1
 298 1101 l 1,1,-1
 476 1222 l 1,2,3
 400 1300 400 1300 307 1350 c 1,4,-1
 349 1428 l 1,5,6
 475 1371 475 1371 568 1284 c 1,7,-1
 764 1417 l 1,8,-1
 808 1351 l 1,9,-1
 624 1226 l 1,10,11
 752 1094 752 1094 808 901 c 128,-1,12
 864 708 864 708 864 448 c 0,13,14
 864 363 864 363 857.5 306 c 128,-1,15
 851 249 851 249 830 195 c 0,16,17
 794 104 794 104 713.5 44 c 128,-1,18
 633 -16 633 -16 532 -16 c 0,19,20
 279 -16 279 -16 194 195 c 0,21,22
 172 249 172 249 166 305 c 128,-1,23
 160 361 160 361 160 448 c 0,24,25
 160 613 160 613 190 701 c 0,26,27
 221 793 221 793 300 852.5 c 128,-1,28
 379 912 379 912 492 912 c 0,29,30
 554 912 554 912 599 886.5 c 128,-1,31
 644 861 644 861 690 810 c 1,32,-1
 700 810 l 1,33,34
 661 1009 661 1009 530 1162 c 1,35,-1
 342 1035 l 1,0,-1
512 792 m 128,-1,37
 438 792 438 792 387 757 c 128,-1,38
 336 722 336 722 314 661 c 0,39,40
 288 586 288 586 288 448 c 0,41,42
 288 300 288 300 314 235 c 0,43,44
 339 174 339 174 390.5 139 c 128,-1,45
 442 104 442 104 512 104 c 128,-1,46
 582 104 582 104 633.5 139 c 128,-1,47
 685 174 685 174 710 235 c 0,48,49
 736 300 736 300 736 448 c 0,50,51
 736 604 736 604 714 661 c 0,52,53
 691 722 691 722 638.5 757 c 128,-1,36
 586 792 586 792 512 792 c 128,-1,37
EndSplineSet
EndChar

StartChar: divide
Encoding: 247 247 185
Width: 1024
GlyphClass: 2
Flags: W
LayerCount: 3
Fore
SplineSet
960 636 m 1,0,-1
 960 516 l 1,1,-1
 64 516 l 1,2,-1
 64 636 l 1,3,-1
 960 636 l 1,0,-1
512 336 m 128,-1,5
 562 336 562 336 593 305 c 128,-1,6
 624 274 624 274 624 224 c 128,-1,7
 624 174 624 174 593 143 c 128,-1,8
 562 112 562 112 512 112 c 128,-1,9
 462 112 462 112 431 143 c 128,-1,10
 400 174 400 174 400 224 c 128,-1,11
 400 274 400 274 431 305 c 128,-1,4
 462 336 462 336 512 336 c 128,-1,5
512 1040 m 128,-1,13
 562 1040 562 1040 593 1009 c 128,-1,14
 624 978 624 978 624 928 c 128,-1,15
 624 878 624 878 593 847 c 128,-1,16
 562 816 562 816 512 816 c 128,-1,17
 462 816 462 816 431 847 c 128,-1,18
 400 878 400 878 400 928 c 128,-1,19
 400 978 400 978 431 1009 c 128,-1,12
 462 1040 462 1040 512 1040 c 128,-1,13
EndSplineSet
EndChar

StartChar: oslash
Encoding: 248 248 186
Width: 1024
GlyphClass: 2
Flags: W
LayerCount: 3
Fore
SplineSet
349 183 m 1,0,1
 407 104 407 104 512 104 c 0,2,3
 651 104 651 104 704 235 c 0,4,5
 736 315 736 315 736 512 c 0,6,7
 736 661 736 661 721 731 c 1,8,-1
 349 183 l 1,0,1
810 861 m 1,9,10
 844 796 844 796 854 715 c 128,-1,11
 864 634 864 634 864 512 c 0,12,13
 864 401 864 401 857 330 c 128,-1,14
 850 259 850 259 824 195 c 0,15,16
 787 102 787 102 706.5 43 c 128,-1,17
 626 -16 626 -16 512 -16 c 0,18,19
 370 -16 370 -16 277 77 c 1,20,-1
 205 -28 l 1,21,-1
 123 28 l 1,22,-1
 214 163 l 1,23,24
 180 228 180 228 170 309 c 128,-1,25
 160 390 160 390 160 512 c 0,26,27
 160 623 160 623 167 694 c 128,-1,28
 174 765 174 765 200 829 c 0,29,30
 237 922 237 922 317.5 981 c 128,-1,31
 398 1040 398 1040 512 1040 c 0,32,33
 654 1040 654 1040 747 947 c 1,34,-1
 819 1052 l 1,35,-1
 901 996 l 1,36,-1
 810 861 l 1,9,10
512 920 m 0,37,38
 373 920 373 920 320 789 c 0,39,40
 288 709 288 709 288 512 c 0,41,42
 288 363 288 363 303 293 c 1,43,-1
 675 841 l 1,44,45
 617 920 617 920 512 920 c 0,37,38
EndSplineSet
EndChar

StartChar: thorn
Encoding: 254 254 192
Width: 1024
GlyphClass: 2
Flags: W
LayerCount: 3
Fore
SplineSet
528 104 m 128,-1,1
 595 104 595 104 641.5 147.5 c 128,-1,2
 688 191 688 191 710 256 c 0,3,4
 736 335 736 335 736 512 c 128,-1,5
 736 689 736 689 710 768 c 0,6,7
 688 833 688 833 641.5 876.5 c 128,-1,8
 595 920 595 920 528 920 c 128,-1,9
 461 920 461 920 414.5 876.5 c 128,-1,10
 368 833 368 833 346 768 c 0,11,12
 320 689 320 689 320 512 c 128,-1,13
 320 335 320 335 346 256 c 0,14,15
 368 191 368 191 414.5 147.5 c 128,-1,0
 461 104 461 104 528 104 c 128,-1,1
548 -16 m 0,16,17
 420 -16 420 -16 330 125 c 1,18,-1
 320 125 l 1,19,-1
 320 -384 l 1,20,-1
 192 -384 l 1,21,-1
 192 1408 l 1,22,-1
 320 1408 l 1,23,-1
 320 899 l 1,24,-1
 330 899 l 1,25,26
 420 1040 420 1040 548 1040 c 0,27,28
 647 1040 647 1040 724 977.5 c 128,-1,29
 801 915 801 915 836 803 c 0,30,31
 849 761 849 761 855.5 709 c 128,-1,32
 862 657 862 657 863 620.5 c 128,-1,33
 864 584 864 584 864 512 c 128,-1,34
 864 440 864 440 863 403.5 c 128,-1,35
 862 367 862 367 855.5 315 c 128,-1,36
 849 263 849 263 836 221 c 0,37,38
 801 109 801 109 724 46.5 c 128,-1,39
 647 -16 647 -16 548 -16 c 0,16,17
EndSplineSet
EndChar

StartChar: Aogonek
Encoding: 260 260 198
Width: 1024
GlyphClass: 2
Flags: W
LayerCount: 3
Fore
SplineSet
916 -230 m 0,0,1
 955 -230 955 -230 980 -225 c 1,2,-1
 980 -345 l 1,3,4
 948 -350 948 -350 896 -350 c 0,5,6
 830 -350 830 -350 773.5 -303.5 c 128,-1,7
 717 -257 717 -257 717 -185 c 0,8,9
 717 -82 717 -82 850 0 c 1,10,11
 835 181 835 181 795 388 c 1,12,-1
 229 388 l 1,13,14
 224 357 224 357 214 296.5 c 128,-1,15
 204 236 204 236 198 197 c 128,-1,16
 192 158 192 158 185 103 c 128,-1,17
 178 48 178 48 174 0 c 1,18,-1
 39 0 l 1,19,20
 128 838 128 838 447 1408 c 1,21,-1
 577 1408 l 1,22,23
 896 838 896 838 985 0 c 1,24,25
 907 -37 907 -37 872.5 -72.5 c 128,-1,26
 838 -108 838 -108 838 -158 c 0,27,28
 838 -194 838 -194 861.5 -212 c 128,-1,29
 885 -230 885 -230 916 -230 c 0,0,1
774 508 m 1,30,31
 716 753 716 753 657 938 c 128,-1,32
 598 1123 598 1123 517 1279 c 1,33,-1
 507 1279 l 1,34,35
 426 1123 426 1123 367 938 c 128,-1,36
 308 753 308 753 250 508 c 1,37,-1
 774 508 l 1,30,31
EndSplineSet
EndChar

StartChar: aogonek
Encoding: 261 261 199
Width: 1024
GlyphClass: 2
Flags: W
LayerCount: 3
Fore
SplineSet
768 -230 m 0,0,1
 807 -230 807 -230 832 -225 c 1,2,-1
 832 -345 l 1,3,4
 800 -350 800 -350 748 -350 c 0,5,6
 682 -350 682 -350 625.5 -303.5 c 128,-1,7
 569 -257 569 -257 569 -185 c 0,8,9
 569 -82 569 -82 704 0 c 1,10,-1
 704 123 l 1,11,-1
 694 123 l 1,12,13
 593 -16 593 -16 444 -16 c 0,14,15
 324 -16 324 -16 242 74 c 128,-1,16
 160 164 160 164 160 301 c 0,17,18
 160 445 160 445 248 533 c 0,19,20
 280 564 280 564 316 584 c 128,-1,21
 352 604 352 604 391.5 611.5 c 128,-1,22
 431 619 431 619 453.5 620.5 c 128,-1,23
 476 622 476 622 510 622 c 2,24,-1
 704 622 l 1,25,-1
 704 744 l 2,26,27
 704 831 704 831 686 862 c 0,28,29
 669 891 669 891 637.5 905.5 c 128,-1,30
 606 920 606 920 544 920 c 0,31,32
 424 920 424 920 256 899 c 1,33,-1
 256 1021 l 1,34,35
 421 1040 421 1040 544 1040 c 0,36,37
 630 1040 630 1040 695 1013.5 c 128,-1,38
 760 987 760 987 802 913 c 0,39,40
 832 860 832 860 832 749 c 2,41,-1
 832 0 l 1,42,43
 756 -37 756 -37 723 -72.5 c 128,-1,44
 690 -108 690 -108 690 -158 c 0,45,46
 690 -194 690 -194 713.5 -212 c 128,-1,47
 737 -230 737 -230 768 -230 c 0,0,1
704 512 m 1,48,-1
 508 512 l 2,49,50
 471 512 471 512 450.5 510 c 128,-1,51
 430 508 430 508 399 495.5 c 128,-1,52
 368 483 368 483 344 458 c 0,53,54
 288 399 288 399 288 303 c 0,55,56
 288 218 288 218 336.5 161 c 128,-1,57
 385 104 385 104 468 104 c 0,58,59
 516 104 516 104 553.5 118 c 128,-1,60
 591 132 591 132 615.5 153 c 128,-1,61
 640 174 640 174 657.5 208 c 128,-1,62
 675 242 675 242 683.5 271.5 c 128,-1,63
 692 301 692 301 697 342 c 128,-1,64
 702 383 702 383 703 409 c 128,-1,65
 704 435 704 435 704 471 c 2,66,-1
 704 512 l 1,48,-1
EndSplineSet
EndChar

StartChar: dcaron
Encoding: 271 271 209
Width: 1024
GlyphClass: 2
Flags: W
LayerCount: 3
Fore
SplineSet
896 1408 m 1,0,-1
 1024 1408 l 1,1,-1
 1024 1024 l 1,2,-1
 896 1024 l 1,3,-1
 896 1408 l 1,0,-1
412 1040 m 0,4,5
 540 1040 540 1040 630 899 c 1,6,-1
 640 899 l 1,7,-1
 640 1408 l 1,8,-1
 768 1408 l 1,9,-1
 768 0 l 1,10,-1
 640 0 l 1,11,-1
 640 125 l 1,12,-1
 630 125 l 1,13,14
 540 -16 540 -16 412 -16 c 0,15,16
 313 -16 313 -16 236 46.5 c 128,-1,17
 159 109 159 109 124 221 c 0,18,19
 111 263 111 263 104.5 315 c 128,-1,20
 98 367 98 367 97 403.5 c 128,-1,21
 96 440 96 440 96 512 c 128,-1,22
 96 584 96 584 97 620.5 c 128,-1,23
 98 657 98 657 104.5 709 c 128,-1,24
 111 761 111 761 124 803 c 0,25,26
 159 915 159 915 236 977.5 c 128,-1,27
 313 1040 313 1040 412 1040 c 0,4,5
432 920 m 128,-1,29
 365 920 365 920 318.5 876.5 c 128,-1,30
 272 833 272 833 250 768 c 0,31,32
 224 689 224 689 224 512 c 128,-1,33
 224 335 224 335 250 256 c 0,34,35
 272 191 272 191 318.5 147.5 c 128,-1,36
 365 104 365 104 432 104 c 128,-1,37
 499 104 499 104 545.5 147.5 c 128,-1,38
 592 191 592 191 614 256 c 0,39,40
 640 335 640 335 640 512 c 128,-1,41
 640 689 640 689 614 768 c 0,42,43
 592 833 592 833 545.5 876.5 c 128,-1,28
 499 920 499 920 432 920 c 128,-1,29
EndSplineSet
EndChar

StartChar: Dcroat
Encoding: 272 272 210
Width: 1024
GlyphClass: 2
Flags: W
LayerCount: 3
Fore
SplineSet
848 704 m 128,-1,1
 848 852 848 852 828.5 955 c 128,-1,2
 809 1058 809 1058 761 1126 c 0,3,4
 647 1288 647 1288 410 1288 c 2,5,-1
 320 1288 l 1,6,-1
 320 764 l 1,7,-1
 576 764 l 1,8,-1
 576 644 l 1,9,-1
 320 644 l 1,10,-1
 320 120 l 1,11,-1
 410 120 l 2,12,13
 647 120 647 120 761 282 c 0,14,15
 809 350 809 350 828.5 453 c 128,-1,0
 848 556 848 556 848 704 c 128,-1,1
410 1408 m 2,16,17
 732 1408 732 1408 879 1171 c 0,18,19
 936 1081 936 1081 956 967 c 128,-1,20
 976 853 976 853 976 704 c 128,-1,21
 976 555 976 555 956 441 c 128,-1,22
 936 327 936 327 879 237 c 0,23,24
 732 0 732 0 410 0 c 2,25,-1
 192 0 l 1,26,-1
 192 644 l 1,27,-1
 64 644 l 1,28,-1
 64 764 l 1,29,-1
 192 764 l 1,30,-1
 192 1408 l 1,31,-1
 410 1408 l 2,16,17
EndSplineSet
EndChar

StartChar: dcroat
Encoding: 273 273 211
Width: 1024
GlyphClass: 2
Flags: W
LayerCount: 3
Fore
SplineSet
476 912 m 0,0,1
 604 912 604 912 694 771 c 1,2,-1
 704 771 l 1,3,-1
 704 1156 l 1,4,-1
 320 1156 l 1,5,-1
 320 1276 l 1,6,-1
 704 1276 l 1,7,-1
 704 1408 l 1,8,-1
 832 1408 l 1,9,-1
 832 1276 l 1,10,-1
 960 1276 l 1,11,-1
 960 1156 l 1,12,-1
 832 1156 l 1,13,-1
 832 0 l 1,14,-1
 704 0 l 1,15,-1
 704 125 l 1,16,-1
 694 125 l 1,17,18
 604 -16 604 -16 476 -16 c 0,19,20
 376 -16 376 -16 297 47 c 128,-1,21
 218 110 218 110 183 221 c 0,22,23
 172 255 172 255 167 295 c 128,-1,24
 162 335 162 335 161 363.5 c 128,-1,25
 160 392 160 392 160 448 c 128,-1,26
 160 504 160 504 161 532.5 c 128,-1,27
 162 561 162 561 167 601 c 128,-1,28
 172 641 172 641 183 675 c 0,29,30
 218 786 218 786 297 849 c 128,-1,31
 376 912 376 912 476 912 c 0,0,1
496 792 m 128,-1,33
 428 792 428 792 379 748.5 c 128,-1,34
 330 705 330 705 309 640 c 128,-1,35
 288 575 288 575 288 448 c 128,-1,36
 288 321 288 321 309 256 c 128,-1,37
 330 191 330 191 379 147.5 c 128,-1,38
 428 104 428 104 496 104 c 128,-1,39
 564 104 564 104 613 147.5 c 128,-1,40
 662 191 662 191 683 256 c 128,-1,41
 704 321 704 321 704 448 c 128,-1,42
 704 575 704 575 683 640 c 128,-1,43
 662 705 662 705 613 748.5 c 128,-1,32
 564 792 564 792 496 792 c 128,-1,33
EndSplineSet
EndChar

StartChar: Eogonek
Encoding: 280 280 218
Width: 1024
GlyphClass: 2
Flags: W
LayerCount: 3
Fore
SplineSet
576 -218 m 0,0,1
 615 -218 615 -218 640 -213 c 1,2,-1
 640 -333 l 1,3,4
 607 -338 607 -338 556 -338 c 0,5,6
 490 -338 490 -338 433.5 -291.5 c 128,-1,7
 377 -245 377 -245 377 -173 c 0,8,9
 377 -79 377 -79 494 0 c 1,10,-1
 128 0 l 1,11,-1
 128 1408 l 1,12,-1
 896 1408 l 1,13,-1
 896 1288 l 1,14,-1
 256 1288 l 1,15,-1
 256 768 l 1,16,-1
 768 768 l 1,17,-1
 768 648 l 1,18,-1
 256 648 l 1,19,-1
 256 120 l 1,20,-1
 896 120 l 1,21,-1
 896 0 l 1,22,-1
 617 0 l 1,23,24
 554 -33 554 -33 526 -66.5 c 128,-1,25
 498 -100 498 -100 498 -146 c 0,26,27
 498 -182 498 -182 521.5 -200 c 128,-1,28
 545 -218 545 -218 576 -218 c 0,0,1
EndSplineSet
EndChar

StartChar: eogonek
Encoding: 281 281 219
Width: 1024
GlyphClass: 2
Flags: W
LayerCount: 3
Fore
SplineSet
768 -225 m 0,0,1
 807 -225 807 -225 832 -220 c 1,2,-1
 832 -340 l 1,3,4
 800 -345 800 -345 748 -345 c 0,5,6
 682 -345 682 -345 625.5 -298.5 c 128,-1,7
 569 -252 569 -252 569 -180 c 0,8,9
 569 -86 569 -86 691 -9 c 1,10,11
 598 -16 598 -16 532 -16 c 0,12,13
 408 -16 408 -16 323 42 c 128,-1,14
 238 100 238 100 200 193 c 0,15,16
 174 256 174 256 167 328 c 128,-1,17
 160 400 160 400 160 512 c 0,18,19
 160 591 160 591 161.5 635.5 c 128,-1,20
 163 680 163 680 171.5 738 c 128,-1,21
 180 796 180 796 197 839 c 0,22,23
 230 928 230 928 312.5 984 c 128,-1,24
 395 1040 395 1040 512 1040 c 128,-1,25
 629 1040 629 1040 711.5 984 c 128,-1,26
 794 928 794 928 827 839 c 0,27,28
 844 796 844 796 852.5 738 c 128,-1,29
 861 680 861 680 862.5 635.5 c 128,-1,30
 864 591 864 591 864 512 c 1,31,-1
 288 512 l 1,32,33
 288 444 288 444 289 407.5 c 128,-1,34
 290 371 290 371 297.5 320 c 128,-1,35
 305 269 305 269 320 235 c 0,36,37
 378 104 378 104 532 104 c 0,38,39
 648 104 648 104 832 125 c 1,40,-1
 832 5 l 1,41,42
 756 -32 756 -32 723 -67.5 c 128,-1,43
 690 -103 690 -103 690 -153 c 0,44,45
 690 -189 690 -189 713.5 -207 c 128,-1,46
 737 -225 737 -225 768 -225 c 0,0,1
512 920 m 128,-1,48
 440 920 440 920 389.5 888 c 128,-1,49
 339 856 339 856 317 799 c 0,50,51
 296 751 296 751 290 632 c 1,52,-1
 734 632 l 1,53,54
 728 751 728 751 707 799 c 0,55,56
 685 856 685 856 634.5 888 c 128,-1,47
 584 920 584 920 512 920 c 128,-1,48
EndSplineSet
EndChar

StartChar: hcircumflex
Encoding: 293 293 231
Width: 1024
GlyphClass: 2
Flags: W
LayerCount: 3
Fore
SplineSet
532 912 m 0,0,1
 604 912 604 912 664 883 c 128,-1,2
 724 854 724 854 763 805 c 0,3,4
 788 774 788 774 803 741 c 128,-1,5
 818 708 818 708 823.5 668 c 128,-1,6
 829 628 829 628 830.5 602 c 128,-1,7
 832 576 832 576 832 529 c 2,8,-1
 832 0 l 1,9,-1
 704 0 l 1,10,-1
 704 529 l 2,11,12
 704 584 704 584 702.5 611 c 128,-1,13
 701 638 701 638 690.5 671.5 c 128,-1,14
 680 705 680 705 659 730 c 0,15,16
 605 792 605 792 512 792 c 128,-1,17
 419 792 419 792 365 730 c 0,18,19
 344 705 344 705 333.5 671.5 c 128,-1,20
 323 638 323 638 321.5 611 c 128,-1,21
 320 584 320 584 320 529 c 2,22,-1
 320 0 l 1,23,-1
 192 0 l 1,24,-1
 192 1152 l 1,25,-1
 320 1152 l 1,26,-1
 320 784 l 1,27,-1
 330 784 l 1,28,29
 367 842 367 842 421.5 877 c 128,-1,30
 476 912 476 912 532 912 c 0,0,1
433 1536 m 1,31,-1
 591 1536 l 1,32,-1
 888 1280 l 1,33,-1
 730 1280 l 1,34,-1
 512 1444 l 1,35,-1
 294 1280 l 1,36,-1
 136 1280 l 1,37,-1
 433 1536 l 1,31,-1
EndSplineSet
EndChar

StartChar: Hbar
Encoding: 294 294 232
Width: 1024
GlyphClass: 2
Flags: W
LayerCount: 3
Fore
SplineSet
128 1408 m 1,0,-1
 256 1408 l 1,1,-1
 256 1276 l 1,2,-1
 768 1276 l 1,3,-1
 768 1408 l 1,4,-1
 896 1408 l 1,5,-1
 896 1276 l 1,6,-1
 1024 1276 l 1,7,-1
 1024 1156 l 1,8,-1
 896 1156 l 1,9,-1
 896 0 l 1,10,-1
 768 0 l 1,11,-1
 768 641 l 1,12,-1
 256 641 l 1,13,-1
 256 0 l 1,14,-1
 128 0 l 1,15,-1
 128 1156 l 1,16,-1
 0 1156 l 1,17,-1
 0 1276 l 1,18,-1
 128 1276 l 1,19,-1
 128 1408 l 1,0,-1
256 1156 m 1,20,-1
 256 761 l 1,21,-1
 768 761 l 1,22,-1
 768 1156 l 1,23,-1
 256 1156 l 1,20,-1
EndSplineSet
EndChar

StartChar: hbar
Encoding: 295 295 233
Width: 1024
GlyphClass: 2
Flags: W
LayerCount: 3
Fore
SplineSet
532 912 m 0,0,1
 604 912 604 912 664 883 c 128,-1,2
 724 854 724 854 763 805 c 0,3,4
 788 774 788 774 803 741 c 128,-1,5
 818 708 818 708 823.5 668 c 128,-1,6
 829 628 829 628 830.5 602 c 128,-1,7
 832 576 832 576 832 529 c 2,8,-1
 832 0 l 1,9,-1
 704 0 l 1,10,-1
 704 529 l 2,11,12
 704 584 704 584 702.5 611 c 128,-1,13
 701 638 701 638 690.5 671.5 c 128,-1,14
 680 705 680 705 659 730 c 0,15,16
 605 792 605 792 512 792 c 128,-1,17
 419 792 419 792 365 730 c 0,18,19
 344 705 344 705 333.5 671.5 c 128,-1,20
 323 638 323 638 321.5 611 c 128,-1,21
 320 584 320 584 320 529 c 2,22,-1
 320 0 l 1,23,-1
 192 0 l 1,24,-1
 192 1156 l 1,25,-1
 64 1156 l 1,26,-1
 64 1276 l 1,27,-1
 192 1276 l 1,28,-1
 192 1408 l 1,29,-1
 320 1408 l 1,30,-1
 320 1276 l 1,31,-1
 704 1276 l 1,32,-1
 704 1156 l 1,33,-1
 320 1156 l 1,34,-1
 320 784 l 1,35,-1
 330 784 l 1,36,37
 367 842 367 842 421.5 877 c 128,-1,38
 476 912 476 912 532 912 c 0,0,1
EndSplineSet
EndChar

StartChar: Iogonek
Encoding: 302 302 240
Width: 1024
GlyphClass: 2
Flags: W
LayerCount: 3
Fore
SplineSet
768 -230 m 0,0,1
 807 -230 807 -230 832 -225 c 1,2,-1
 832 -345 l 1,3,4
 800 -350 800 -350 748 -350 c 0,5,6
 682 -350 682 -350 625.5 -303.5 c 128,-1,7
 569 -257 569 -257 569 -185 c 0,8,9
 569 -82 569 -82 704 0 c 1,10,-1
 192 0 l 1,11,-1
 192 120 l 1,12,-1
 448 120 l 1,13,-1
 448 1288 l 1,14,-1
 192 1288 l 1,15,-1
 192 1408 l 1,16,-1
 832 1408 l 1,17,-1
 832 1288 l 1,18,-1
 576 1288 l 1,19,-1
 576 120 l 1,20,-1
 832 120 l 1,21,-1
 832 0 l 1,22,23
 756 -37 756 -37 723 -72.5 c 128,-1,24
 690 -108 690 -108 690 -158 c 0,25,26
 690 -194 690 -194 713.5 -212 c 128,-1,27
 737 -230 737 -230 768 -230 c 0,0,1
EndSplineSet
EndChar

StartChar: iogonek
Encoding: 303 303 241
Width: 1024
GlyphClass: 2
Flags: W
LayerCount: 3
Fore
SplineSet
576 -230 m 0,0,1
 615 -230 615 -230 640 -225 c 1,2,-1
 640 -345 l 1,3,4
 607 -350 607 -350 556 -350 c 0,5,6
 490 -350 490 -350 433.5 -303.5 c 128,-1,7
 377 -257 377 -257 377 -185 c 0,8,9
 377 -82 377 -82 512 0 c 1,10,-1
 512 904 l 1,11,-1
 256 904 l 1,12,-1
 256 1024 l 1,13,-1
 640 1024 l 1,14,-1
 640 0 l 1,15,16
 564 -37 564 -37 531 -72.5 c 128,-1,17
 498 -108 498 -108 498 -158 c 0,18,19
 498 -194 498 -194 521.5 -212 c 128,-1,20
 545 -230 545 -230 576 -230 c 0,0,1
544 1424 m 128,-1,22
 594 1424 594 1424 625 1393 c 128,-1,23
 656 1362 656 1362 656 1312 c 128,-1,24
 656 1262 656 1262 625 1231 c 128,-1,25
 594 1200 594 1200 544 1200 c 128,-1,26
 494 1200 494 1200 463 1231 c 128,-1,27
 432 1262 432 1262 432 1312 c 128,-1,28
 432 1362 432 1362 463 1393 c 128,-1,21
 494 1424 494 1424 544 1424 c 128,-1,22
EndSplineSet
EndChar

StartChar: dotlessi
Encoding: 305 305 243
Width: 1024
GlyphClass: 2
Flags: W
LayerCount: 3
Fore
SplineSet
512 0 m 1,0,-1
 512 904 l 1,1,-1
 256 904 l 1,2,-1
 256 1024 l 1,3,-1
 640 1024 l 1,4,-1
 640 0 l 1,5,-1
 512 0 l 1,0,-1
EndSplineSet
EndChar

StartChar: IJ
Encoding: 306 306 244
Width: 1024
GlyphClass: 2
Flags: W
LayerCount: 3
Fore
SplineSet
832 129 m 2,0,-1
 832 1280 l 1,1,-1
 960 1280 l 1,2,-1
 960 129 l 2,3,4
 960 54 960 54 958.5 11.5 c 128,-1,5
 957 -31 957 -31 947.5 -88.5 c 128,-1,6
 938 -146 938 -146 920 -190 c 0,7,8
 881 -283 881 -283 802 -341 c 128,-1,9
 723 -399 723 -399 608 -399 c 0,10,11
 510 -399 510 -399 320 -375 c 1,12,-1
 320 -254 l 1,13,14
 495 -279 495 -279 601 -279 c 0,15,16
 742 -279 742 -279 800 -148 c 0,17,18
 815 -114 815 -114 822.5 -63 c 128,-1,19
 830 -12 830 -12 831 24.5 c 128,-1,20
 832 61 832 61 832 129 c 2,0,-1
448 1280 m 1,21,-1
 448 1160 l 1,22,-1
 320 1160 l 1,23,-1
 320 120 l 1,24,-1
 448 120 l 1,25,-1
 448 0 l 1,26,-1
 64 0 l 1,27,-1
 64 120 l 1,28,-1
 192 120 l 1,29,-1
 192 1160 l 1,30,-1
 64 1160 l 1,31,-1
 64 1280 l 1,32,-1
 448 1280 l 1,21,-1
EndSplineSet
EndChar

StartChar: ij
Encoding: 307 307 245
Width: 1024
GlyphClass: 2
Flags: W
LayerCount: 3
Fore
SplineSet
320 -265 m 1,0,1
 423 -280 423 -280 512 -280 c 0,2,3
 609 -280 609 -280 661 -218 c 0,4,5
 681 -193 681 -193 691 -158.5 c 128,-1,6
 701 -124 701 -124 702.5 -97 c 128,-1,7
 704 -70 704 -70 704 -14 c 2,8,-1
 704 904 l 1,9,-1
 576 904 l 1,10,-1
 576 1024 l 1,11,-1
 832 1024 l 1,12,-1
 832 -24 l 2,13,14
 832 -85 832 -85 829.5 -119 c 128,-1,15
 827 -153 827 -153 811.5 -203.5 c 128,-1,16
 796 -254 796 -254 764 -292 c 0,17,18
 675 -400 675 -400 522 -400 c 0,19,20
 420 -400 420 -400 320 -385 c 1,21,-1
 320 -265 l 1,0,1
736 1424 m 128,-1,23
 786 1424 786 1424 817 1393 c 128,-1,24
 848 1362 848 1362 848 1312 c 128,-1,25
 848 1262 848 1262 817 1231 c 128,-1,26
 786 1200 786 1200 736 1200 c 128,-1,27
 686 1200 686 1200 655 1231 c 128,-1,28
 624 1262 624 1262 624 1312 c 128,-1,29
 624 1362 624 1362 655 1393 c 128,-1,22
 686 1424 686 1424 736 1424 c 128,-1,23
224 1424 m 128,-1,31
 274 1424 274 1424 305 1393 c 128,-1,32
 336 1362 336 1362 336 1312 c 128,-1,33
 336 1262 336 1262 305 1231 c 128,-1,34
 274 1200 274 1200 224 1200 c 128,-1,35
 174 1200 174 1200 143 1231 c 128,-1,36
 112 1262 112 1262 112 1312 c 128,-1,37
 112 1362 112 1362 143 1393 c 128,-1,30
 174 1424 174 1424 224 1424 c 128,-1,31
64 0 m 1,38,-1
 64 120 l 1,39,-1
 192 120 l 1,40,-1
 192 904 l 1,41,-1
 64 904 l 1,42,-1
 64 1024 l 1,43,-1
 320 1024 l 1,44,-1
 320 120 l 1,45,-1
 448 120 l 1,46,-1
 448 0 l 1,47,-1
 64 0 l 1,38,-1
EndSplineSet
EndChar

StartChar: kgreenlandic
Encoding: 312 312 250
Width: 1024
GlyphClass: 2
Flags: W
LayerCount: 3
Fore
SplineSet
320 0 m 1,0,-1
 192 0 l 1,1,-1
 192 1024 l 1,2,-1
 320 1024 l 1,3,-1
 320 607 l 1,4,-1
 720 1024 l 1,5,-1
 891 1024 l 1,6,-1
 528 645 l 1,7,-1
 938 0 l 1,8,-1
 782 0 l 1,9,-1
 445 560 l 1,10,-1
 320 435 l 1,11,-1
 320 0 l 1,0,-1
EndSplineSet
EndChar

StartChar: Lcaron
Encoding: 317 317 255
Width: 1024
GlyphClass: 2
Flags: W
LayerCount: 3
Fore
SplineSet
128 0 m 1,0,-1
 128 1408 l 1,1,-1
 256 1408 l 1,2,-1
 256 120 l 1,3,-1
 896 120 l 1,4,-1
 896 0 l 1,5,-1
 128 0 l 1,0,-1
640 1408 m 1,6,-1
 768 1408 l 1,7,-1
 768 1024 l 1,8,-1
 640 1024 l 1,9,-1
 640 1408 l 1,6,-1
EndSplineSet
EndChar

StartChar: lcaron
Encoding: 318 318 256
Width: 1024
GlyphClass: 2
Flags: W
LayerCount: 3
Fore
SplineSet
640 -11 m 1,0,1
 545 -16 545 -16 502 -16 c 0,2,3
 395 -16 395 -16 329 52 c 0,4,5
 295 87 295 87 278 133.5 c 128,-1,6
 261 180 261 180 258.5 207.5 c 128,-1,7
 256 235 256 235 256 279 c 2,8,-1
 256 1408 l 1,9,-1
 384 1408 l 1,10,-1
 384 279 l 2,11,12
 384 248 384 248 385 231 c 128,-1,13
 386 214 386 214 392.5 190 c 128,-1,14
 399 166 399 166 412 148 c 0,15,16
 445 104 445 104 512 104 c 0,17,18
 580 104 580 104 640 109 c 1,19,-1
 640 -11 l 1,0,1
768 1408 m 1,20,-1
 896 1408 l 1,21,-1
 896 1024 l 1,22,-1
 768 1024 l 1,23,-1
 768 1408 l 1,20,-1
EndSplineSet
EndChar

StartChar: Ldot
Encoding: 319 319 257
Width: 1024
GlyphClass: 2
Flags: W
LayerCount: 3
Fore
SplineSet
576 944 m 128,-1,1
 626 944 626 944 657 913 c 128,-1,2
 688 882 688 882 688 832 c 128,-1,3
 688 782 688 782 657 751 c 128,-1,4
 626 720 626 720 576 720 c 128,-1,5
 526 720 526 720 495 751 c 128,-1,6
 464 782 464 782 464 832 c 128,-1,7
 464 882 464 882 495 913 c 128,-1,0
 526 944 526 944 576 944 c 128,-1,1
128 0 m 1,8,-1
 128 1408 l 1,9,-1
 256 1408 l 1,10,-1
 256 120 l 1,11,-1
 896 120 l 1,12,-1
 896 0 l 1,13,-1
 128 0 l 1,8,-1
EndSplineSet
EndChar

StartChar: ldot
Encoding: 320 320 258
Width: 1024
GlyphClass: 2
Flags: W
LayerCount: 3
Fore
SplineSet
640 -11 m 1,0,1
 545 -16 545 -16 502 -16 c 0,2,3
 395 -16 395 -16 329 52 c 0,4,5
 295 87 295 87 278 133.5 c 128,-1,6
 261 180 261 180 258.5 207.5 c 128,-1,7
 256 235 256 235 256 279 c 2,8,-1
 256 1408 l 1,9,-1
 384 1408 l 1,10,-1
 384 279 l 2,11,12
 384 248 384 248 385 231 c 128,-1,13
 386 214 386 214 392.5 190 c 128,-1,14
 399 166 399 166 412 148 c 0,15,16
 445 104 445 104 512 104 c 0,17,18
 580 104 580 104 640 109 c 1,19,-1
 640 -11 l 1,0,1
704 944 m 128,-1,21
 754 944 754 944 785 913 c 128,-1,22
 816 882 816 882 816 832 c 128,-1,23
 816 782 816 782 785 751 c 128,-1,24
 754 720 754 720 704 720 c 128,-1,25
 654 720 654 720 623 751 c 128,-1,26
 592 782 592 782 592 832 c 128,-1,27
 592 882 592 882 623 913 c 128,-1,20
 654 944 654 944 704 944 c 128,-1,21
EndSplineSet
EndChar

StartChar: Lslash
Encoding: 321 321 259
Width: 1024
GlyphClass: 2
Flags: W
LayerCount: 3
Fore
SplineSet
30 467 m 1,0,-1
 320 674 l 1,1,-1
 320 1408 l 1,2,-1
 448 1408 l 1,3,-1
 448 765 l 1,4,-1
 668 922 l 1,5,-1
 743 825 l 1,6,-1
 448 614 l 1,7,-1
 448 120 l 1,8,-1
 960 120 l 1,9,-1
 960 0 l 1,10,-1
 320 0 l 1,11,-1
 320 523 l 1,12,-1
 100 366 l 1,13,-1
 30 467 l 1,0,-1
EndSplineSet
EndChar

StartChar: lslash
Encoding: 322 322 260
Width: 1024
GlyphClass: 2
Flags: W
LayerCount: 3
Fore
SplineSet
448 674 m 1,0,-1
 448 1408 l 1,1,-1
 576 1408 l 1,2,-1
 576 765 l 1,3,-1
 796 922 l 1,4,-1
 871 825 l 1,5,-1
 576 614 l 1,6,-1
 576 279 l 2,7,8
 576 248 576 248 577 231 c 128,-1,9
 578 214 578 214 584.5 190 c 128,-1,10
 591 166 591 166 604 148 c 0,11,12
 637 104 637 104 704 104 c 0,13,14
 745 104 745 104 832 121 c 1,15,-1
 832 -2 l 1,16,17
 746 -16 746 -16 694 -16 c 0,18,19
 587 -16 587 -16 521 52 c 0,20,21
 487 87 487 87 470 133.5 c 128,-1,22
 453 180 453 180 450.5 207.5 c 128,-1,23
 448 235 448 235 448 279 c 2,24,-1
 448 523 l 1,25,-1
 228 366 l 1,26,-1
 158 467 l 1,27,-1
 448 674 l 1,0,-1
EndSplineSet
EndChar

StartChar: napostrophe
Encoding: 329 329 267
Width: 1024
GlyphClass: 2
Flags: W
LayerCount: 3
Fore
SplineSet
320 1319 m 2,0,1
 320 1278 320 1278 318.5 1254 c 128,-1,2
 317 1230 317 1230 304.5 1190.5 c 128,-1,3
 292 1151 292 1151 268 1119 c 0,4,5
 198 1024 198 1024 64 1024 c 1,6,-1
 64 1144 l 1,7,8
 130 1144 130 1144 164 1189 c 0,9,10
 177 1206 177 1206 183.5 1229.5 c 128,-1,11
 190 1253 190 1253 191 1269.5 c 128,-1,12
 192 1286 192 1286 192 1319 c 2,13,-1
 192 1424 l 1,14,-1
 320 1424 l 1,15,-1
 320 1319 l 2,0,1
596 1040 m 0,16,17
 668 1040 668 1040 728 1011 c 128,-1,18
 788 982 788 982 827 933 c 0,19,20
 852 902 852 902 867 869 c 128,-1,21
 882 836 882 836 887.5 796 c 128,-1,22
 893 756 893 756 894.5 730 c 128,-1,23
 896 704 896 704 896 657 c 2,24,-1
 896 0 l 1,25,-1
 768 0 l 1,26,-1
 768 657 l 2,27,28
 768 712 768 712 766.5 739 c 128,-1,29
 765 766 765 766 754.5 799.5 c 128,-1,30
 744 833 744 833 723 858 c 0,31,32
 669 920 669 920 576 920 c 128,-1,33
 483 920 483 920 429 858 c 0,34,35
 408 833 408 833 397.5 799.5 c 128,-1,36
 387 766 387 766 385.5 739 c 128,-1,37
 384 712 384 712 384 657 c 2,38,-1
 384 0 l 1,39,-1
 256 0 l 1,40,-1
 256 1024 l 1,41,-1
 384 1024 l 1,42,-1
 384 912 l 1,43,-1
 394 912 l 1,44,45
 431 970 431 970 485.5 1005 c 128,-1,46
 540 1040 540 1040 596 1040 c 0,16,17
EndSplineSet
EndChar

StartChar: Eng
Encoding: 330 330 268
Width: 1024
GlyphClass: 2
Flags: W
LayerCount: 3
Fore
SplineSet
256 0 m 1,0,-1
 128 0 l 1,1,-1
 128 1408 l 1,2,-1
 255 1408 l 1,3,-1
 758 290 l 1,4,-1
 768 290 l 1,5,-1
 768 1408 l 1,6,-1
 896 1408 l 1,7,-1
 896 104 l 2,8,9
 896 43 896 43 894 9.5 c 128,-1,10
 892 -24 892 -24 876 -75 c 128,-1,11
 860 -126 860 -126 828 -164 c 0,12,13
 739 -272 739 -272 586 -272 c 0,14,15
 489 -272 489 -272 384 -237 c 1,16,-1
 384 -109 l 1,17,18
 492 -152 492 -152 576 -152 c 0,19,20
 657 -152 657 -152 705.5 -109.5 c 128,-1,21
 754 -67 754 -67 764 7 c 1,22,-1
 266 1118 l 1,23,-1
 256 1118 l 1,24,-1
 256 0 l 1,0,-1
EndSplineSet
EndChar

StartChar: eng
Encoding: 331 331 269
Width: 1024
GlyphClass: 2
Flags: W
LayerCount: 3
Fore
SplineSet
532 1040 m 0,0,1
 604 1040 604 1040 664 1011 c 128,-1,2
 724 982 724 982 763 933 c 0,3,4
 788 902 788 902 803 869 c 128,-1,5
 818 836 818 836 823.5 796 c 128,-1,6
 829 756 829 756 830.5 730 c 128,-1,7
 832 704 832 704 832 657 c 2,8,-1
 832 23 l 2,9,10
 832 -18 832 -18 830.5 -42 c 128,-1,11
 829 -66 829 -66 816.5 -105.5 c 128,-1,12
 804 -145 804 -145 780 -177 c 0,13,14
 710 -272 710 -272 576 -272 c 0,15,16
 504 -272 504 -272 448 -260 c 1,17,-1
 448 -140 l 1,18,19
 500 -152 500 -152 576 -152 c 0,20,21
 642 -152 642 -152 676 -107 c 0,22,23
 689 -90 689 -90 695.5 -66.5 c 128,-1,24
 702 -43 702 -43 703 -26.5 c 128,-1,25
 704 -10 704 -10 704 23 c 2,26,-1
 704 657 l 2,27,28
 704 712 704 712 702.5 739 c 128,-1,29
 701 766 701 766 690.5 799.5 c 128,-1,30
 680 833 680 833 659 858 c 0,31,32
 605 920 605 920 512 920 c 128,-1,33
 419 920 419 920 365 858 c 0,34,35
 344 833 344 833 333.5 799.5 c 128,-1,36
 323 766 323 766 321.5 739 c 128,-1,37
 320 712 320 712 320 657 c 2,38,-1
 320 0 l 1,39,-1
 192 0 l 1,40,-1
 192 1024 l 1,41,-1
 320 1024 l 1,42,-1
 320 912 l 1,43,-1
 330 912 l 1,44,45
 367 970 367 970 421.5 1005 c 128,-1,46
 476 1040 476 1040 532 1040 c 0,0,1
EndSplineSet
EndChar

StartChar: OE
Encoding: 338 338 276
Width: 1024
GlyphClass: 2
Flags: W
LayerCount: 3
Fore
SplineSet
576 1288 m 1,0,1
 576 1288 576 1288 448 1288 c 0,2,3
 348 1288 348 1288 293 1240 c 128,-1,4
 238 1192 238 1192 214 1101 c 0,5,6
 176 961 176 961 176 704 c 128,-1,7
 176 447 176 447 214 307 c 0,8,9
 238 216 238 216 293 168 c 128,-1,10
 348 120 348 120 448 120 c 2,11,-1
 576 120 l 1,12,-1
 576 1288 l 1,0,1
48 704 m 128,-1,14
 48 897 48 897 70.5 1045.5 c 128,-1,15
 93 1194 93 1194 161 1282 c 0,16,17
 258 1408 258 1408 448 1408 c 2,18,-1
 960 1408 l 1,19,-1
 960 1288 l 1,20,-1
 704 1288 l 1,21,-1
 704 764 l 1,22,-1
 960 764 l 1,23,-1
 960 644 l 1,24,-1
 704 644 l 1,25,-1
 704 120 l 1,26,-1
 960 120 l 1,27,-1
 960 0 l 1,28,-1
 448 0 l 2,29,30
 258 0 258 0 161 126 c 0,31,32
 93 214 93 214 70.5 362.5 c 128,-1,13
 48 511 48 511 48 704 c 128,-1,14
EndSplineSet
EndChar

StartChar: oe
Encoding: 339 339 277
Width: 1024
GlyphClass: 2
Flags: W
LayerCount: 3
Fore
SplineSet
304 104 m 128,-1,1
 345 104 345 104 381 151 c 0,2,3
 422 205 422 205 435 295 c 128,-1,4
 448 385 448 385 448 512 c 0,5,6
 448 641 448 641 435.5 730 c 128,-1,7
 423 819 423 819 381 873 c 0,8,9
 345 920 345 920 304 920 c 128,-1,10
 263 920 263 920 227 873 c 0,11,12
 186 819 186 819 173 729 c 128,-1,13
 160 639 160 639 160 512 c 0,14,15
 160 383 160 383 172.5 294 c 128,-1,16
 185 205 185 205 227 151 c 0,17,0
 263 104 263 104 304 104 c 128,-1,1
304 1040 m 0,18,19
 452 1040 452 1040 508 863 c 1,20,-1
 518 863 l 1,21,22
 590 1040 590 1040 726 1040 c 0,23,24
 822 1040 822 1040 884.5 970 c 128,-1,25
 947 900 947 900 971 802 c 0,26,27
 990 725 990 725 990 577 c 2,28,-1
 990 512 l 1,29,-1
 576 512 l 1,30,-1
 576 469 l 2,31,32
 576 417 576 417 578 379 c 128,-1,33
 580 341 580 341 586 295 c 128,-1,34
 592 249 592 249 605.5 218 c 128,-1,35
 619 187 619 187 639 159.5 c 128,-1,36
 659 132 659 132 692 118 c 128,-1,37
 725 104 725 104 768 104 c 0,38,39
 799 104 799 104 960 117 c 1,40,-1
 960 -3 l 1,41,42
 823 -16 823 -16 765 -16 c 0,43,44
 595 -16 595 -16 520 148 c 1,45,-1
 510 148 l 1,46,47
 486 75 486 75 435 29.5 c 128,-1,48
 384 -16 384 -16 304 -16 c 0,49,50
 241 -16 241 -16 188 20 c 0,51,52
 146 48 146 48 116.5 90 c 128,-1,53
 87 132 87 132 71 175.5 c 128,-1,54
 55 219 55 219 46 280 c 128,-1,55
 37 341 37 341 34.5 391 c 128,-1,56
 32 441 32 441 32 512 c 128,-1,57
 32 583 32 583 34.5 633 c 128,-1,58
 37 683 37 683 46 744 c 128,-1,59
 55 805 55 805 71 848.5 c 128,-1,60
 87 892 87 892 116.5 934 c 128,-1,61
 146 976 146 976 188 1004 c 0,62,63
 241 1040 241 1040 304 1040 c 0,18,19
863 632 m 1,64,65
 859 811 859 811 811 873 c 0,66,67
 774 920 774 920 726 920 c 0,68,69
 676 920 676 920 643.5 877.5 c 128,-1,70
 611 835 611 835 594 773 c 0,71,72
 579 717 579 717 577 632 c 1,73,-1
 863 632 l 1,64,65
EndSplineSet
EndChar

StartChar: Scedilla
Encoding: 350 350 288
Width: 1024
GlyphClass: 2
Flags: W
LayerCount: 3
Fore
SplineSet
640 4 m 1,0,1
 638 -109 638 -109 588 -178 c 0,2,3
 555 -222 555 -222 499 -247.5 c 128,-1,4
 443 -273 443 -273 374 -273 c 0,5,6
 331 -273 331 -273 256 -266 c 1,7,-1
 256 -146 l 1,8,9
 333 -153 333 -153 374 -153 c 0,10,11
 507 -153 507 -153 512 -16 c 1,12,-1
 492 -16 l 2,13,14
 331 -16 331 -16 122 16 c 1,15,-1
 122 139 l 1,16,17
 347 104 347 104 492 104 c 0,18,19
 630 104 630 104 714 179 c 128,-1,20
 798 254 798 254 798 385 c 0,21,22
 798 462 798 462 763 521 c 128,-1,23
 728 580 728 580 672 613 c 0,24,25
 626 641 626 641 502 660 c 128,-1,26
 378 679 378 679 337 694 c 0,27,28
 229 733 229 733 163.5 823.5 c 128,-1,29
 98 914 98 914 98 1045 c 0,30,31
 98 1211 98 1211 210 1317.5 c 128,-1,32
 322 1424 322 1424 492 1424 c 0,33,34
 631 1424 631 1424 862 1399 c 1,35,-1
 862 1278 l 1,36,37
 614 1304 614 1304 492 1304 c 0,38,39
 375 1304 375 1304 300.5 1232 c 128,-1,40
 226 1160 226 1160 226 1045 c 0,41,42
 226 966 226 966 261 907.5 c 128,-1,43
 296 849 296 849 354 819 c 0,44,45
 392 799 392 799 528.5 777 c 128,-1,46
 665 755 665 755 722 725 c 0,47,48
 811 678 811 678 868.5 589 c 128,-1,49
 926 500 926 500 926 385 c 0,50,51
 926 243 926 243 848.5 142.5 c 128,-1,52
 771 42 771 42 640 4 c 1,0,1
EndSplineSet
EndChar

StartChar: scedilla
Encoding: 351 351 289
Width: 1024
GlyphClass: 2
Flags: W
LayerCount: 3
Fore
SplineSet
511 1040 m 0,0,1
 625 1040 625 1040 822 1019 c 1,2,-1
 822 899 l 1,3,4
 600 920 600 920 511 920 c 0,5,6
 416 920 416 920 357 881 c 128,-1,7
 298 842 298 842 298 760 c 0,8,9
 298 712 298 712 324 675 c 128,-1,10
 350 638 350 638 390 620 c 0,11,12
 435 600 435 600 539 589.5 c 128,-1,13
 643 579 643 579 695 555 c 0,14,15
 768 521 768 521 816 451 c 128,-1,16
 864 381 864 381 864 291 c 0,17,18
 864 203 864 203 821.5 135 c 128,-1,19
 779 67 779 67 704 28 c 1,20,21
 704 -16 704 -16 701.5 -44 c 128,-1,22
 699 -72 699 -72 687 -109.5 c 128,-1,23
 675 -147 675 -147 652 -178 c 0,24,25
 619 -222 619 -222 563 -247.5 c 128,-1,26
 507 -273 507 -273 438 -273 c 0,27,28
 395 -273 395 -273 320 -266 c 1,29,-1
 320 -146 l 1,30,31
 397 -153 397 -153 438 -153 c 0,32,33
 571 -153 571 -153 576 -12 c 1,34,35
 548 -16 548 -16 512 -16 c 0,36,37
 471 -16 471 -16 425 -13.5 c 128,-1,38
 379 -11 379 -11 349.5 -8.5 c 128,-1,39
 320 -6 320 -6 266.5 -1 c 128,-1,40
 213 4 213 4 192 6 c 1,41,-1
 192 125 l 1,42,43
 425 104 425 104 512 104 c 0,44,45
 611 104 611 104 673.5 153.5 c 128,-1,46
 736 203 736 203 736 291 c 0,47,48
 736 346 736 346 709 386.5 c 128,-1,49
 682 427 682 427 639 447 c 0,50,51
 595 468 595 468 490.5 478.5 c 128,-1,52
 386 489 386 489 334 512 c 0,53,54
 264 543 264 543 217 609 c 128,-1,55
 170 675 170 675 170 760 c 0,56,57
 170 894 170 894 266.5 967 c 128,-1,58
 363 1040 363 1040 511 1040 c 0,0,1
EndSplineSet
EndChar

StartChar: uni0162
Encoding: 354 354 292
Width: 1024
GlyphClass: 2
Flags: W
LayerCount: 3
Fore
SplineSet
576 23 m 2,0,1
 576 -18 576 -18 574.5 -42 c 128,-1,2
 573 -66 573 -66 560.5 -105.5 c 128,-1,3
 548 -145 548 -145 524 -177 c 0,4,5
 454 -272 454 -272 320 -272 c 0,6,7
 272 -272 272 -272 192 -255 c 1,8,-1
 192 -132 l 1,9,10
 279 -152 279 -152 320 -152 c 0,11,12
 386 -152 386 -152 420 -107 c 0,13,14
 433 -90 433 -90 439.5 -66.5 c 128,-1,15
 446 -43 446 -43 447 -26.5 c 128,-1,16
 448 -10 448 -10 448 23 c 2,17,-1
 448 1288 l 1,18,-1
 64 1288 l 1,19,-1
 64 1408 l 1,20,-1
 960 1408 l 1,21,-1
 960 1288 l 1,22,-1
 576 1288 l 1,23,-1
 576 23 l 2,0,1
EndSplineSet
EndChar

StartChar: uni0163
Encoding: 355 355 293
Width: 1024
GlyphClass: 2
Flags: W
LayerCount: 3
Fore
SplineSet
576 -11 m 1,0,1
 457 8 457 8 388 92 c 0,2,3
 356 130 356 130 340 181 c 128,-1,4
 324 232 324 232 322 266 c 128,-1,5
 320 300 320 300 320 360 c 2,6,-1
 320 898 l 1,7,-1
 64 898 l 1,8,-1
 64 1024 l 1,9,-1
 320 1024 l 1,10,-1
 320 1280 l 1,11,-1
 448 1280 l 1,12,-1
 448 1024 l 1,13,-1
 832 1024 l 1,14,-1
 832 898 l 1,15,-1
 448 898 l 1,16,-1
 448 370 l 2,17,18
 448 315 448 315 449.5 288 c 128,-1,19
 451 261 451 261 461 226 c 128,-1,20
 471 191 471 191 491 166 c 0,21,22
 543 104 543 104 650 104 c 0,23,24
 721 104 721 104 832 119 c 1,25,-1
 832 -1 l 1,26,27
 778 -9 778 -9 703 -14 c 1,28,29
 699 -114 699 -114 652 -178 c 0,30,31
 619 -222 619 -222 563 -247.5 c 128,-1,32
 507 -273 507 -273 438 -273 c 0,33,34
 395 -273 395 -273 320 -266 c 1,35,-1
 320 -146 l 1,36,37
 397 -153 397 -153 438 -153 c 0,38,39
 573 -153 573 -153 576 -11 c 1,0,1
EndSplineSet
EndChar

StartChar: tcaron
Encoding: 357 357 295
Width: 1024
GlyphClass: 2
Flags: W
LayerCount: 3
Fore
SplineSet
832 -1 m 1,0,1
 725 -16 725 -16 640 -16 c 0,2,3
 560 -16 560 -16 494.5 13 c 128,-1,4
 429 42 429 42 388 92 c 0,5,6
 356 130 356 130 340 181 c 128,-1,7
 324 232 324 232 322 266 c 128,-1,8
 320 300 320 300 320 360 c 2,9,-1
 320 770 l 1,10,-1
 64 770 l 1,11,-1
 64 896 l 1,12,-1
 320 896 l 1,13,-1
 320 1280 l 1,14,-1
 448 1280 l 1,15,-1
 448 896 l 1,16,-1
 832 896 l 1,17,-1
 832 770 l 1,18,-1
 448 770 l 1,19,-1
 448 370 l 2,20,21
 448 315 448 315 449.5 288 c 128,-1,22
 451 261 451 261 461 226 c 128,-1,23
 471 191 471 191 491 166 c 0,24,25
 543 104 543 104 650 104 c 0,26,27
 721 104 721 104 832 119 c 1,28,-1
 832 -1 l 1,0,1
704 1536 m 1,29,-1
 832 1536 l 1,30,-1
 832 1152 l 1,31,-1
 704 1152 l 1,32,-1
 704 1536 l 1,29,-1
EndSplineSet
EndChar

StartChar: Tbar
Encoding: 358 358 296
Width: 1024
GlyphClass: 2
Flags: W
LayerCount: 3
Fore
SplineSet
960 1408 m 1,0,-1
 960 1288 l 1,1,-1
 576 1288 l 1,2,-1
 576 764 l 1,3,-1
 832 764 l 1,4,-1
 832 644 l 1,5,-1
 576 644 l 1,6,-1
 576 0 l 1,7,-1
 448 0 l 1,8,-1
 448 644 l 1,9,-1
 192 644 l 1,10,-1
 192 764 l 1,11,-1
 448 764 l 1,12,-1
 448 1288 l 1,13,-1
 64 1288 l 1,14,-1
 64 1408 l 1,15,-1
 960 1408 l 1,0,-1
EndSplineSet
EndChar

StartChar: tbar
Encoding: 359 359 297
Width: 1024
GlyphClass: 2
Flags: W
LayerCount: 3
Fore
SplineSet
832 -1 m 1,0,1
 725 -16 725 -16 640 -16 c 0,2,3
 560 -16 560 -16 494.5 13 c 128,-1,4
 429 42 429 42 388 92 c 0,5,6
 356 130 356 130 340 181 c 128,-1,7
 324 232 324 232 322 266 c 128,-1,8
 320 300 320 300 320 360 c 2,9,-1
 320 520 l 1,10,-1
 64 520 l 1,11,-1
 64 640 l 1,12,-1
 320 640 l 1,13,-1
 320 898 l 1,14,-1
 64 898 l 1,15,-1
 64 1024 l 1,16,-1
 320 1024 l 1,17,-1
 320 1280 l 1,18,-1
 448 1280 l 1,19,-1
 448 1024 l 1,20,-1
 832 1024 l 1,21,-1
 832 898 l 1,22,-1
 448 898 l 1,23,-1
 448 640 l 1,24,-1
 832 640 l 1,25,-1
 832 520 l 1,26,-1
 448 520 l 1,27,-1
 448 370 l 2,28,29
 448 315 448 315 449.5 288 c 128,-1,30
 451 261 451 261 461 226 c 128,-1,31
 471 191 471 191 491 166 c 0,32,33
 543 104 543 104 650 104 c 0,34,35
 721 104 721 104 832 119 c 1,36,-1
 832 -1 l 1,0,1
EndSplineSet
EndChar

StartChar: Uogonek
Encoding: 370 370 308
Width: 1024
GlyphClass: 2
Flags: W
LayerCount: 3
Fore
SplineSet
512 -230 m 0,0,1
 551 -230 551 -230 576 -225 c 1,2,-1
 576 -345 l 1,3,4
 544 -350 544 -350 492 -350 c 0,5,6
 426 -350 426 -350 369.5 -303.5 c 128,-1,7
 313 -257 313 -257 313 -185 c 0,8,9
 313 -87 313 -87 433 -9 c 1,10,11
 318 12 318 12 242 87.5 c 128,-1,12
 166 163 166 163 144 273 c 0,13,14
 128 351 128 351 128 482 c 2,15,-1
 128 1408 l 1,16,-1
 256 1408 l 1,17,-1
 256 482 l 2,18,19
 256 358 256 358 268 300 c 0,20,21
 287 209 287 209 349.5 156.5 c 128,-1,22
 412 104 412 104 512 104 c 128,-1,23
 612 104 612 104 674.5 156.5 c 128,-1,24
 737 209 737 209 756 300 c 0,25,26
 768 358 768 358 768 482 c 2,27,-1
 768 1408 l 1,28,-1
 896 1408 l 1,29,-1
 896 482 l 2,30,31
 896 351 896 351 880 273 c 0,32,33
 855 152 855 152 767 73.5 c 128,-1,34
 679 -5 679 -5 547 -15 c 1,35,36
 487 -47 487 -47 460.5 -80 c 128,-1,37
 434 -113 434 -113 434 -158 c 0,38,39
 434 -194 434 -194 457.5 -212 c 128,-1,40
 481 -230 481 -230 512 -230 c 0,0,1
EndSplineSet
EndChar

StartChar: uogonek
Encoding: 371 371 309
Width: 1024
GlyphClass: 2
Flags: W
LayerCount: 3
Fore
SplineSet
768 -230 m 0,0,1
 807 -230 807 -230 832 -225 c 1,2,-1
 832 -345 l 1,3,4
 800 -350 800 -350 748 -350 c 0,5,6
 682 -350 682 -350 625.5 -303.5 c 128,-1,7
 569 -257 569 -257 569 -185 c 0,8,9
 569 -82 569 -82 704 0 c 1,10,-1
 704 112 l 1,11,-1
 694 112 l 1,12,13
 657 54 657 54 602.5 19 c 128,-1,14
 548 -16 548 -16 492 -16 c 0,15,16
 420 -16 420 -16 360 13 c 128,-1,17
 300 42 300 42 261 91 c 0,18,19
 236 122 236 122 221 155 c 128,-1,20
 206 188 206 188 200.5 228 c 128,-1,21
 195 268 195 268 193.5 294 c 128,-1,22
 192 320 192 320 192 367 c 2,23,-1
 192 1024 l 1,24,-1
 320 1024 l 1,25,-1
 320 367 l 2,26,27
 320 312 320 312 321.5 285 c 128,-1,28
 323 258 323 258 333.5 224.5 c 128,-1,29
 344 191 344 191 365 166 c 0,30,31
 419 104 419 104 512 104 c 128,-1,32
 605 104 605 104 659 166 c 0,33,34
 680 191 680 191 690.5 224.5 c 128,-1,35
 701 258 701 258 702.5 285 c 128,-1,36
 704 312 704 312 704 367 c 2,37,-1
 704 1024 l 1,38,-1
 832 1024 l 1,39,-1
 832 0 l 1,40,41
 756 -37 756 -37 723 -72.5 c 128,-1,42
 690 -108 690 -108 690 -158 c 0,43,44
 690 -194 690 -194 713.5 -212 c 128,-1,45
 737 -230 737 -230 768 -230 c 0,0,1
EndSplineSet
EndChar

StartChar: longs
Encoding: 383 383 321
Width: 1024
GlyphClass: 2
Flags: W
LayerCount: 3
Fore
SplineSet
512 0 m 1,0,-1
 384 0 l 1,1,-1
 384 776 l 1,2,-1
 128 776 l 1,3,-1
 128 896 l 1,4,-1
 384 896 l 1,5,-1
 384 1129 l 2,6,7
 384 1167 384 1167 385.5 1190.5 c 128,-1,8
 387 1214 387 1214 399.5 1255.5 c 128,-1,9
 412 1297 412 1297 436 1329 c 0,10,11
 469 1374 469 1374 527.5 1399 c 128,-1,12
 586 1424 586 1424 660 1424 c 0,13,14
 754 1424 754 1424 896 1408 c 1,15,-1
 896 1288 l 1,16,17
 754 1304 754 1304 660 1304 c 0,18,19
 574 1304 574 1304 540 1259 c 0,20,21
 512 1222 512 1222 512 1129 c 2,22,-1
 512 0 l 1,0,-1
EndSplineSet
EndChar

StartChar: uni0189
Encoding: 393 393 322
Width: 1024
GlyphClass: 2
Flags: W
LayerCount: 3
Fore
SplineSet
848 704 m 128,-1,1
 848 852 848 852 828.5 955 c 128,-1,2
 809 1058 809 1058 761 1126 c 0,3,4
 647 1288 647 1288 410 1288 c 2,5,-1
 320 1288 l 1,6,-1
 320 764 l 1,7,-1
 576 764 l 1,8,-1
 576 644 l 1,9,-1
 320 644 l 1,10,-1
 320 120 l 1,11,-1
 410 120 l 2,12,13
 647 120 647 120 761 282 c 0,14,15
 809 350 809 350 828.5 453 c 128,-1,0
 848 556 848 556 848 704 c 128,-1,1
410 1408 m 2,16,17
 732 1408 732 1408 879 1171 c 0,18,19
 936 1081 936 1081 956 967 c 128,-1,20
 976 853 976 853 976 704 c 128,-1,21
 976 555 976 555 956 441 c 128,-1,22
 936 327 936 327 879 237 c 0,23,24
 732 0 732 0 410 0 c 2,25,-1
 192 0 l 1,26,-1
 192 644 l 1,27,-1
 64 644 l 1,28,-1
 64 764 l 1,29,-1
 192 764 l 1,30,-1
 192 1408 l 1,31,-1
 410 1408 l 2,16,17
EndSplineSet
EndChar

StartChar: uni018F
Encoding: 399 399 323
Width: 1024
GlyphClass: 2
Flags: W
LayerCount: 3
Fore
SplineSet
176 648 m 1,0,1
 178 486 178 486 201 382 c 0,2,3
 231 260 231 260 308.5 182 c 128,-1,4
 386 104 386 104 512 104 c 128,-1,5
 638 104 638 104 715.5 182 c 128,-1,6
 793 260 793 260 823 382 c 0,7,8
 846 486 846 486 848 648 c 1,9,-1
 176 648 l 1,0,1
848 768 m 1,10,11
 844 921 844 921 820 1016 c 0,12,13
 785 1151 785 1151 683.5 1227.5 c 128,-1,14
 582 1304 582 1304 415 1304 c 0,15,16
 278 1304 278 1304 114 1282 c 1,17,-1
 114 1402 l 1,18,19
 271 1424 271 1424 415 1424 c 0,20,21
 628 1424 628 1424 764.5 1321 c 128,-1,22
 901 1218 901 1218 945 1044 c 0,23,24
 976 922 976 922 976 704 c 0,25,26
 976 466 976 466 948 355 c 0,27,28
 908 193 908 193 797 88.5 c 128,-1,29
 686 -16 686 -16 512 -16 c 128,-1,30
 338 -16 338 -16 227 88.5 c 128,-1,31
 116 193 116 193 76 355 c 0,32,33
 58 426 58 426 53 518.5 c 128,-1,34
 48 611 48 611 48 768 c 1,35,-1
 848 768 l 1,10,11
EndSplineSet
EndChar

StartChar: uni01EA
Encoding: 490 490 324
Width: 1024
GlyphClass: 2
Flags: W
LayerCount: 3
Fore
SplineSet
512 -230 m 0,0,1
 551 -230 551 -230 576 -225 c 1,2,-1
 576 -345 l 1,3,4
 544 -350 544 -350 492 -350 c 0,5,6
 426 -350 426 -350 369.5 -303.5 c 128,-1,7
 313 -257 313 -257 313 -185 c 0,8,9
 313 -88 313 -88 434 -9 c 1,10,11
 344 8 344 8 273.5 61 c 128,-1,12
 203 114 203 114 159 186 c 0,13,14
 132 231 132 231 113 286.5 c 128,-1,15
 94 342 94 342 84.5 388 c 128,-1,16
 75 434 75 434 70 499.5 c 128,-1,17
 65 565 65 565 64.5 601.5 c 128,-1,18
 64 638 64 638 64 704 c 128,-1,19
 64 770 64 770 64.5 806.5 c 128,-1,20
 65 843 65 843 70 908.5 c 128,-1,21
 75 974 75 974 84.5 1020 c 128,-1,22
 94 1066 94 1066 113 1121.5 c 128,-1,23
 132 1177 132 1177 159 1222 c 0,24,25
 212 1309 212 1309 304 1366.5 c 128,-1,26
 396 1424 396 1424 512 1424 c 128,-1,27
 628 1424 628 1424 720 1366.5 c 128,-1,28
 812 1309 812 1309 865 1222 c 0,29,30
 892 1177 892 1177 911 1121.5 c 128,-1,31
 930 1066 930 1066 939.5 1020 c 128,-1,32
 949 974 949 974 954 908.5 c 128,-1,33
 959 843 959 843 959.5 806.5 c 128,-1,34
 960 770 960 770 960 704 c 128,-1,35
 960 638 960 638 959.5 601.5 c 128,-1,36
 959 565 959 565 954 499.5 c 128,-1,37
 949 434 949 434 939.5 388 c 128,-1,38
 930 342 930 342 911 286.5 c 128,-1,39
 892 231 892 231 865 186 c 0,40,41
 817 106 817 106 734.5 50.5 c 128,-1,42
 652 -5 652 -5 548 -14 c 1,43,44
 488 -46 488 -46 461 -79.5 c 128,-1,45
 434 -113 434 -113 434 -158 c 0,46,47
 434 -194 434 -194 457.5 -212 c 128,-1,48
 481 -230 481 -230 512 -230 c 0,0,1
512 1304 m 128,-1,50
 433 1304 433 1304 370.5 1264 c 128,-1,51
 308 1224 308 1224 270 1162 c 0,52,53
 242 1116 242 1116 225 1061.5 c 128,-1,54
 208 1007 208 1007 201.5 938.5 c 128,-1,55
 195 870 195 870 193.5 826 c 128,-1,56
 192 782 192 782 192 704 c 128,-1,57
 192 626 192 626 193.5 582 c 128,-1,58
 195 538 195 538 201.5 469.5 c 128,-1,59
 208 401 208 401 225 346.5 c 128,-1,60
 242 292 242 292 270 246 c 0,61,62
 308 184 308 184 370.5 144 c 128,-1,63
 433 104 433 104 512 104 c 128,-1,64
 591 104 591 104 653.5 144 c 128,-1,65
 716 184 716 184 754 246 c 0,66,67
 782 292 782 292 799 346.5 c 128,-1,68
 816 401 816 401 822.5 469.5 c 128,-1,69
 829 538 829 538 830.5 582 c 128,-1,70
 832 626 832 626 832 704 c 128,-1,71
 832 782 832 782 830.5 826 c 128,-1,72
 829 870 829 870 822.5 938.5 c 128,-1,73
 816 1007 816 1007 799 1061.5 c 128,-1,74
 782 1116 782 1116 754 1162 c 0,75,76
 716 1224 716 1224 653.5 1264 c 128,-1,49
 591 1304 591 1304 512 1304 c 128,-1,50
EndSplineSet
EndChar

StartChar: uni01EB
Encoding: 491 491 325
Width: 1024
GlyphClass: 2
Flags: W
LayerCount: 3
Fore
SplineSet
512 -230 m 0,0,1
 551 -230 551 -230 576 -225 c 1,2,-1
 576 -345 l 1,3,4
 544 -350 544 -350 492 -350 c 0,5,6
 426 -350 426 -350 369.5 -303.5 c 128,-1,7
 313 -257 313 -257 313 -185 c 0,8,9
 313 -87 313 -87 435 -8 c 1,10,11
 301 22 301 22 225 144 c 0,12,13
 186 208 186 208 173 295.5 c 128,-1,14
 160 383 160 383 160 512 c 128,-1,15
 160 641 160 641 173 728.5 c 128,-1,16
 186 816 186 816 225 880 c 0,17,18
 272 955 272 955 345.5 997.5 c 128,-1,19
 419 1040 419 1040 512 1040 c 128,-1,20
 605 1040 605 1040 678.5 997.5 c 128,-1,21
 752 955 752 955 799 880 c 0,22,23
 838 816 838 816 851 728.5 c 128,-1,24
 864 641 864 641 864 512 c 128,-1,25
 864 383 864 383 851 295.5 c 128,-1,26
 838 208 838 208 799 144 c 0,27,28
 710 2 710 2 548 -14 c 1,29,30
 488 -46 488 -46 461 -79.5 c 128,-1,31
 434 -113 434 -113 434 -158 c 0,32,33
 434 -194 434 -194 457.5 -212 c 128,-1,34
 481 -230 481 -230 512 -230 c 0,0,1
512 920 m 128,-1,36
 394 920 394 920 336 822 c 0,37,38
 314 785 314 785 303 729.5 c 128,-1,39
 292 674 292 674 290 630 c 128,-1,40
 288 586 288 586 288 512 c 128,-1,41
 288 438 288 438 290 394 c 128,-1,42
 292 350 292 350 303 294.5 c 128,-1,43
 314 239 314 239 336 202 c 0,44,45
 394 104 394 104 512 104 c 128,-1,46
 630 104 630 104 688 202 c 0,47,48
 710 239 710 239 721 294.5 c 128,-1,49
 732 350 732 350 734 394 c 128,-1,50
 736 438 736 438 736 512 c 128,-1,51
 736 586 736 586 734 630 c 128,-1,52
 732 674 732 674 721 729.5 c 128,-1,53
 710 785 710 785 688 822 c 0,54,35
 630 920 630 920 512 920 c 128,-1,36
EndSplineSet
EndChar

StartChar: uni0237
Encoding: 567 567 354
Width: 1024
GlyphClass: 2
Flags: W
LayerCount: 3
Fore
SplineSet
192 -265 m 1,0,1
 295 -280 295 -280 384 -280 c 0,2,3
 481 -280 481 -280 533 -218 c 0,4,5
 553 -193 553 -193 563 -158.5 c 128,-1,6
 573 -124 573 -124 574.5 -97 c 128,-1,7
 576 -70 576 -70 576 -14 c 2,8,-1
 576 904 l 1,9,-1
 320 904 l 1,10,-1
 320 1024 l 1,11,-1
 704 1024 l 1,12,-1
 704 -24 l 2,13,14
 704 -85 704 -85 701.5 -119 c 128,-1,15
 699 -153 699 -153 683.5 -203.5 c 128,-1,16
 668 -254 668 -254 636 -292 c 0,17,18
 547 -400 547 -400 394 -400 c 0,19,20
 292 -400 292 -400 192 -385 c 1,21,-1
 192 -265 l 1,0,1
EndSplineSet
EndChar

StartChar: uni0259
Encoding: 601 601 355
Width: 1024
GlyphClass: 2
Flags: W
LayerCount: 3
Fore
SplineSet
512 104 m 128,-1,1
 584 104 584 104 634.5 136 c 128,-1,2
 685 168 685 168 707 225 c 0,3,4
 728 273 728 273 734 392 c 1,5,-1
 290 392 l 1,6,7
 296 273 296 273 317 225 c 0,8,9
 339 168 339 168 389.5 136 c 128,-1,0
 440 104 440 104 512 104 c 128,-1,1
512 -16 m 128,-1,11
 395 -16 395 -16 312.5 40 c 128,-1,12
 230 96 230 96 197 185 c 0,13,14
 180 228 180 228 171.5 286 c 128,-1,15
 163 344 163 344 161.5 388.5 c 128,-1,16
 160 433 160 433 160 512 c 1,17,-1
 736 512 l 1,18,19
 736 580 736 580 735 616.5 c 128,-1,20
 734 653 734 653 726.5 704 c 128,-1,21
 719 755 719 755 704 789 c 0,22,23
 646 920 646 920 492 920 c 0,24,25
 376 920 376 920 192 899 c 1,26,-1
 192 1019 l 1,27,28
 374 1040 374 1040 492 1040 c 0,29,30
 616 1040 616 1040 701 982 c 128,-1,31
 786 924 786 924 824 831 c 0,32,33
 850 768 850 768 857 696 c 128,-1,34
 864 624 864 624 864 512 c 0,35,36
 864 433 864 433 862.5 388.5 c 128,-1,37
 861 344 861 344 852.5 286 c 128,-1,38
 844 228 844 228 827 185 c 0,39,40
 794 96 794 96 711.5 40 c 128,-1,10
 629 -16 629 -16 512 -16 c 128,-1,11
EndSplineSet
EndChar

StartChar: uni025B
Encoding: 603 603 356
Width: 1024
GlyphClass: 2
Flags: W
LayerCount: 3
Fore
SplineSet
315 563 m 1,0,-1
 315 573 l 1,1,2
 172 632 172 632 172 777 c 0,3,4
 172 888 172 888 269.5 964 c 128,-1,5
 367 1040 367 1040 523 1040 c 0,6,7
 643 1040 643 1040 814 1024 c 1,8,-1
 814 904 l 1,9,10
 620 920 620 920 523 920 c 0,11,12
 417 920 417 920 358.5 877.5 c 128,-1,13
 300 835 300 835 300 777 c 0,14,15
 300 725 300 725 339.5 688.5 c 128,-1,16
 379 652 379 652 434 641 c 0,17,18
 480 632 480 632 567 632 c 2,19,-1
 706 632 l 1,20,-1
 706 512 l 1,21,-1
 568 512 l 2,22,23
 486 512 486 512 445 503 c 0,24,25
 376 488 376 488 333 435.5 c 128,-1,26
 290 383 290 383 290 308 c 0,27,28
 290 214 290 214 354.5 159 c 128,-1,29
 419 104 419 104 524 104 c 0,30,31
 656 104 656 104 834 114 c 1,32,-1
 834 -6 l 1,33,34
 661 -16 661 -16 524 -16 c 0,35,36
 366 -16 366 -16 264 74.5 c 128,-1,37
 162 165 162 165 162 308 c 0,38,39
 162 489 162 489 315 563 c 1,0,-1
EndSplineSet
EndChar

StartChar: uni025C
Encoding: 604 604 357
Width: 1024
GlyphClass: 2
Flags: W
LayerCount: 3
Fore
SplineSet
711 563 m 1,0,1
 864 489 864 489 864 308 c 0,2,3
 864 165 864 165 762 74.5 c 128,-1,4
 660 -16 660 -16 502 -16 c 0,5,6
 365 -16 365 -16 192 -6 c 1,7,-1
 192 114 l 1,8,9
 370 104 370 104 502 104 c 0,10,11
 607 104 607 104 671.5 159 c 128,-1,12
 736 214 736 214 736 308 c 0,13,14
 736 383 736 383 693 435.5 c 128,-1,15
 650 488 650 488 581 503 c 0,16,17
 540 512 540 512 458 512 c 2,18,-1
 320 512 l 1,19,-1
 320 632 l 1,20,-1
 459 632 l 2,21,22
 546 632 546 632 592 641 c 0,23,24
 647 652 647 652 686.5 688.5 c 128,-1,25
 726 725 726 725 726 777 c 0,26,27
 726 835 726 835 667.5 877.5 c 128,-1,28
 609 920 609 920 503 920 c 0,29,30
 406 920 406 920 212 904 c 1,31,-1
 212 1024 l 1,32,33
 383 1040 383 1040 503 1040 c 0,34,35
 659 1040 659 1040 756.5 964 c 128,-1,36
 854 888 854 888 854 777 c 0,37,38
 854 632 854 632 711 573 c 1,39,-1
 711 563 l 1,0,1
EndSplineSet
EndChar

StartChar: uni02BB
Encoding: 699 699 358
Width: 1024
GlyphClass: 2
Flags: W
LayerCount: 3
Fore
SplineSet
448 1257 m 2,0,1
 448 1298 448 1298 449.5 1322 c 128,-1,2
 451 1346 451 1346 463.5 1385.5 c 128,-1,3
 476 1425 476 1425 500 1457 c 0,4,5
 570 1552 570 1552 704 1552 c 1,6,-1
 704 1432 l 1,7,8
 638 1432 638 1432 604 1387 c 0,9,10
 591 1370 591 1370 584.5 1346.5 c 128,-1,11
 578 1323 578 1323 577 1306.5 c 128,-1,12
 576 1290 576 1290 576 1257 c 2,13,-1
 576 1024 l 1,14,-1
 448 1024 l 1,15,-1
 448 1257 l 2,0,1
EndSplineSet
EndChar

StartChar: uni02BC
Encoding: 700 700 359
Width: 1024
GlyphClass: 2
Flags: W
LayerCount: 3
Fore
SplineSet
576 1303 m 2,0,1
 576 1262 576 1262 574.5 1238 c 128,-1,2
 573 1214 573 1214 560.5 1174.5 c 128,-1,3
 548 1135 548 1135 524 1103 c 0,4,5
 454 1008 454 1008 320 1008 c 1,6,-1
 320 1128 l 1,7,8
 386 1128 386 1128 420 1173 c 0,9,10
 433 1190 433 1190 439.5 1213.5 c 128,-1,11
 446 1237 446 1237 447 1253.5 c 128,-1,12
 448 1270 448 1270 448 1303 c 2,13,-1
 448 1536 l 1,14,-1
 576 1536 l 1,15,-1
 576 1303 l 2,0,1
EndSplineSet
EndChar

StartChar: gravecomb
Encoding: 768 768 360
Width: 1024
GlyphClass: 4
Flags: W
LayerCount: 3
Fore
SplineSet
600 1280 m 1,0,-1
 462 1280 l 1,1,-1
 296 1536 l 1,2,-1
 434 1536 l 1,3,-1
 600 1280 l 1,0,-1
EndSplineSet
EndChar

StartChar: acutecomb
Encoding: 769 769 361
Width: 1024
GlyphClass: 4
Flags: W
LayerCount: 3
Fore
SplineSet
424 1280 m 1,0,-1
 590 1536 l 1,1,-1
 728 1536 l 1,2,-1
 562 1280 l 1,3,-1
 424 1280 l 1,0,-1
EndSplineSet
EndChar

StartChar: uni0302
Encoding: 770 770 362
Width: 1024
GlyphClass: 4
Flags: W
LayerCount: 3
Fore
SplineSet
433 1536 m 1,0,-1
 591 1536 l 1,1,-1
 888 1280 l 1,2,-1
 730 1280 l 1,3,-1
 512 1444 l 1,4,-1
 294 1280 l 1,5,-1
 136 1280 l 1,6,-1
 433 1536 l 1,0,-1
EndSplineSet
EndChar

StartChar: tildecomb
Encoding: 771 771 363
Width: 1024
GlyphClass: 4
Flags: W
LayerCount: 3
Fore
SplineSet
384 1412 m 0,0,1
 323 1412 323 1412 317 1299 c 1,2,-1
 189 1305 l 1,3,4
 192 1401 192 1401 242.5 1466.5 c 128,-1,5
 293 1532 293 1532 384 1532 c 0,6,7
 424 1532 424 1532 458.5 1519 c 128,-1,8
 493 1506 493 1506 515.5 1487 c 128,-1,9
 538 1468 538 1468 558 1449 c 128,-1,10
 578 1430 578 1430 598.5 1417 c 128,-1,11
 619 1404 619 1404 640 1404 c 0,12,13
 701 1404 701 1404 707 1517 c 1,14,-1
 835 1511 l 1,15,16
 833 1417 833 1417 782 1350.5 c 128,-1,17
 731 1284 731 1284 640 1284 c 0,18,19
 600 1284 600 1284 565.5 1297 c 128,-1,20
 531 1310 531 1310 508.5 1329 c 128,-1,21
 486 1348 486 1348 466 1367 c 128,-1,22
 446 1386 446 1386 425.5 1399 c 128,-1,23
 405 1412 405 1412 384 1412 c 0,0,1
EndSplineSet
EndChar

StartChar: uni0304
Encoding: 772 772 364
Width: 1024
GlyphClass: 4
Flags: W
LayerCount: 3
Fore
SplineSet
192 1404 m 1,0,-1
 832 1404 l 1,1,-1
 832 1284 l 1,2,-1
 192 1284 l 1,3,-1
 192 1404 l 1,0,-1
EndSplineSet
EndChar

